<svg xmlns="http://www.w3.org/2000/svg" viewBox="0 0 1920 1280" width="1920" height="1280">
<defs>
<linearGradient id="sky" x1="0" y1="0" x2="0" y2="1">
 <stop offset="0" stop-color="#05060c"/><stop offset="1" stop-color="#10142a"/>
</linearGradient>
<linearGradient id="acc" x1="0" y1="0" x2="1" y2="1">
 <stop offset="0" stop-color="#7c5cff"/><stop offset="1" stop-color="#43e0d0"/>
</linearGradient>
<linearGradient id="accv" x1="0" y1="0" x2="0" y2="1">
 <stop offset="0" stop-color="#7c5cff"/><stop offset="1" stop-color="#43e0d0"/>
</linearGradient>
<radialGradient id="mgrad" cx="0.35" cy="0.3" r="1">
 <stop offset="0" stop-color="#a99cff"/><stop offset="1" stop-color="#5fe6d6"/>
</radialGradient>
<radialGradient id="halo" cx="0.5" cy="0.5" r="0.5">
 <stop offset="0" stop-color="rgba(103,220,205,.34)"/><stop offset="1" stop-color="rgba(103,220,205,0)"/>
</radialGradient>
<radialGradient id="vig" cx="0.5" cy="0.46" r="0.85">
 <stop offset="0.55" stop-color="rgba(0,0,0,0)"/><stop offset="1" stop-color="rgba(0,0,4,.5)"/>
</radialGradient>
<linearGradient id="wgrad" x1="0" y1="0" x2="0" y2="1">
 <stop offset="0" stop-color="#0b111e"/><stop offset="1" stop-color="#070a12"/>
</linearGradient>
<filter id="soft" x="-40%" y="-40%" width="180%" height="180%"><feGaussianBlur stdDeviation="7"/></filter>
<filter id="soft2" x="-60%" y="-60%" width="220%" height="220%"><feGaussianBlur stdDeviation="16"/></filter>
<filter id="grain"><feTurbulence type="fractalNoise" baseFrequency="0.8" numOctaves="2" stitchTiles="stitch"/>
 <feColorMatrix type="matrix" values="0 0 0 0 1 0 0 0 0 1 0 0 0 0 1 0 0 0 0.05 0"/><feComposite operator="over" in2="SourceGraphic"/></filter>
</defs>
<style>
@keyframes tw{0%,100%{opacity:.1}50%{opacity:1}}
.tw{animation:tw 3.4s ease-in-out infinite}
.tw.d1{animation-delay:.6s}.tw.d2{animation-delay:1.2s}.tw.d3{animation-delay:1.9s}.tw.d4{animation-delay:2.6s}.tw.d5{animation-delay:3.1s}
@keyframes shoot{0%,84%{opacity:0;transform:translate(0,0)}86%{opacity:1}96%{opacity:0;transform:translate(-620px,320px)}100%{opacity:0}}
.shoot{animation:shoot 12s linear infinite}
.shoot.s2{animation-duration:19s;animation-delay:7s}
@keyframes bob{0%,100%{transform:translateY(0px) rotate(-1.2deg)}50%{transform:translateY(9px) rotate(1.4deg)}}
.bob{animation:bob 5.6s ease-in-out infinite;transform-box:fill-box;transform-origin:center}
.bob.b2{animation-duration:7.2s;animation-delay:1.1s}
@keyframes shim{0%,100%{opacity:.22}50%{opacity:.75}}
.shim{animation:shim 4.4s ease-in-out infinite}
.shim.d1{animation-delay:1.4s}.shim.d2{animation-delay:2.7s}.shim.d3{animation-delay:3.6s}
@keyframes flick{0%,91%,100%{opacity:.9}93%{opacity:.25}95%{opacity:.85}}
.flick{animation:flick 8s linear infinite}.flick.f2{animation-delay:3.5s}
@keyframes spin{from{transform:rotate(0deg)}to{transform:rotate(360deg)}}
.wheel{animation:spin 80s linear infinite;transform-box:fill-box;transform-origin:center}
@keyframes aur{0%,100%{opacity:.34;transform:skewX(0deg)}50%{opacity:.72;transform:skewX(-4deg)}}
.aur{animation:aur 9s ease-in-out infinite;transform-box:fill-box;transform-origin:bottom}
.aur.a2{animation-duration:13s;animation-delay:2.5s}
@keyframes fall{from{transform:translateY(-140px)}to{transform:translateY(150px)}}
.fall{animation:fall 9s linear infinite}.fall.f2{animation-duration:13s;animation-delay:2s}.fall.f3{animation-duration:11s;animation-delay:5s}
@keyframes sway{0%,100%{transform:rotate(-1.4deg)}50%{transform:rotate(1.4deg)}}
.sway{animation:sway 7s ease-in-out infinite;transform-box:fill-box;transform-origin:bottom center}

@media (prefers-reduced-motion:reduce){*{animation:none!important}}
</style>
<rect width="1920" height="1280" fill="url(#sky)"/><circle cx="625" cy="327" r="2.1" fill="#c9d4e6" opacity="0.29"/>
<circle cx="1870" cy="391" r="2.0" fill="#c9d4e6" opacity="0.73"/>
<circle cx="1178" cy="407" r="2.1" fill="#dfe8f5" class="tw d4"/>
<circle cx="1840" cy="543" r="2.0" fill="#c9d4e6" opacity="0.59"/>
<circle cx="1420" cy="105" r="1.0" fill="#c9d4e6" opacity="0.47"/>
<circle cx="1480" cy="246" r="1.1" fill="#c9d4e6" opacity="0.66"/>
<circle cx="233" cy="566" r="1.2" fill="#dfe8f5" class="tw d2"/>
<circle cx="481" cy="491" r="1.7" fill="#c9d4e6" opacity="0.79"/>
<circle cx="405" cy="196" r="1.0" fill="#c9d4e6" opacity="0.54"/>
<circle cx="1376" cy="133" r="1.4" fill="#dfe8f5" class="tw d3"/>
<circle cx="1059" cy="489" r="1.0" fill="#dfe8f5" class="tw"/>
<circle cx="1034" cy="318" r="2.1" fill="#c9d4e6" opacity="0.31"/>
<circle cx="341" cy="72" r="1.2" fill="#c9d4e6" opacity="0.78"/>
<circle cx="1399" cy="363" r="2.2" fill="#c9d4e6" opacity="0.55"/>
<circle cx="956" cy="380" r="1.5" fill="#dfe8f5" class="tw d2"/>
<circle cx="1359" cy="235" r="1.7" fill="#dfe8f5" class="tw d1"/>
<circle cx="413" cy="253" r="1.1" fill="#c9d4e6" opacity="0.43"/>
<circle cx="1623" cy="267" r="2.3" fill="#dfe8f5" class="tw"/>
<circle cx="1045" cy="443" r="2.1" fill="#c9d4e6" opacity="0.35"/>
<circle cx="1139" cy="337" r="0.9" fill="#dfe8f5" class="tw d2"/>
<circle cx="1363" cy="43" r="1.8" fill="#c9d4e6" opacity="0.28"/>
<circle cx="1093" cy="242" r="1.4" fill="#dfe8f5" class="tw d3"/>
<circle cx="1411" cy="451" r="1.3" fill="#c9d4e6" opacity="0.67"/>
<circle cx="1233" cy="362" r="1.4" fill="#c9d4e6" opacity="0.33"/>
<circle cx="1398" cy="487" r="1.2" fill="#c9d4e6" opacity="0.31"/>
<circle cx="1540" cy="150" r="2.4" fill="#c9d4e6" opacity="0.72"/>
<circle cx="1365" cy="156" r="1.4" fill="#c9d4e6" opacity="0.34"/>
<circle cx="550" cy="351" r="1.6" fill="#c9d4e6" opacity="0.74"/>
<circle cx="1461" cy="598" r="1.4" fill="#c9d4e6" opacity="0.54"/>
<circle cx="1077" cy="306" r="1.5" fill="#c9d4e6" opacity="0.50"/>
<circle cx="289" cy="146" r="2.0" fill="#c9d4e6" opacity="0.69"/>
<circle cx="778" cy="393" r="1.6" fill="#c9d4e6" opacity="0.79"/>
<circle cx="1339" cy="228" r="1.2" fill="#c9d4e6" opacity="0.35"/>
<circle cx="997" cy="273" r="1.1" fill="#c9d4e6" opacity="0.33"/>
<circle cx="1294" cy="419" r="1.2" fill="#dfe8f5" class="tw d3"/>
<circle cx="820" cy="237" r="2.1" fill="#c9d4e6" opacity="0.26"/>
<circle cx="1238" cy="87" r="1.1" fill="#c9d4e6" opacity="0.26"/>
<circle cx="1511" cy="16" r="2.4" fill="#c9d4e6" opacity="0.55"/>
<circle cx="1270" cy="545" r="2.1" fill="#dfe8f5" class="tw d4"/>
<circle cx="1877" cy="141" r="1.2" fill="#c9d4e6" opacity="0.60"/>
<circle cx="124" cy="590" r="2.1" fill="#c9d4e6" opacity="0.56"/>
<circle cx="1639" cy="227" r="1.1" fill="#dfe8f5" class="tw d5"/><circle cx="360" cy="210" r="125" fill="url(#halo)"/>
<circle cx="360" cy="210" r="48" fill="url(#mgrad)"/><path d="M1280,946 L1400,700 L1560,620 L1720,680 L1920,760 L1920,946 Z" fill="#141a27"/><path d="M1400,700 L1560,620 L1720,680 L1920,760" fill="none" stroke="url(#acc)" stroke-width="2" opacity=".5"/><rect x="320" y="680" width="760" height="266" fill="#1a2130"/><line x1="320" y1="733" x2="1080" y2="733" stroke="#141b2c" stroke-width="1.4" opacity=".7"/><line x1="320" y1="786" x2="1080" y2="786" stroke="#141b2c" stroke-width="1.4" opacity=".7"/><line x1="320" y1="839" x2="1080" y2="839" stroke="#141b2c" stroke-width="1.4" opacity=".7"/><line x1="320" y1="892" x2="1080" y2="892" stroke="#141b2c" stroke-width="1.4" opacity=".7"/><rect x="600" y="820" width="200" height="126" fill="#171e2c"/><path d="M620,946 v-70 a18,20 0 0 1 36,0 v70 Z M682,946 v-70 a18,20 0 0 1 36,0 v70 Z M744,946 v-70 a18,20 0 0 1 36,0 v70 Z" fill="#0b0f18" stroke="#43e0d0" stroke-width="1.3" opacity=".9"/><rect x="314" y="620" width="40" height="80" fill="#1c2434"/><path d="M310,620 L334,570 L358,620 Z" fill="#171e2c" stroke="url(#acc)" stroke-width="1.6" opacity=".9"/><rect x="470" y="620" width="40" height="80" fill="#1c2434"/><path d="M466,620 L490,570 L514,620 Z" fill="#171e2c" stroke="url(#acc)" stroke-width="1.6" opacity=".9"/><rect x="890" y="620" width="40" height="80" fill="#1c2434"/><path d="M886,620 L910,570 L934,620 Z" fill="#171e2c" stroke="url(#acc)" stroke-width="1.6" opacity=".9"/><rect x="1046" y="620" width="40" height="80" fill="#1c2434"/><path d="M1042,620 L1066,570 L1090,620 Z" fill="#171e2c" stroke="url(#acc)" stroke-width="1.6" opacity=".9"/><path d="M600,680 Q700,560 800,680 Z" fill="#232c40" stroke="url(#acc)" stroke-width="2.2"/><rect x="676" y="586" width="48" height="30" fill="#232c40"/><line x1="700" y1="586" x2="700" y2="552" stroke="url(#acc)" stroke-width="2.2"/><path d="M336,680 l10,-16 l10,16 Z" fill="#1c2434"/><path d="M378,680 l10,-16 l10,16 Z" fill="#1c2434"/><path d="M420,680 l10,-16 l10,16 Z" fill="#1c2434"/><path d="M462,680 l10,-16 l10,16 Z" fill="#1c2434"/><path d="M504,680 l10,-16 l10,16 Z" fill="#1c2434"/><path d="M546,680 l10,-16 l10,16 Z" fill="#1c2434"/><path d="M588,680 l10,-16 l10,16 Z" fill="#1c2434"/><path d="M630,680 l10,-16 l10,16 Z" fill="#1c2434"/><path d="M672,680 l10,-16 l10,16 Z" fill="#1c2434"/><path d="M714,680 l10,-16 l10,16 Z" fill="#1c2434"/><path d="M756,680 l10,-16 l10,16 Z" fill="#1c2434"/><path d="M798,680 l10,-16 l10,16 Z" fill="#1c2434"/><path d="M840,680 l10,-16 l10,16 Z" fill="#1c2434"/><path d="M882,680 l10,-16 l10,16 Z" fill="#1c2434"/><path d="M924,680 l10,-16 l10,16 Z" fill="#1c2434"/><path d="M966,680 l10,-16 l10,16 Z" fill="#1c2434"/><path d="M1008,680 l10,-16 l10,16 Z" fill="#1c2434"/><path d="M1050,680 l10,-16 l10,16 Z" fill="#1c2434"/><path d="M400,780 a17,20 0 0 1 34,0 v52 h-34 Z" fill="#0b0f18" stroke="#7c5cff" stroke-width="1.4" opacity=".85"/><path d="M520,780 a17,20 0 0 1 34,0 v52 h-34 Z" fill="#0b0f18" stroke="#7c5cff" stroke-width="1.4" opacity=".85"/><path d="M640,780 a17,20 0 0 1 34,0 v52 h-34 Z" fill="#0b0f18" stroke="#7c5cff" stroke-width="1.4" opacity=".85"/><path d="M760,780 a17,20 0 0 1 34,0 v52 h-34 Z" fill="#0b0f18" stroke="#7c5cff" stroke-width="1.4" opacity=".85"/><path d="M880,780 a17,20 0 0 1 34,0 v52 h-34 Z" fill="#0b0f18" stroke="#7c5cff" stroke-width="1.4" opacity=".85"/><path d="M1000,780 a17,20 0 0 1 34,0 v52 h-34 Z" fill="#0b0f18" stroke="#7c5cff" stroke-width="1.4" opacity=".85"/><rect x="320" y="680" width="760" height="266" fill="none" stroke="url(#acc)" stroke-width="1.8" opacity=".6"/><rect x="0" y="946" width="1920" height="334" fill="#0a0e17"/><line x1="0" y1="946" x2="1920" y2="946" stroke="url(#acc)" stroke-width="2" opacity=".45"/><g class="sway"><path d="M180,946 Q189,836 202,746" fill="none" stroke="#232c40" stroke-width="14" stroke-linecap="round"/><path d="M180,946 Q189,836 202,746" fill="none" stroke="url(#acc)" stroke-width="3.2" opacity=".9"/><path d="M202,746 Q159,723 130,726" fill="none" stroke="url(#acc)" stroke-width="3.4" stroke-linecap="round" opacity=".85"/><path d="M202,746 Q200,710 199,696" fill="none" stroke="url(#acc)" stroke-width="3.4" stroke-linecap="round" opacity=".85"/><path d="M202,746 Q236,717 255,712" fill="none" stroke="url(#acc)" stroke-width="3.4" stroke-linecap="round" opacity=".85"/><path d="M202,746 Q248,729 303,743" fill="none" stroke="url(#acc)" stroke-width="3.4" stroke-linecap="round" opacity=".85"/><path d="M202,746 Q220,748 234,791" fill="none" stroke="url(#acc)" stroke-width="3.4" stroke-linecap="round" opacity=".85"/><path d="M202,746 Q190,749 180,786" fill="none" stroke="url(#acc)" stroke-width="3.4" stroke-linecap="round" opacity=".85"/></g><g class="sway"><path d="M1200,946 Q1193,852 1182,776" fill="none" stroke="#232c40" stroke-width="14" stroke-linecap="round"/><path d="M1200,946 Q1193,852 1182,776" fill="none" stroke="url(#acc)" stroke-width="3.2" opacity=".9"/><path d="M1182,776 Q1139,753 1115,763" fill="none" stroke="url(#acc)" stroke-width="3.4" stroke-linecap="round" opacity=".85"/><path d="M1182,776 Q1177,740 1175,713" fill="none" stroke="url(#acc)" stroke-width="3.4" stroke-linecap="round" opacity=".85"/><path d="M1182,776 Q1207,743 1237,741" fill="none" stroke="url(#acc)" stroke-width="3.4" stroke-linecap="round" opacity=".85"/><path d="M1182,776 Q1226,766 1273,792" fill="none" stroke="url(#acc)" stroke-width="3.4" stroke-linecap="round" opacity=".85"/><path d="M1182,776 Q1206,777 1234,814" fill="none" stroke="url(#acc)" stroke-width="3.4" stroke-linecap="round" opacity=".85"/><path d="M1182,776 Q1166,779 1149,822" fill="none" stroke="url(#acc)" stroke-width="3.4" stroke-linecap="round" opacity=".85"/></g><rect width="1920" height="1280" fill="url(#vig)"/>
<rect width="1920" height="1280" filter="url(#grain)" opacity="0.55" fill="none"/>
</svg>