<svg xmlns="http://www.w3.org/2000/svg" viewBox="0 0 1920 1280" width="1920" height="1280">
<defs>
<linearGradient id="sky" x1="0" y1="0" x2="0" y2="1">
 <stop offset="0" stop-color="#05060c"/><stop offset="1" stop-color="#101226"/>
</linearGradient>
<linearGradient id="acc" x1="0" y1="0" x2="1" y2="1">
 <stop offset="0" stop-color="#7c5cff"/><stop offset="1" stop-color="#43e0d0"/>
</linearGradient>
<linearGradient id="accv" x1="0" y1="0" x2="0" y2="1">
 <stop offset="0" stop-color="#7c5cff"/><stop offset="1" stop-color="#43e0d0"/>
</linearGradient>
<radialGradient id="mgrad" cx="0.35" cy="0.3" r="1">
 <stop offset="0" stop-color="#a99cff"/><stop offset="1" stop-color="#5fe6d6"/>
</radialGradient>
<radialGradient id="halo" cx="0.5" cy="0.5" r="0.5">
 <stop offset="0" stop-color="rgba(103,220,205,.34)"/><stop offset="1" stop-color="rgba(103,220,205,0)"/>
</radialGradient>
<radialGradient id="vig" cx="0.5" cy="0.46" r="0.85">
 <stop offset="0.55" stop-color="rgba(0,0,0,0)"/><stop offset="1" stop-color="rgba(0,0,4,.5)"/>
</radialGradient>
<linearGradient id="wgrad" x1="0" y1="0" x2="0" y2="1">
 <stop offset="0" stop-color="#0b111e"/><stop offset="1" stop-color="#070a12"/>
</linearGradient>
<filter id="soft" x="-40%" y="-40%" width="180%" height="180%"><feGaussianBlur stdDeviation="7"/></filter>
<filter id="soft2" x="-60%" y="-60%" width="220%" height="220%"><feGaussianBlur stdDeviation="16"/></filter>
<filter id="grain"><feTurbulence type="fractalNoise" baseFrequency="0.8" numOctaves="2" stitchTiles="stitch"/>
 <feColorMatrix type="matrix" values="0 0 0 0 1 0 0 0 0 1 0 0 0 0 1 0 0 0 0.05 0"/><feComposite operator="over" in2="SourceGraphic"/></filter>
</defs>
<style>
@keyframes tw{0%,100%{opacity:.1}50%{opacity:1}}
.tw{animation:tw 3.4s ease-in-out infinite}
.tw.d1{animation-delay:.6s}.tw.d2{animation-delay:1.2s}.tw.d3{animation-delay:1.9s}.tw.d4{animation-delay:2.6s}.tw.d5{animation-delay:3.1s}
@keyframes shoot{0%,84%{opacity:0;transform:translate(0,0)}86%{opacity:1}96%{opacity:0;transform:translate(-620px,320px)}100%{opacity:0}}
.shoot{animation:shoot 12s linear infinite}
.shoot.s2{animation-duration:19s;animation-delay:7s}
@keyframes bob{0%,100%{transform:translateY(0px) rotate(-1.2deg)}50%{transform:translateY(9px) rotate(1.4deg)}}
.bob{animation:bob 5.6s ease-in-out infinite;transform-box:fill-box;transform-origin:center}
.bob.b2{animation-duration:7.2s;animation-delay:1.1s}
@keyframes shim{0%,100%{opacity:.22}50%{opacity:.75}}
.shim{animation:shim 4.4s ease-in-out infinite}
.shim.d1{animation-delay:1.4s}.shim.d2{animation-delay:2.7s}.shim.d3{animation-delay:3.6s}
@keyframes flick{0%,91%,100%{opacity:.9}93%{opacity:.25}95%{opacity:.85}}
.flick{animation:flick 8s linear infinite}.flick.f2{animation-delay:3.5s}
@keyframes spin{from{transform:rotate(0deg)}to{transform:rotate(360deg)}}
.wheel{animation:spin 80s linear infinite;transform-box:fill-box;transform-origin:center}
@keyframes aur{0%,100%{opacity:.34;transform:skewX(0deg)}50%{opacity:.72;transform:skewX(-4deg)}}
.aur{animation:aur 9s ease-in-out infinite;transform-box:fill-box;transform-origin:bottom}
.aur.a2{animation-duration:13s;animation-delay:2.5s}
@keyframes fall{from{transform:translateY(-140px)}to{transform:translateY(150px)}}
.fall{animation:fall 9s linear infinite}.fall.f2{animation-duration:13s;animation-delay:2s}.fall.f3{animation-duration:11s;animation-delay:5s}
@keyframes sway{0%,100%{transform:rotate(-1.4deg)}50%{transform:rotate(1.4deg)}}
.sway{animation:sway 7s ease-in-out infinite;transform-box:fill-box;transform-origin:bottom center}

@media (prefers-reduced-motion:reduce){*{animation:none!important}}
</style>
<rect width="1920" height="1280" fill="url(#sky)"/><circle cx="590" cy="160" r="1.4" fill="#c9d4e6" opacity="0.41"/>
<circle cx="1206" cy="591" r="1.7" fill="#dfe8f5" class="tw d3"/>
<circle cx="39" cy="317" r="1.8" fill="#dfe8f5" class="tw"/>
<circle cx="1873" cy="130" r="2.0" fill="#dfe8f5" class="tw d5"/>
<circle cx="1353" cy="579" r="1.4" fill="#c9d4e6" opacity="0.55"/>
<circle cx="40" cy="512" r="1.4" fill="#dfe8f5" class="tw d5"/>
<circle cx="1478" cy="405" r="1.8" fill="#c9d4e6" opacity="0.52"/>
<circle cx="279" cy="279" r="2.1" fill="#c9d4e6" opacity="0.43"/>
<circle cx="626" cy="270" r="1.5" fill="#c9d4e6" opacity="0.28"/>
<circle cx="169" cy="243" r="1.9" fill="#c9d4e6" opacity="0.30"/>
<circle cx="149" cy="76" r="1.4" fill="#c9d4e6" opacity="0.61"/>
<circle cx="1725" cy="83" r="1.5" fill="#c9d4e6" opacity="0.50"/>
<circle cx="1228" cy="245" r="1.7" fill="#dfe8f5" class="tw d2"/>
<circle cx="1655" cy="297" r="2.2" fill="#c9d4e6" opacity="0.40"/>
<circle cx="1760" cy="105" r="1.2" fill="#dfe8f5" class="tw d1"/>
<circle cx="1184" cy="410" r="2.0" fill="#dfe8f5" class="tw d3"/>
<circle cx="1594" cy="105" r="1.0" fill="#dfe8f5" class="tw d3"/>
<circle cx="870" cy="332" r="2.4" fill="#c9d4e6" opacity="0.70"/>
<circle cx="609" cy="403" r="2.4" fill="#dfe8f5" class="tw d4"/>
<circle cx="1304" cy="26" r="1.1" fill="#c9d4e6" opacity="0.42"/>
<circle cx="1529" cy="384" r="1.9" fill="#dfe8f5" class="tw d3"/>
<circle cx="915" cy="344" r="1.7" fill="#c9d4e6" opacity="0.59"/>
<circle cx="837" cy="128" r="2.2" fill="#c9d4e6" opacity="0.69"/>
<circle cx="175" cy="638" r="1.0" fill="#dfe8f5" class="tw d3"/>
<circle cx="1579" cy="634" r="1.2" fill="#dfe8f5" class="tw d1"/>
<circle cx="934" cy="468" r="1.4" fill="#c9d4e6" opacity="0.35"/>
<circle cx="1325" cy="276" r="1.5" fill="#c9d4e6" opacity="0.52"/>
<circle cx="90" cy="111" r="1.5" fill="#dfe8f5" class="tw d3"/>
<circle cx="260" cy="262" r="1.9" fill="#c9d4e6" opacity="0.72"/>
<circle cx="1600" cy="575" r="2.1" fill="#c9d4e6" opacity="0.70"/>
<circle cx="228" cy="96" r="1.7" fill="#dfe8f5" class="tw d5"/>
<circle cx="686" cy="600" r="1.7" fill="#c9d4e6" opacity="0.36"/>
<circle cx="552" cy="584" r="1.0" fill="#c9d4e6" opacity="0.29"/>
<circle cx="598" cy="638" r="2.2" fill="#c9d4e6" opacity="0.33"/>
<circle cx="1261" cy="433" r="1.2" fill="#c9d4e6" opacity="0.76"/>
<circle cx="326" cy="107" r="2.2" fill="#c9d4e6" opacity="0.79"/>
<circle cx="1634" cy="502" r="1.4" fill="#c9d4e6" opacity="0.73"/>
<circle cx="1597" cy="56" r="2.0" fill="#c9d4e6" opacity="0.44"/>
<circle cx="882" cy="268" r="1.1" fill="#dfe8f5" class="tw d1"/>
<circle cx="502" cy="289" r="1.9" fill="#c9d4e6" opacity="0.49"/>
<circle cx="1569" cy="177" r="1.0" fill="#c9d4e6" opacity="0.28"/>
<circle cx="1095" cy="332" r="1.7" fill="#dfe8f5" class="tw d2"/>
<circle cx="738" cy="424" r="1.9" fill="#dfe8f5" class="tw d2"/>
<circle cx="975" cy="595" r="1.3" fill="#dfe8f5" class="tw"/>
<circle cx="1558" cy="512" r="1.3" fill="#c9d4e6" opacity="0.41"/>
<circle cx="1017" cy="389" r="1.8" fill="#c9d4e6" opacity="0.76"/><circle cx="1560" cy="220" r="140" fill="url(#halo)"/>
<circle cx="1560" cy="220" r="54" fill="url(#mgrad)"/><rect x="600" y="906" width="720" height="44" fill="#1a2130"/><rect x="632" y="862" width="656" height="44" fill="#171e2c"/><rect x="664" y="818" width="592" height="44" fill="#1a2130"/><rect x="696" y="774" width="528" height="44" fill="#171e2c"/><rect x="728" y="730" width="464" height="44" fill="#1a2130"/><rect x="760" y="686" width="400" height="44" fill="#171e2c"/><rect x="792" y="642" width="336" height="44" fill="#1a2130"/><rect x="824" y="598" width="272" height="44" fill="#171e2c"/><rect x="856" y="554" width="208" height="44" fill="#1a2130"/><rect x="886" y="490" width="148" height="64" fill="#1c2434"/><rect x="876" y="480" width="168" height="12" fill="#232c40"/><rect x="938" y="508" width="44" height="46" fill="#0b0f18"/><rect x="930" y="508" width="6" height="46" fill="#2b3550"/><rect x="984" y="508" width="6" height="46" fill="#2b3550"/><path d="M904,950 L930,552 L990,552 L1016,950 Z" fill="#232c40"/><line x1="904" y1="950" x2="1016" y2="950" stroke="#0e1320" stroke-width="3"/><line x1="906" y1="917" x2="1014" y2="917" stroke="#0e1320" stroke-width="3"/><line x1="908" y1="884" x2="1012" y2="884" stroke="#0e1320" stroke-width="3"/><line x1="910" y1="851" x2="1010" y2="851" stroke="#0e1320" stroke-width="3"/><line x1="912" y1="818" x2="1008" y2="818" stroke="#0e1320" stroke-width="3"/><line x1="914" y1="785" x2="1006" y2="785" stroke="#0e1320" stroke-width="3"/><line x1="917" y1="752" x2="1003" y2="752" stroke="#0e1320" stroke-width="3"/><line x1="919" y1="719" x2="1001" y2="719" stroke="#0e1320" stroke-width="3"/><line x1="921" y1="686" x2="999" y2="686" stroke="#0e1320" stroke-width="3"/><line x1="923" y1="653" x2="997" y2="653" stroke="#0e1320" stroke-width="3"/><line x1="925" y1="620" x2="995" y2="620" stroke="#0e1320" stroke-width="3"/><line x1="927" y1="587" x2="993" y2="587" stroke="#0e1320" stroke-width="3"/><rect x="884" y="924" width="34" height="26" rx="8" fill="#2a3450"/><rect x="1002" y="924" width="34" height="26" rx="8" fill="#2a3450"/><circle cx="896" cy="934" r="3" fill="#43e0d0" opacity=".9"/><circle cx="1014" cy="934" r="3" fill="#43e0d0" opacity=".9"/><path d="M600,950 L930,552 M1320,950 L990,552" stroke="url(#acc)" stroke-width="2.4" fill="none" opacity=".85"/><rect x="0" y="950" width="1920" height="330" fill="#0a0e16"/><line x1="0" y1="950" x2="1920" y2="950" stroke="url(#acc)" stroke-width="2" opacity=".4"/><rect width="1920" height="1280" fill="url(#vig)"/>
<rect width="1920" height="1280" filter="url(#grain)" opacity="0.55" fill="none"/>
</svg>