<svg xmlns="http://www.w3.org/2000/svg" viewBox="0 0 1920 1280" width="1920" height="1280">
<defs>
<linearGradient id="sky" x1="0" y1="0" x2="0" y2="1">
 <stop offset="0" stop-color="#06060d"/><stop offset="1" stop-color="#141330"/>
</linearGradient>
<linearGradient id="acc" x1="0" y1="0" x2="1" y2="1">
 <stop offset="0" stop-color="#7c5cff"/><stop offset="1" stop-color="#43e0d0"/>
</linearGradient>
<linearGradient id="accv" x1="0" y1="0" x2="0" y2="1">
 <stop offset="0" stop-color="#7c5cff"/><stop offset="1" stop-color="#43e0d0"/>
</linearGradient>
<radialGradient id="mgrad" cx="0.35" cy="0.3" r="1">
 <stop offset="0" stop-color="#a99cff"/><stop offset="1" stop-color="#5fe6d6"/>
</radialGradient>
<radialGradient id="halo" cx="0.5" cy="0.5" r="0.5">
 <stop offset="0" stop-color="rgba(103,220,205,.34)"/><stop offset="1" stop-color="rgba(103,220,205,0)"/>
</radialGradient>
<radialGradient id="vig" cx="0.5" cy="0.46" r="0.85">
 <stop offset="0.55" stop-color="rgba(0,0,0,0)"/><stop offset="1" stop-color="rgba(0,0,4,.5)"/>
</radialGradient>
<linearGradient id="wgrad" x1="0" y1="0" x2="0" y2="1">
 <stop offset="0" stop-color="#0b111e"/><stop offset="1" stop-color="#070a12"/>
</linearGradient>
<filter id="soft" x="-40%" y="-40%" width="180%" height="180%"><feGaussianBlur stdDeviation="7"/></filter>
<filter id="soft2" x="-60%" y="-60%" width="220%" height="220%"><feGaussianBlur stdDeviation="16"/></filter>
<filter id="grain"><feTurbulence type="fractalNoise" baseFrequency="0.8" numOctaves="2" stitchTiles="stitch"/>
 <feColorMatrix type="matrix" values="0 0 0 0 1 0 0 0 0 1 0 0 0 0 1 0 0 0 0.05 0"/><feComposite operator="over" in2="SourceGraphic"/></filter>
</defs>
<style>
@keyframes tw{0%,100%{opacity:.1}50%{opacity:1}}
.tw{animation:tw 3.4s ease-in-out infinite}
.tw.d1{animation-delay:.6s}.tw.d2{animation-delay:1.2s}.tw.d3{animation-delay:1.9s}.tw.d4{animation-delay:2.6s}.tw.d5{animation-delay:3.1s}
@keyframes shoot{0%,84%{opacity:0;transform:translate(0,0)}86%{opacity:1}96%{opacity:0;transform:translate(-620px,320px)}100%{opacity:0}}
.shoot{animation:shoot 12s linear infinite}
.shoot.s2{animation-duration:19s;animation-delay:7s}
@keyframes bob{0%,100%{transform:translateY(0px) rotate(-1.2deg)}50%{transform:translateY(9px) rotate(1.4deg)}}
.bob{animation:bob 5.6s ease-in-out infinite;transform-box:fill-box;transform-origin:center}
.bob.b2{animation-duration:7.2s;animation-delay:1.1s}
@keyframes shim{0%,100%{opacity:.22}50%{opacity:.75}}
.shim{animation:shim 4.4s ease-in-out infinite}
.shim.d1{animation-delay:1.4s}.shim.d2{animation-delay:2.7s}.shim.d3{animation-delay:3.6s}
@keyframes flick{0%,91%,100%{opacity:.9}93%{opacity:.25}95%{opacity:.85}}
.flick{animation:flick 8s linear infinite}.flick.f2{animation-delay:3.5s}
@keyframes spin{from{transform:rotate(0deg)}to{transform:rotate(360deg)}}
.wheel{animation:spin 80s linear infinite;transform-box:fill-box;transform-origin:center}
@keyframes aur{0%,100%{opacity:.34;transform:skewX(0deg)}50%{opacity:.72;transform:skewX(-4deg)}}
.aur{animation:aur 9s ease-in-out infinite;transform-box:fill-box;transform-origin:bottom}
.aur.a2{animation-duration:13s;animation-delay:2.5s}
@keyframes fall{from{transform:translateY(-140px)}to{transform:translateY(150px)}}
.fall{animation:fall 9s linear infinite}.fall.f2{animation-duration:13s;animation-delay:2s}.fall.f3{animation-duration:11s;animation-delay:5s}
@keyframes sway{0%,100%{transform:rotate(-1.4deg)}50%{transform:rotate(1.4deg)}}
.sway{animation:sway 7s ease-in-out infinite;transform-box:fill-box;transform-origin:bottom center}

@media (prefers-reduced-motion:reduce){*{animation:none!important}}
</style>
<rect width="1920" height="1280" fill="url(#sky)"/><circle cx="136" cy="118" r="1.0" fill="#c9d4e6" opacity="0.41"/>
<circle cx="862" cy="491" r="1.4" fill="#c9d4e6" opacity="0.73"/>
<circle cx="1221" cy="578" r="1.0" fill="#c9d4e6" opacity="0.38"/>
<circle cx="904" cy="252" r="1.4" fill="#c9d4e6" opacity="0.42"/>
<circle cx="28" cy="24" r="1.5" fill="#dfe8f5" class="tw d4"/>
<circle cx="1264" cy="230" r="1.9" fill="#c9d4e6" opacity="0.47"/>
<circle cx="1289" cy="375" r="1.8" fill="#c9d4e6" opacity="0.73"/>
<circle cx="1044" cy="440" r="2.1" fill="#dfe8f5" class="tw d1"/>
<circle cx="835" cy="423" r="2.0" fill="#dfe8f5" class="tw d3"/>
<circle cx="136" cy="544" r="1.7" fill="#c9d4e6" opacity="0.43"/>
<circle cx="1647" cy="594" r="2.1" fill="#dfe8f5" class="tw d2"/>
<circle cx="1685" cy="179" r="2.1" fill="#c9d4e6" opacity="0.52"/>
<circle cx="1443" cy="285" r="1.9" fill="#c9d4e6" opacity="0.47"/>
<circle cx="627" cy="581" r="2.3" fill="#c9d4e6" opacity="0.49"/>
<circle cx="1454" cy="348" r="1.6" fill="#c9d4e6" opacity="0.48"/>
<circle cx="996" cy="332" r="2.1" fill="#dfe8f5" class="tw d3"/>
<circle cx="1301" cy="550" r="2.3" fill="#c9d4e6" opacity="0.75"/>
<circle cx="1874" cy="208" r="1.2" fill="#c9d4e6" opacity="0.54"/>
<circle cx="1662" cy="305" r="1.3" fill="#dfe8f5" class="tw d1"/>
<circle cx="688" cy="254" r="2.1" fill="#c9d4e6" opacity="0.31"/>
<circle cx="250" cy="548" r="1.1" fill="#dfe8f5" class="tw d1"/>
<circle cx="98" cy="39" r="1.4" fill="#dfe8f5" class="tw d4"/>
<circle cx="1592" cy="304" r="2.0" fill="#dfe8f5" class="tw"/>
<circle cx="384" cy="219" r="2.1" fill="#c9d4e6" opacity="0.43"/>
<circle cx="1081" cy="555" r="2.2" fill="#dfe8f5" class="tw"/>
<circle cx="1503" cy="16" r="1.6" fill="#c9d4e6" opacity="0.52"/>
<circle cx="466" cy="141" r="2.3" fill="#c9d4e6" opacity="0.28"/>
<circle cx="753" cy="413" r="1.2" fill="#dfe8f5" class="tw d5"/>
<circle cx="1898" cy="18" r="0.9" fill="#c9d4e6" opacity="0.48"/>
<circle cx="491" cy="339" r="1.5" fill="#dfe8f5" class="tw d1"/>
<circle cx="696" cy="329" r="1.9" fill="#c9d4e6" opacity="0.34"/>
<circle cx="1862" cy="41" r="2.3" fill="#c9d4e6" opacity="0.77"/>
<circle cx="915" cy="418" r="0.9" fill="#c9d4e6" opacity="0.55"/>
<circle cx="260" cy="510" r="1.7" fill="#dfe8f5" class="tw d5"/>
<circle cx="559" cy="563" r="1.2" fill="#c9d4e6" opacity="0.74"/>
<circle cx="1079" cy="311" r="1.5" fill="#dfe8f5" class="tw d3"/>
<circle cx="151" cy="585" r="1.5" fill="#c9d4e6" opacity="0.38"/>
<circle cx="676" cy="243" r="1.3" fill="#c9d4e6" opacity="0.45"/>
<circle cx="1897" cy="246" r="1.7" fill="#c9d4e6" opacity="0.44"/>
<circle cx="115" cy="240" r="1.3" fill="#dfe8f5" class="tw d1"/>
<circle cx="859" cy="594" r="1.5" fill="#dfe8f5" class="tw d2"/>
<circle cx="923" cy="308" r="1.4" fill="#dfe8f5" class="tw d5"/><circle cx="330" cy="230" r="130" fill="url(#halo)"/>
<circle cx="330" cy="230" r="50" fill="url(#mgrad)"/><rect x="540" y="760" width="840" height="190" fill="#232c40"/><line x1="540" y1="792" x2="1380" y2="792" stroke="#1b2334" stroke-width="1.6" opacity=".9"/><line x1="540" y1="823" x2="1380" y2="823" stroke="#1b2334" stroke-width="1.6" opacity=".9"/><line x1="540" y1="855" x2="1380" y2="855" stroke="#1b2334" stroke-width="1.6" opacity=".9"/><line x1="540" y1="887" x2="1380" y2="887" stroke="#1b2334" stroke-width="1.6" opacity=".9"/><line x1="540" y1="918" x2="1380" y2="918" stroke="#1b2334" stroke-width="1.6" opacity=".9"/><line x1="630" y1="760" x2="630" y2="792" stroke="#1b2334" stroke-width="1.3" opacity=".65"/><line x1="724" y1="760" x2="724" y2="792" stroke="#1b2334" stroke-width="1.3" opacity=".65"/><line x1="822" y1="760" x2="822" y2="792" stroke="#1b2334" stroke-width="1.3" opacity=".65"/><line x1="913" y1="760" x2="913" y2="792" stroke="#1b2334" stroke-width="1.3" opacity=".65"/><line x1="1012" y1="760" x2="1012" y2="792" stroke="#1b2334" stroke-width="1.3" opacity=".65"/><line x1="1093" y1="760" x2="1093" y2="792" stroke="#1b2334" stroke-width="1.3" opacity=".65"/><line x1="1196" y1="760" x2="1196" y2="792" stroke="#1b2334" stroke-width="1.3" opacity=".65"/><line x1="1279" y1="760" x2="1279" y2="792" stroke="#1b2334" stroke-width="1.3" opacity=".65"/><line x1="585" y1="792" x2="585" y2="823" stroke="#1b2334" stroke-width="1.3" opacity=".65"/><line x1="683" y1="792" x2="683" y2="823" stroke="#1b2334" stroke-width="1.3" opacity=".65"/><line x1="770" y1="792" x2="770" y2="823" stroke="#1b2334" stroke-width="1.3" opacity=".65"/><line x1="869" y1="792" x2="869" y2="823" stroke="#1b2334" stroke-width="1.3" opacity=".65"/><line x1="952" y1="792" x2="952" y2="823" stroke="#1b2334" stroke-width="1.3" opacity=".65"/><line x1="1061" y1="792" x2="1061" y2="823" stroke="#1b2334" stroke-width="1.3" opacity=".65"/><line x1="1140" y1="792" x2="1140" y2="823" stroke="#1b2334" stroke-width="1.3" opacity=".65"/><line x1="1236" y1="792" x2="1236" y2="823" stroke="#1b2334" stroke-width="1.3" opacity=".65"/><line x1="1337" y1="792" x2="1337" y2="823" stroke="#1b2334" stroke-width="1.3" opacity=".65"/><line x1="637" y1="823" x2="637" y2="855" stroke="#1b2334" stroke-width="1.3" opacity=".65"/><line x1="725" y1="823" x2="725" y2="855" stroke="#1b2334" stroke-width="1.3" opacity=".65"/><line x1="812" y1="823" x2="812" y2="855" stroke="#1b2334" stroke-width="1.3" opacity=".65"/><line x1="919" y1="823" x2="919" y2="855" stroke="#1b2334" stroke-width="1.3" opacity=".65"/><line x1="1013" y1="823" x2="1013" y2="855" stroke="#1b2334" stroke-width="1.3" opacity=".65"/><line x1="1102" y1="823" x2="1102" y2="855" stroke="#1b2334" stroke-width="1.3" opacity=".65"/><line x1="1192" y1="823" x2="1192" y2="855" stroke="#1b2334" stroke-width="1.3" opacity=".65"/><line x1="1281" y1="823" x2="1281" y2="855" stroke="#1b2334" stroke-width="1.3" opacity=".65"/><line x1="585" y1="855" x2="585" y2="887" stroke="#1b2334" stroke-width="1.3" opacity=".65"/><line x1="675" y1="855" x2="675" y2="887" stroke="#1b2334" stroke-width="1.3" opacity=".65"/><line x1="773" y1="855" x2="773" y2="887" stroke="#1b2334" stroke-width="1.3" opacity=".65"/><line x1="865" y1="855" x2="865" y2="887" stroke="#1b2334" stroke-width="1.3" opacity=".65"/><line x1="956" y1="855" x2="956" y2="887" stroke="#1b2334" stroke-width="1.3" opacity=".65"/><line x1="1061" y1="855" x2="1061" y2="887" stroke="#1b2334" stroke-width="1.3" opacity=".65"/><line x1="1146" y1="855" x2="1146" y2="887" stroke="#1b2334" stroke-width="1.3" opacity=".65"/><line x1="1242" y1="855" x2="1242" y2="887" stroke="#1b2334" stroke-width="1.3" opacity=".65"/><line x1="1326" y1="855" x2="1326" y2="887" stroke="#1b2334" stroke-width="1.3" opacity=".65"/><line x1="627" y1="887" x2="627" y2="918" stroke="#1b2334" stroke-width="1.3" opacity=".65"/><line x1="731" y1="887" x2="731" y2="918" stroke="#1b2334" stroke-width="1.3" opacity=".65"/><line x1="825" y1="887" x2="825" y2="918" stroke="#1b2334" stroke-width="1.3" opacity=".65"/><line x1="920" y1="887" x2="920" y2="918" stroke="#1b2334" stroke-width="1.3" opacity=".65"/><line x1="1001" y1="887" x2="1001" y2="918" stroke="#1b2334" stroke-width="1.3" opacity=".65"/><line x1="1098" y1="887" x2="1098" y2="918" stroke="#1b2334" stroke-width="1.3" opacity=".65"/><line x1="1194" y1="887" x2="1194" y2="918" stroke="#1b2334" stroke-width="1.3" opacity=".65"/><line x1="1294" y1="887" x2="1294" y2="918" stroke="#1b2334" stroke-width="1.3" opacity=".65"/><line x1="583" y1="918" x2="583" y2="950" stroke="#1b2334" stroke-width="1.3" opacity=".65"/><line x1="675" y1="918" x2="675" y2="950" stroke="#1b2334" stroke-width="1.3" opacity=".65"/><line x1="778" y1="918" x2="778" y2="950" stroke="#1b2334" stroke-width="1.3" opacity=".65"/><line x1="866" y1="918" x2="866" y2="950" stroke="#1b2334" stroke-width="1.3" opacity=".65"/><line x1="966" y1="918" x2="966" y2="950" stroke="#1b2334" stroke-width="1.3" opacity=".65"/><line x1="1051" y1="918" x2="1051" y2="950" stroke="#1b2334" stroke-width="1.3" opacity=".65"/><line x1="1151" y1="918" x2="1151" y2="950" stroke="#1b2334" stroke-width="1.3" opacity=".65"/><line x1="1239" y1="918" x2="1239" y2="950" stroke="#1b2334" stroke-width="1.3" opacity=".65"/><line x1="1340" y1="918" x2="1340" y2="950" stroke="#1b2334" stroke-width="1.3" opacity=".65"/><rect x="560" y="742" width="30" height="20" fill="#232c40"/><rect x="630" y="742" width="30" height="20" fill="#232c40"/><rect x="700" y="742" width="30" height="20" fill="#232c40"/><rect x="770" y="742" width="30" height="20" fill="#232c40"/><rect x="840" y="742" width="30" height="20" fill="#232c40"/><rect x="1050" y="742" width="30" height="20" fill="#232c40"/><rect x="1120" y="742" width="30" height="20" fill="#232c40"/><rect x="1190" y="742" width="30" height="20" fill="#232c40"/><rect x="1260" y="742" width="30" height="20" fill="#232c40"/><rect x="1330" y="742" width="30" height="20" fill="#232c40"/><line x1="540" y1="760" x2="1380" y2="760" stroke="#46557f" stroke-width="2" opacity=".65"/><path d="M890,950 v-116 a70,74 0 0 1 140,0 v116 Z" fill="#10151f"/><path d="M902,950 v-108 a58,62 0 0 1 116,0 v108 Z" fill="#0b0f18"/><path d="M890,950 v-116 a70,74 0 0 1 140,0 v116" fill="none" stroke="#46557f" stroke-width="2.4" opacity=".85"/><rect x="900" y="566" width="120" height="196" fill="#232c40"/><line x1="900" y1="599" x2="1020" y2="599" stroke="#1b2334" stroke-width="1.6" opacity=".9"/><line x1="900" y1="631" x2="1020" y2="631" stroke="#1b2334" stroke-width="1.6" opacity=".9"/><line x1="900" y1="664" x2="1020" y2="664" stroke="#1b2334" stroke-width="1.6" opacity=".9"/><line x1="900" y1="697" x2="1020" y2="697" stroke="#1b2334" stroke-width="1.6" opacity=".9"/><line x1="900" y1="729" x2="1020" y2="729" stroke="#1b2334" stroke-width="1.6" opacity=".9"/><line x1="967" y1="566" x2="967" y2="599" stroke="#1b2334" stroke-width="1.3" opacity=".65"/><line x1="926" y1="599" x2="926" y2="631" stroke="#1b2334" stroke-width="1.3" opacity=".65"/><line x1="987" y1="599" x2="987" y2="631" stroke="#1b2334" stroke-width="1.3" opacity=".65"/><line x1="959" y1="631" x2="959" y2="664" stroke="#1b2334" stroke-width="1.3" opacity=".65"/><line x1="937" y1="664" x2="937" y2="697" stroke="#1b2334" stroke-width="1.3" opacity=".65"/><line x1="997" y1="664" x2="997" y2="697" stroke="#1b2334" stroke-width="1.3" opacity=".65"/><line x1="955" y1="697" x2="955" y2="729" stroke="#1b2334" stroke-width="1.3" opacity=".65"/><line x1="932" y1="729" x2="932" y2="762" stroke="#1b2334" stroke-width="1.3" opacity=".65"/><line x1="984" y1="729" x2="984" y2="762" stroke="#1b2334" stroke-width="1.3" opacity=".65"/><path d="M900,566 L916,526 L1004,526 L1020,566 Z" fill="#2b3550"/><path d="M916,526 L928,478 L992,478 L1004,526 Z" fill="#232c40"/><path d="M928,478 Q960,412 992,478 Z" fill="#2b3550" stroke="#46557f" stroke-width="2"/><line x1="960" y1="428" x2="960" y2="400" stroke="#46557f" stroke-width="2.4"/><circle cx="960" cy="396" r="4" fill="none" stroke="#43e0d0" stroke-width="1.6"/><circle cx="960" cy="612" r="34" fill="#f2e0b2" opacity=".95"/><circle cx="960" cy="612" r="34" fill="none" stroke="#0b0f18" stroke-width="5"/><line x1="960" y1="612" x2="960" y2="590" stroke="#0b0f18" stroke-width="3.4"/><line x1="960" y1="612" x2="976" y2="618" stroke="#0b0f18" stroke-width="3.4"/><rect x="900" y="566" width="120" height="196" fill="none" stroke="#46557f" stroke-width="2" opacity=".8"/><path d="M960,400 l30,7 l-30,7 Z" fill="#43e0d0" opacity=".8" class="sway"/><rect x="0" y="950" width="1920" height="330" fill="#0a0e17"/><line x1="0" y1="950" x2="1920" y2="950" stroke="url(#acc)" stroke-width="2" opacity=".45"/><line x1="500" y1="950" x2="500" y2="904" stroke="#222b42" stroke-width="4"/><rect x="494" y="890" width="12" height="14" rx="2" fill="#222b42"/><circle cx="500" cy="897" r="3.4" fill="#ffd9a0" class="flick" opacity=".9"/><circle cx="500" cy="897" r="9" fill="#ffd9a0" opacity=".12"/><line x1="1420" y1="950" x2="1420" y2="904" stroke="#222b42" stroke-width="4"/><rect x="1414" y="890" width="12" height="14" rx="2" fill="#222b42"/><circle cx="1420" cy="897" r="3.4" fill="#ffd9a0" class="flick" opacity=".9"/><circle cx="1420" cy="897" r="9" fill="#ffd9a0" opacity=".12"/><g class="sway"><path d="M300,950 Q310,834 326,740" fill="none" stroke="#232c40" stroke-width="14" stroke-linecap="round"/><path d="M300,950 Q310,834 326,740" fill="none" stroke="url(#acc)" stroke-width="3.2" opacity=".9"/><path d="M326,740 Q286,714 239,714" fill="none" stroke="url(#acc)" stroke-width="3.4" stroke-linecap="round" opacity=".85"/><path d="M326,740 Q330,704 335,692" fill="none" stroke="url(#acc)" stroke-width="3.4" stroke-linecap="round" opacity=".85"/><path d="M326,740 Q357,709 396,711" fill="none" stroke="url(#acc)" stroke-width="3.4" stroke-linecap="round" opacity=".85"/><path d="M326,740 Q372,726 426,746" fill="none" stroke="url(#acc)" stroke-width="3.4" stroke-linecap="round" opacity=".85"/><path d="M326,740 Q351,741 364,794" fill="none" stroke="url(#acc)" stroke-width="3.4" stroke-linecap="round" opacity=".85"/><path d="M326,740 Q314,743 302,803" fill="none" stroke="url(#acc)" stroke-width="3.4" stroke-linecap="round" opacity=".85"/></g><g class="sway"><path d="M1560,950 Q1550,824 1536,720" fill="none" stroke="#232c40" stroke-width="14" stroke-linecap="round"/><path d="M1560,950 Q1550,824 1536,720" fill="none" stroke="url(#acc)" stroke-width="3.2" opacity=".9"/><path d="M1536,720 Q1497,693 1451,694" fill="none" stroke="url(#acc)" stroke-width="3.4" stroke-linecap="round" opacity=".85"/><path d="M1536,720 Q1534,684 1533,665" fill="none" stroke="url(#acc)" stroke-width="3.4" stroke-linecap="round" opacity=".85"/><path d="M1536,720 Q1564,688 1588,681" fill="none" stroke="url(#acc)" stroke-width="3.4" stroke-linecap="round" opacity=".85"/><path d="M1536,720 Q1581,709 1624,734" fill="none" stroke="url(#acc)" stroke-width="3.4" stroke-linecap="round" opacity=".85"/><path d="M1536,720 Q1553,723 1577,770" fill="none" stroke="url(#acc)" stroke-width="3.4" stroke-linecap="round" opacity=".85"/><path d="M1536,720 Q1517,722 1506,764" fill="none" stroke="url(#acc)" stroke-width="3.4" stroke-linecap="round" opacity=".85"/></g><g class="sway"><path d="M1750,950 Q1757,856 1768,780" fill="none" stroke="#232c40" stroke-width="14" stroke-linecap="round"/><path d="M1750,950 Q1757,856 1768,780" fill="none" stroke="url(#acc)" stroke-width="3.2" opacity=".9"/><path d="M1768,780 Q1726,756 1693,758" fill="none" stroke="url(#acc)" stroke-width="3.4" stroke-linecap="round" opacity=".85"/><path d="M1768,780 Q1757,745 1743,719" fill="none" stroke="url(#acc)" stroke-width="3.4" stroke-linecap="round" opacity=".85"/><path d="M1768,780 Q1805,752 1847,746" fill="none" stroke="url(#acc)" stroke-width="3.4" stroke-linecap="round" opacity=".85"/><path d="M1768,780 Q1814,767 1867,785" fill="none" stroke="url(#acc)" stroke-width="3.4" stroke-linecap="round" opacity=".85"/><path d="M1768,780 Q1785,783 1795,827" fill="none" stroke="url(#acc)" stroke-width="3.4" stroke-linecap="round" opacity=".85"/><path d="M1768,780 Q1744,781 1717,832" fill="none" stroke="url(#acc)" stroke-width="3.4" stroke-linecap="round" opacity=".85"/></g><rect width="1920" height="1280" fill="url(#vig)"/>
<rect width="1920" height="1280" filter="url(#grain)" opacity="0.55" fill="none"/>
</svg>