<svg xmlns="http://www.w3.org/2000/svg" viewBox="0 0 1920 1280" width="1920" height="1280">
<defs>
<linearGradient id="sky" x1="0" y1="0" x2="0" y2="1">
 <stop offset="0" stop-color="#03050a"/><stop offset="1" stop-color="#0a1220"/>
</linearGradient>
<linearGradient id="acc" x1="0" y1="0" x2="1" y2="1">
 <stop offset="0" stop-color="#7c5cff"/><stop offset="1" stop-color="#43e0d0"/>
</linearGradient>
<linearGradient id="accv" x1="0" y1="0" x2="0" y2="1">
 <stop offset="0" stop-color="#7c5cff"/><stop offset="1" stop-color="#43e0d0"/>
</linearGradient>
<radialGradient id="mgrad" cx="0.35" cy="0.3" r="1">
 <stop offset="0" stop-color="#a99cff"/><stop offset="1" stop-color="#5fe6d6"/>
</radialGradient>
<radialGradient id="halo" cx="0.5" cy="0.5" r="0.5">
 <stop offset="0" stop-color="rgba(103,220,205,.34)"/><stop offset="1" stop-color="rgba(103,220,205,0)"/>
</radialGradient>
<radialGradient id="vig" cx="0.5" cy="0.46" r="0.85">
 <stop offset="0.55" stop-color="rgba(0,0,0,0)"/><stop offset="1" stop-color="rgba(0,0,4,.5)"/>
</radialGradient>
<linearGradient id="wgrad" x1="0" y1="0" x2="0" y2="1">
 <stop offset="0" stop-color="#0b111e"/><stop offset="1" stop-color="#070a12"/>
</linearGradient>
<filter id="soft" x="-40%" y="-40%" width="180%" height="180%"><feGaussianBlur stdDeviation="7"/></filter>
<filter id="soft2" x="-60%" y="-60%" width="220%" height="220%"><feGaussianBlur stdDeviation="16"/></filter>
<filter id="grain"><feTurbulence type="fractalNoise" baseFrequency="0.8" numOctaves="2" stitchTiles="stitch"/>
 <feColorMatrix type="matrix" values="0 0 0 0 1 0 0 0 0 1 0 0 0 0 1 0 0 0 0.05 0"/><feComposite operator="over" in2="SourceGraphic"/></filter>
</defs>
<style>
@keyframes tw{0%,100%{opacity:.1}50%{opacity:1}}
.tw{animation:tw 3.4s ease-in-out infinite}
.tw.d1{animation-delay:.6s}.tw.d2{animation-delay:1.2s}.tw.d3{animation-delay:1.9s}.tw.d4{animation-delay:2.6s}.tw.d5{animation-delay:3.1s}
@keyframes shoot{0%,84%{opacity:0;transform:translate(0,0)}86%{opacity:1}96%{opacity:0;transform:translate(-620px,320px)}100%{opacity:0}}
.shoot{animation:shoot 12s linear infinite}
.shoot.s2{animation-duration:19s;animation-delay:7s}
@keyframes bob{0%,100%{transform:translateY(0px) rotate(-1.2deg)}50%{transform:translateY(9px) rotate(1.4deg)}}
.bob{animation:bob 5.6s ease-in-out infinite;transform-box:fill-box;transform-origin:center}
.bob.b2{animation-duration:7.2s;animation-delay:1.1s}
@keyframes shim{0%,100%{opacity:.22}50%{opacity:.75}}
.shim{animation:shim 4.4s ease-in-out infinite}
.shim.d1{animation-delay:1.4s}.shim.d2{animation-delay:2.7s}.shim.d3{animation-delay:3.6s}
@keyframes flick{0%,91%,100%{opacity:.9}93%{opacity:.25}95%{opacity:.85}}
.flick{animation:flick 8s linear infinite}.flick.f2{animation-delay:3.5s}
@keyframes spin{from{transform:rotate(0deg)}to{transform:rotate(360deg)}}
.wheel{animation:spin 80s linear infinite;transform-box:fill-box;transform-origin:center}
@keyframes aur{0%,100%{opacity:.34;transform:skewX(0deg)}50%{opacity:.72;transform:skewX(-4deg)}}
.aur{animation:aur 9s ease-in-out infinite;transform-box:fill-box;transform-origin:bottom}
.aur.a2{animation-duration:13s;animation-delay:2.5s}
@keyframes fall{from{transform:translateY(-140px)}to{transform:translateY(150px)}}
.fall{animation:fall 9s linear infinite}.fall.f2{animation-duration:13s;animation-delay:2s}.fall.f3{animation-duration:11s;animation-delay:5s}
@keyframes sway{0%,100%{transform:rotate(-1.4deg)}50%{transform:rotate(1.4deg)}}
.sway{animation:sway 7s ease-in-out infinite;transform-box:fill-box;transform-origin:bottom center}

@media (prefers-reduced-motion:reduce){*{animation:none!important}}
</style>
<rect width="1920" height="1280" fill="url(#sky)"/><g class="aur"><path d="M300,-60 Q480,260 360,640 L540,640 Q660,260 520,-60 Z" fill="#43e0d0" opacity=".45" filter="url(#soft2)"/></g>
<g class="aur a2"><path d="M720,-80 Q880,240 800,580 L960,580 Q1050,220 940,-80 Z" fill="#68f0c8" opacity=".36" filter="url(#soft2)"/></g>
<g class="aur"><path d="M1120,-60 Q1280,260 1200,560 L1340,560 Q1440,240 1330,-60 Z" fill="#7c5cff" opacity=".3" filter="url(#soft2)"/></g>
<g class="aur a2"><path d="M1500,-80 Q1600,200 1560,440 L1660,440 Q1720,180 1650,-80 Z" fill="#43e0d0" opacity=".22" filter="url(#soft2)"/></g><circle cx="1718" cy="62" r="1.0" fill="#dfe8f5" class="tw d2"/>
<circle cx="1878" cy="200" r="1.2" fill="#dfe8f5" class="tw d2"/>
<circle cx="1294" cy="403" r="1.9" fill="#c9d4e6" opacity="0.75"/>
<circle cx="1651" cy="198" r="1.0" fill="#c9d4e6" opacity="0.62"/>
<circle cx="521" cy="277" r="1.9" fill="#c9d4e6" opacity="0.42"/>
<circle cx="917" cy="55" r="1.9" fill="#dfe8f5" class="tw d1"/>
<circle cx="1556" cy="294" r="1.3" fill="#c9d4e6" opacity="0.61"/>
<circle cx="411" cy="374" r="1.9" fill="#c9d4e6" opacity="0.37"/>
<circle cx="1136" cy="527" r="1.9" fill="#c9d4e6" opacity="0.34"/>
<circle cx="695" cy="562" r="1.1" fill="#dfe8f5" class="tw d2"/>
<circle cx="790" cy="365" r="2.1" fill="#dfe8f5" class="tw d4"/>
<circle cx="1322" cy="517" r="2.0" fill="#dfe8f5" class="tw d1"/>
<circle cx="455" cy="186" r="1.1" fill="#c9d4e6" opacity="0.64"/>
<circle cx="849" cy="178" r="1.6" fill="#c9d4e6" opacity="0.35"/>
<circle cx="1092" cy="96" r="1.1" fill="#dfe8f5" class="tw d4"/>
<circle cx="230" cy="578" r="2.3" fill="#dfe8f5" class="tw d1"/>
<circle cx="831" cy="25" r="1.8" fill="#dfe8f5" class="tw d2"/>
<circle cx="1176" cy="259" r="2.2" fill="#c9d4e6" opacity="0.35"/>
<circle cx="1375" cy="427" r="1.6" fill="#c9d4e6" opacity="0.79"/>
<circle cx="310" cy="120" r="1.0" fill="#dfe8f5" class="tw"/>
<circle cx="1841" cy="127" r="1.6" fill="#c9d4e6" opacity="0.55"/>
<circle cx="1365" cy="237" r="2.2" fill="#dfe8f5" class="tw d5"/>
<circle cx="1210" cy="560" r="1.3" fill="#c9d4e6" opacity="0.55"/>
<circle cx="780" cy="199" r="2.0" fill="#dfe8f5" class="tw d4"/>
<circle cx="1655" cy="307" r="1.2" fill="#dfe8f5" class="tw d4"/>
<circle cx="1880" cy="374" r="2.3" fill="#c9d4e6" opacity="0.27"/>
<circle cx="1504" cy="412" r="2.2" fill="#c9d4e6" opacity="0.49"/>
<circle cx="1484" cy="412" r="1.0" fill="#c9d4e6" opacity="0.51"/>
<circle cx="529" cy="292" r="1.7" fill="#dfe8f5" class="tw d5"/>
<circle cx="1747" cy="437" r="1.4" fill="#dfe8f5" class="tw"/>
<circle cx="1744" cy="501" r="2.1" fill="#dfe8f5" class="tw d3"/>
<circle cx="706" cy="216" r="1.0" fill="#c9d4e6" opacity="0.57"/>
<circle cx="1055" cy="529" r="1.3" fill="#c9d4e6" opacity="0.67"/>
<circle cx="1645" cy="56" r="1.6" fill="#c9d4e6" opacity="0.74"/>
<circle cx="452" cy="554" r="2.3" fill="#dfe8f5" class="tw d1"/>
<circle cx="1135" cy="460" r="2.0" fill="#dfe8f5" class="tw d2"/>
<circle cx="1593" cy="518" r="1.3" fill="#c9d4e6" opacity="0.65"/>
<circle cx="707" cy="357" r="1.6" fill="#c9d4e6" opacity="0.36"/>
<circle cx="646" cy="227" r="1.5" fill="#dfe8f5" class="tw d1"/>
<circle cx="354" cy="153" r="1.7" fill="#c9d4e6" opacity="0.59"/>
<circle cx="805" cy="17" r="1.3" fill="#dfe8f5" class="tw d4"/>
<circle cx="1762" cy="132" r="0.9" fill="#dfe8f5" class="tw d4"/>
<circle cx="1744" cy="422" r="1.0" fill="#dfe8f5" class="tw d2"/>
<circle cx="676" cy="338" r="1.8" fill="#dfe8f5" class="tw"/>
<circle cx="111" cy="328" r="1.6" fill="#dfe8f5" class="tw d1"/>
<circle cx="459" cy="490" r="1.3" fill="#c9d4e6" opacity="0.77"/>
<circle cx="353" cy="587" r="1.0" fill="#c9d4e6" opacity="0.42"/>
<circle cx="1809" cy="542" r="1.1" fill="#c9d4e6" opacity="0.78"/>
<circle cx="1798" cy="358" r="1.5" fill="#c9d4e6" opacity="0.34"/>
<circle cx="1194" cy="317" r="1.8" fill="#dfe8f5" class="tw d3"/><circle cx="1700" cy="170" r="109" fill="url(#halo)"/>
<circle cx="1700" cy="170" r="42" fill="url(#mgrad)"/><path d="M0,950 L0,300 L180,380 L360,300 L520,470 L640,950 Z" fill="#1b2334"/><path d="M0,300 L180,380 L360,300 L400,348 L330,392 L180,410 L60,352 L0,330 Z" fill="#c3cddd" opacity=".75"/><path d="M0,300 L180,380 L360,300 L520,470" fill="none" stroke="#46557f" stroke-width="2" opacity=".6"/><path d="M1920,950 L1920,340 L1740,420 L1560,330 L1400,520 L1300,950 Z" fill="#1b2334"/><path d="M1920,340 L1740,420 L1560,330 L1520,378 L1600,420 L1740,442 L1860,390 L1920,368 Z" fill="#c3cddd" opacity=".75"/><path d="M1920,340 L1740,420 L1560,330 L1400,520" fill="none" stroke="#46557f" stroke-width="2" opacity=".6"/><path d="M442,436 Q452,660 468,944" stroke="#9fb4d6" stroke-width="5" fill="none" opacity=".55"/><rect x="0" y="950" width="1920" height="330" fill="url(#wgrad)"/>
<line x1="0" y1="950" x2="1920" y2="950" stroke="url(#acc)" stroke-width="2.4" opacity=".55"/>
<line x1="1402" y1="1229" x2="1556" y2="1229" stroke="#43e0d0" stroke-width="2" class="shim" opacity=".3"/>
<line x1="1534" y1="1028" x2="1623" y2="1028" stroke="#7c5cff" stroke-width="2" class="shim d4" opacity=".3"/>
<line x1="201" y1="1086" x2="330" y2="1086" stroke="#43e0d0" stroke-width="2" class="shim d4" opacity=".3"/>
<line x1="880" y1="1067" x2="937" y2="1067" stroke="#43e0d0" stroke-width="2" class="shim" opacity=".3"/>
<line x1="493" y1="1181" x2="640" y2="1181" stroke="#43e0d0" stroke-width="2" class="shim d2" opacity=".3"/>
<line x1="594" y1="1128" x2="706" y2="1128" stroke="#43e0d0" stroke-width="2" class="shim" opacity=".3"/>
<line x1="107" y1="1037" x2="293" y2="1037" stroke="#43e0d0" stroke-width="2" class="shim d2" opacity=".3"/>
<line x1="1197" y1="1119" x2="1383" y2="1119" stroke="#43e0d0" stroke-width="2" class="shim" opacity=".3"/>
<line x1="1594" y1="1086" x2="1644" y2="1086" stroke="#7c5cff" stroke-width="2" class="shim d1" opacity=".3"/>
<line x1="222" y1="999" x2="405" y2="999" stroke="#43e0d0" stroke-width="2" class="shim d4" opacity=".3"/>
<line x1="878" y1="1240" x2="986" y2="1240" stroke="#43e0d0" stroke-width="2" class="shim" opacity=".3"/>
<line x1="253" y1="992" x2="322" y2="992" stroke="#7c5cff" stroke-width="2" class="shim d2" opacity=".3"/><g class="shim d1" opacity=".16"><line x1="360" y1="1000" x2="520" y2="1000" stroke="#68f0c8" stroke-width="6"/><line x1="820" y1="1044" x2="1000" y2="1044" stroke="#68f0c8" stroke-width="5"/><line x1="1160" y1="1008" x2="1300" y2="1008" stroke="#68f0c8" stroke-width="5"/></g><g><rect x="1360" y="880" width="120" height="68" fill="#5c1f24"/>
<path d="M1352,880 L1420,836 L1488,880 Z" fill="#3a1418"/>
<path d="M1352,880 L1420,836 L1488,880" fill="none" stroke="url(#acc)" stroke-width="1.6" opacity=".6"/>
<rect x="1384" y="900" width="15" height="17" fill="#ffd9a0" opacity=".85" class="flick"/><rect x="1432" y="900" width="14" height="17" fill="#ffd9a0" opacity=".85" />
<line x1="1370" y1="948" x2="1370" y2="970" stroke="#241009" stroke-width="5"/>
<line x1="1470" y1="948" x2="1470" y2="970" stroke="#241009" stroke-width="5"/></g><g><rect x="1500" y="900" width="102" height="57" fill="#5c1f24"/>
<path d="M1492,900 L1551,863 L1610,900 Z" fill="#3a1418"/>
<path d="M1492,900 L1551,863 L1610,900" fill="none" stroke="url(#acc)" stroke-width="1.6" opacity=".6"/>
<rect x="1520" y="917" width="12" height="14" fill="#ffd9a0" opacity=".85" /><rect x="1561" y="917" width="11" height="14" fill="#ffd9a0" opacity=".85" />
<line x1="1510" y1="957" x2="1510" y2="979" stroke="#241009" stroke-width="5"/>
<line x1="1592" y1="957" x2="1592" y2="979" stroke="#241009" stroke-width="5"/></g><g><rect x="1620" y="872" width="86" height="48" fill="#5c1f24"/>
<path d="M1612,872 L1663,841 L1714,872 Z" fill="#3a1418"/>
<path d="M1612,872 L1663,841 L1714,872" fill="none" stroke="url(#acc)" stroke-width="1.6" opacity=".6"/>
<rect x="1637" y="886" width="10" height="12" fill="#ffd9a0" opacity=".85" /><rect x="1671" y="886" width="10" height="12" fill="#ffd9a0" opacity=".85" />
<line x1="1630" y1="920" x2="1630" y2="942" stroke="#241009" stroke-width="5"/>
<line x1="1696" y1="920" x2="1696" y2="942" stroke="#241009" stroke-width="5"/></g><g opacity=".3"><line x1="1390" y1="986" x2="1390" y2="1006" stroke="#ffd9a0" stroke-width="3" class="shim"/><line x1="1540" y1="1000" x2="1540" y2="1016" stroke="#ffd9a0" stroke-width="2.4" class="shim d2"/></g><rect width="1920" height="1280" fill="url(#vig)"/>
<rect width="1920" height="1280" filter="url(#grain)" opacity="0.55" fill="none"/>
</svg>