<svg xmlns="http://www.w3.org/2000/svg" viewBox="0 0 1920 1280" width="1920" height="1280">
<defs>
<linearGradient id="sky" x1="0" y1="0" x2="0" y2="1">
 <stop offset="0" stop-color="#04070b"/><stop offset="1" stop-color="#0c1521"/>
</linearGradient>
<linearGradient id="acc" x1="0" y1="0" x2="1" y2="1">
 <stop offset="0" stop-color="#7c5cff"/><stop offset="1" stop-color="#43e0d0"/>
</linearGradient>
<linearGradient id="accv" x1="0" y1="0" x2="0" y2="1">
 <stop offset="0" stop-color="#7c5cff"/><stop offset="1" stop-color="#43e0d0"/>
</linearGradient>
<radialGradient id="mgrad" cx="0.35" cy="0.3" r="1">
 <stop offset="0" stop-color="#a99cff"/><stop offset="1" stop-color="#5fe6d6"/>
</radialGradient>
<radialGradient id="halo" cx="0.5" cy="0.5" r="0.5">
 <stop offset="0" stop-color="rgba(103,220,205,.34)"/><stop offset="1" stop-color="rgba(103,220,205,0)"/>
</radialGradient>
<radialGradient id="vig" cx="0.5" cy="0.46" r="0.85">
 <stop offset="0.55" stop-color="rgba(0,0,0,0)"/><stop offset="1" stop-color="rgba(0,0,4,.5)"/>
</radialGradient>
<linearGradient id="wgrad" x1="0" y1="0" x2="0" y2="1">
 <stop offset="0" stop-color="#0b111e"/><stop offset="1" stop-color="#070a12"/>
</linearGradient>
<filter id="soft" x="-40%" y="-40%" width="180%" height="180%"><feGaussianBlur stdDeviation="7"/></filter>
<filter id="soft2" x="-60%" y="-60%" width="220%" height="220%"><feGaussianBlur stdDeviation="16"/></filter>
<filter id="grain"><feTurbulence type="fractalNoise" baseFrequency="0.8" numOctaves="2" stitchTiles="stitch"/>
 <feColorMatrix type="matrix" values="0 0 0 0 1 0 0 0 0 1 0 0 0 0 1 0 0 0 0.05 0"/><feComposite operator="over" in2="SourceGraphic"/></filter>
</defs>
<style>
@keyframes tw{0%,100%{opacity:.1}50%{opacity:1}}
.tw{animation:tw 3.4s ease-in-out infinite}
.tw.d1{animation-delay:.6s}.tw.d2{animation-delay:1.2s}.tw.d3{animation-delay:1.9s}.tw.d4{animation-delay:2.6s}.tw.d5{animation-delay:3.1s}
@keyframes shoot{0%,84%{opacity:0;transform:translate(0,0)}86%{opacity:1}96%{opacity:0;transform:translate(-620px,320px)}100%{opacity:0}}
.shoot{animation:shoot 12s linear infinite}
.shoot.s2{animation-duration:19s;animation-delay:7s}
@keyframes bob{0%,100%{transform:translateY(0px) rotate(-1.2deg)}50%{transform:translateY(9px) rotate(1.4deg)}}
.bob{animation:bob 5.6s ease-in-out infinite;transform-box:fill-box;transform-origin:center}
.bob.b2{animation-duration:7.2s;animation-delay:1.1s}
@keyframes shim{0%,100%{opacity:.22}50%{opacity:.75}}
.shim{animation:shim 4.4s ease-in-out infinite}
.shim.d1{animation-delay:1.4s}.shim.d2{animation-delay:2.7s}.shim.d3{animation-delay:3.6s}
@keyframes flick{0%,91%,100%{opacity:.9}93%{opacity:.25}95%{opacity:.85}}
.flick{animation:flick 8s linear infinite}.flick.f2{animation-delay:3.5s}
@keyframes spin{from{transform:rotate(0deg)}to{transform:rotate(360deg)}}
.wheel{animation:spin 80s linear infinite;transform-box:fill-box;transform-origin:center}
@keyframes aur{0%,100%{opacity:.34;transform:skewX(0deg)}50%{opacity:.72;transform:skewX(-4deg)}}
.aur{animation:aur 9s ease-in-out infinite;transform-box:fill-box;transform-origin:bottom}
.aur.a2{animation-duration:13s;animation-delay:2.5s}
@keyframes fall{from{transform:translateY(-140px)}to{transform:translateY(150px)}}
.fall{animation:fall 9s linear infinite}.fall.f2{animation-duration:13s;animation-delay:2s}.fall.f3{animation-duration:11s;animation-delay:5s}
@keyframes sway{0%,100%{transform:rotate(-1.4deg)}50%{transform:rotate(1.4deg)}}
.sway{animation:sway 7s ease-in-out infinite;transform-box:fill-box;transform-origin:bottom center}

@media (prefers-reduced-motion:reduce){*{animation:none!important}}
</style>
<rect width="1920" height="1280" fill="url(#sky)"/><circle cx="347" cy="457" r="2.2" fill="#c9d4e6" opacity="0.47"/>
<circle cx="1639" cy="63" r="1.8" fill="#dfe8f5" class="tw"/>
<circle cx="1400" cy="487" r="1.4" fill="#c9d4e6" opacity="0.79"/>
<circle cx="1791" cy="574" r="2.3" fill="#c9d4e6" opacity="0.55"/>
<circle cx="878" cy="267" r="2.4" fill="#dfe8f5" class="tw d5"/>
<circle cx="619" cy="498" r="1.9" fill="#c9d4e6" opacity="0.68"/>
<circle cx="104" cy="244" r="2.2" fill="#dfe8f5" class="tw d3"/>
<circle cx="969" cy="482" r="1.1" fill="#dfe8f5" class="tw d4"/>
<circle cx="270" cy="174" r="1.3" fill="#c9d4e6" opacity="0.43"/>
<circle cx="336" cy="502" r="2.1" fill="#c9d4e6" opacity="0.50"/>
<circle cx="1830" cy="406" r="1.1" fill="#c9d4e6" opacity="0.46"/>
<circle cx="1599" cy="465" r="1.5" fill="#c9d4e6" opacity="0.74"/>
<circle cx="307" cy="234" r="1.0" fill="#c9d4e6" opacity="0.45"/>
<circle cx="1691" cy="358" r="1.1" fill="#dfe8f5" class="tw d5"/>
<circle cx="949" cy="365" r="2.2" fill="#c9d4e6" opacity="0.31"/>
<circle cx="153" cy="592" r="1.1" fill="#c9d4e6" opacity="0.52"/>
<circle cx="585" cy="37" r="1.4" fill="#c9d4e6" opacity="0.66"/>
<circle cx="1293" cy="324" r="1.6" fill="#c9d4e6" opacity="0.54"/>
<circle cx="1328" cy="158" r="1.3" fill="#c9d4e6" opacity="0.49"/>
<circle cx="1216" cy="534" r="1.7" fill="#c9d4e6" opacity="0.32"/>
<circle cx="998" cy="381" r="1.6" fill="#c9d4e6" opacity="0.55"/>
<circle cx="1338" cy="451" r="1.8" fill="#dfe8f5" class="tw d2"/>
<circle cx="1645" cy="563" r="1.8" fill="#c9d4e6" opacity="0.37"/>
<circle cx="300" cy="323" r="1.1" fill="#c9d4e6" opacity="0.44"/>
<circle cx="1209" cy="20" r="2.3" fill="#c9d4e6" opacity="0.26"/>
<circle cx="1685" cy="38" r="1.3" fill="#dfe8f5" class="tw d1"/>
<circle cx="192" cy="227" r="2.4" fill="#dfe8f5" class="tw d5"/>
<circle cx="555" cy="119" r="1.0" fill="#c9d4e6" opacity="0.70"/>
<circle cx="591" cy="589" r="1.0" fill="#c9d4e6" opacity="0.57"/>
<circle cx="861" cy="300" r="2.1" fill="#c9d4e6" opacity="0.70"/>
<circle cx="1021" cy="451" r="2.3" fill="#c9d4e6" opacity="0.40"/>
<circle cx="421" cy="414" r="1.3" fill="#c9d4e6" opacity="0.71"/>
<circle cx="337" cy="154" r="0.9" fill="#c9d4e6" opacity="0.75"/>
<circle cx="1609" cy="111" r="1.4" fill="#dfe8f5" class="tw"/>
<circle cx="839" cy="259" r="1.2" fill="#c9d4e6" opacity="0.39"/>
<circle cx="777" cy="345" r="0.9" fill="#c9d4e6" opacity="0.78"/>
<circle cx="1512" cy="393" r="2.1" fill="#c9d4e6" opacity="0.64"/>
<circle cx="269" cy="445" r="2.3" fill="#dfe8f5" class="tw d2"/>
<circle cx="24" cy="458" r="1.8" fill="#c9d4e6" opacity="0.27"/>
<circle cx="1590" cy="65" r="1.3" fill="#dfe8f5" class="tw d4"/>
<circle cx="966" cy="405" r="0.9" fill="#c9d4e6" opacity="0.64"/>
<circle cx="718" cy="184" r="2.3" fill="#c9d4e6" opacity="0.50"/><circle cx="390" cy="220" r="135" fill="url(#halo)"/>
<circle cx="390" cy="220" r="52" fill="url(#mgrad)"/><path d="M980,950 L1080,700 L1140,560 L1210,480 L1330,452 L1450,470 L1520,540 L1600,700 L1700,950 Z" fill="#1b2334"/><path d="M1080,700 L1140,560 L1210,480 L1330,452 L1450,470 L1520,540" fill="none" stroke="url(#acc)" stroke-width="2.6" opacity=".85"/><path d="M1210,480 L1240,560 L1320,600 L1410,580 L1450,470" fill="none" stroke="#43e0d0" stroke-width="1.4" opacity=".35"/><path d="M0,950 L0,860 L240,800 L520,860 L760,830 L980,880 L980,950 Z" fill="#141a27" opacity=".8"/><rect x="0" y="950" width="1920" height="330" fill="url(#wgrad)"/>
<line x1="0" y1="950" x2="1920" y2="950" stroke="url(#acc)" stroke-width="2.4" opacity=".55"/>
<line x1="1068" y1="1111" x2="1125" y2="1111" stroke="#7c5cff" stroke-width="2" class="shim d1" opacity=".3"/>
<line x1="654" y1="1183" x2="802" y2="1183" stroke="#43e0d0" stroke-width="2" class="shim d1" opacity=".3"/>
<line x1="455" y1="1075" x2="571" y2="1075" stroke="#43e0d0" stroke-width="2" class="shim" opacity=".3"/>
<line x1="767" y1="982" x2="920" y2="982" stroke="#43e0d0" stroke-width="2" class="shim d1" opacity=".3"/>
<line x1="1045" y1="1172" x2="1244" y2="1172" stroke="#43e0d0" stroke-width="2" class="shim d4" opacity=".3"/>
<line x1="308" y1="1045" x2="490" y2="1045" stroke="#43e0d0" stroke-width="2" class="shim d4" opacity=".3"/>
<line x1="1384" y1="1120" x2="1582" y2="1120" stroke="#43e0d0" stroke-width="2" class="shim d3" opacity=".3"/>
<line x1="1193" y1="999" x2="1275" y2="999" stroke="#7c5cff" stroke-width="2" class="shim d4" opacity=".3"/>
<line x1="223" y1="1068" x2="399" y2="1068" stroke="#43e0d0" stroke-width="2" class="shim d1" opacity=".3"/>
<line x1="1288" y1="1199" x2="1469" y2="1199" stroke="#43e0d0" stroke-width="2" class="shim d1" opacity=".3"/>
<line x1="1073" y1="1001" x2="1261" y2="1001" stroke="#7c5cff" stroke-width="2" class="shim" opacity=".3"/>
<line x1="284" y1="1094" x2="379" y2="1094" stroke="#43e0d0" stroke-width="2" class="shim d4" opacity=".3"/>
<line x1="1470" y1="1177" x2="1544" y2="1177" stroke="#43e0d0" stroke-width="2" class="shim d3" opacity=".3"/>
<line x1="54" y1="1041" x2="124" y2="1041" stroke="#43e0d0" stroke-width="2" class="shim d4" opacity=".3"/>
<line x1="1262" y1="1220" x2="1429" y2="1220" stroke="#7c5cff" stroke-width="2" class="shim d2" opacity=".3"/>
<line x1="1408" y1="988" x2="1459" y2="988" stroke="#7c5cff" stroke-width="2" class="shim d4" opacity=".3"/>
<line x1="1350" y1="1239" x2="1480" y2="1239" stroke="#43e0d0" stroke-width="2" class="shim d1" opacity=".3"/>
<line x1="541" y1="1149" x2="637" y2="1149" stroke="#43e0d0" stroke-width="2" class="shim d1" opacity=".3"/><g class="sway"><path d="M300,1210 Q310,1094 326,1000" fill="none" stroke="#1d2534" stroke-width="12" stroke-linecap="round"/><path d="M300,1210 Q310,1094 326,1000" fill="none" stroke="url(#acc)" stroke-width="2.4" opacity=".7"/><path d="M326,1000 Q284,976 242,985" fill="none" stroke="url(#acc)" stroke-width="3.4" stroke-linecap="round" opacity=".85"/><path d="M326,1000 Q312,965 303,954" fill="none" stroke="url(#acc)" stroke-width="3.4" stroke-linecap="round" opacity=".85"/><path d="M326,1000 Q360,970 387,967" fill="none" stroke="url(#acc)" stroke-width="3.4" stroke-linecap="round" opacity=".85"/><path d="M326,1000 Q370,990 399,1017" fill="none" stroke="url(#acc)" stroke-width="3.4" stroke-linecap="round" opacity=".85"/><path d="M326,1000 Q358,998 383,1035" fill="none" stroke="url(#acc)" stroke-width="3.4" stroke-linecap="round" opacity=".85"/><path d="M326,1000 Q301,1001 281,1051" fill="none" stroke="url(#acc)" stroke-width="3.4" stroke-linecap="round" opacity=".85"/></g><g class="sway"><path d="M470,1230 Q463,1142 452,1070" fill="none" stroke="#1d2534" stroke-width="12" stroke-linecap="round"/><path d="M470,1230 Q463,1142 452,1070" fill="none" stroke="url(#acc)" stroke-width="2.4" opacity=".7"/><path d="M452,1070 Q412,1044 382,1042" fill="none" stroke="url(#acc)" stroke-width="3.4" stroke-linecap="round" opacity=".85"/><path d="M452,1070 Q443,1034 438,1018" fill="none" stroke="url(#acc)" stroke-width="3.4" stroke-linecap="round" opacity=".85"/><path d="M452,1070 Q487,1041 512,1031" fill="none" stroke="url(#acc)" stroke-width="3.4" stroke-linecap="round" opacity=".85"/><path d="M452,1070 Q498,1052 556,1064" fill="none" stroke="url(#acc)" stroke-width="3.4" stroke-linecap="round" opacity=".85"/><path d="M452,1070 Q483,1069 508,1109" fill="none" stroke="url(#acc)" stroke-width="3.4" stroke-linecap="round" opacity=".85"/><path d="M452,1070 Q438,1073 422,1129" fill="none" stroke="url(#acc)" stroke-width="3.4" stroke-linecap="round" opacity=".85"/></g><rect width="1920" height="1280" fill="url(#vig)"/>
<rect width="1920" height="1280" filter="url(#grain)" opacity="0.55" fill="none"/>
</svg>