<svg xmlns="http://www.w3.org/2000/svg" viewBox="0 0 1920 1280" width="1920" height="1280">
<defs>
<linearGradient id="sky" x1="0" y1="0" x2="0" y2="1">
 <stop offset="0" stop-color="#05060c"/><stop offset="1" stop-color="#111226"/>
</linearGradient>
<linearGradient id="acc" x1="0" y1="0" x2="1" y2="1">
 <stop offset="0" stop-color="#7c5cff"/><stop offset="1" stop-color="#43e0d0"/>
</linearGradient>
<linearGradient id="accv" x1="0" y1="0" x2="0" y2="1">
 <stop offset="0" stop-color="#7c5cff"/><stop offset="1" stop-color="#43e0d0"/>
</linearGradient>
<radialGradient id="mgrad" cx="0.35" cy="0.3" r="1">
 <stop offset="0" stop-color="#a99cff"/><stop offset="1" stop-color="#5fe6d6"/>
</radialGradient>
<radialGradient id="halo" cx="0.5" cy="0.5" r="0.5">
 <stop offset="0" stop-color="rgba(103,220,205,.34)"/><stop offset="1" stop-color="rgba(103,220,205,0)"/>
</radialGradient>
<radialGradient id="vig" cx="0.5" cy="0.46" r="0.85">
 <stop offset="0.55" stop-color="rgba(0,0,0,0)"/><stop offset="1" stop-color="rgba(0,0,4,.5)"/>
</radialGradient>
<linearGradient id="wgrad" x1="0" y1="0" x2="0" y2="1">
 <stop offset="0" stop-color="#0b111e"/><stop offset="1" stop-color="#070a12"/>
</linearGradient>
<filter id="soft" x="-40%" y="-40%" width="180%" height="180%"><feGaussianBlur stdDeviation="7"/></filter>
<filter id="soft2" x="-60%" y="-60%" width="220%" height="220%"><feGaussianBlur stdDeviation="16"/></filter>
<filter id="grain"><feTurbulence type="fractalNoise" baseFrequency="0.8" numOctaves="2" stitchTiles="stitch"/>
 <feColorMatrix type="matrix" values="0 0 0 0 1 0 0 0 0 1 0 0 0 0 1 0 0 0 0.05 0"/><feComposite operator="over" in2="SourceGraphic"/></filter>
</defs>
<style>
@keyframes tw{0%,100%{opacity:.1}50%{opacity:1}}
.tw{animation:tw 3.4s ease-in-out infinite}
.tw.d1{animation-delay:.6s}.tw.d2{animation-delay:1.2s}.tw.d3{animation-delay:1.9s}.tw.d4{animation-delay:2.6s}.tw.d5{animation-delay:3.1s}
@keyframes shoot{0%,84%{opacity:0;transform:translate(0,0)}86%{opacity:1}96%{opacity:0;transform:translate(-620px,320px)}100%{opacity:0}}
.shoot{animation:shoot 12s linear infinite}
.shoot.s2{animation-duration:19s;animation-delay:7s}
@keyframes bob{0%,100%{transform:translateY(0px) rotate(-1.2deg)}50%{transform:translateY(9px) rotate(1.4deg)}}
.bob{animation:bob 5.6s ease-in-out infinite;transform-box:fill-box;transform-origin:center}
.bob.b2{animation-duration:7.2s;animation-delay:1.1s}
@keyframes shim{0%,100%{opacity:.22}50%{opacity:.75}}
.shim{animation:shim 4.4s ease-in-out infinite}
.shim.d1{animation-delay:1.4s}.shim.d2{animation-delay:2.7s}.shim.d3{animation-delay:3.6s}
@keyframes flick{0%,91%,100%{opacity:.9}93%{opacity:.25}95%{opacity:.85}}
.flick{animation:flick 8s linear infinite}.flick.f2{animation-delay:3.5s}
@keyframes spin{from{transform:rotate(0deg)}to{transform:rotate(360deg)}}
.wheel{animation:spin 80s linear infinite;transform-box:fill-box;transform-origin:center}
@keyframes aur{0%,100%{opacity:.34;transform:skewX(0deg)}50%{opacity:.72;transform:skewX(-4deg)}}
.aur{animation:aur 9s ease-in-out infinite;transform-box:fill-box;transform-origin:bottom}
.aur.a2{animation-duration:13s;animation-delay:2.5s}
@keyframes fall{from{transform:translateY(-140px)}to{transform:translateY(150px)}}
.fall{animation:fall 9s linear infinite}.fall.f2{animation-duration:13s;animation-delay:2s}.fall.f3{animation-duration:11s;animation-delay:5s}
@keyframes sway{0%,100%{transform:rotate(-1.4deg)}50%{transform:rotate(1.4deg)}}
.sway{animation:sway 7s ease-in-out infinite;transform-box:fill-box;transform-origin:bottom center}

@media (prefers-reduced-motion:reduce){*{animation:none!important}}
</style>
<rect width="1920" height="1280" fill="url(#sky)"/><circle cx="1046" cy="378" r="1.8" fill="#dfe8f5" class="tw"/>
<circle cx="1862" cy="368" r="1.0" fill="#c9d4e6" opacity="0.64"/>
<circle cx="590" cy="80" r="1.0" fill="#c9d4e6" opacity="0.64"/>
<circle cx="1366" cy="73" r="2.3" fill="#dfe8f5" class="tw d2"/>
<circle cx="775" cy="258" r="1.2" fill="#c9d4e6" opacity="0.43"/>
<circle cx="1702" cy="57" r="2.3" fill="#c9d4e6" opacity="0.69"/>
<circle cx="522" cy="569" r="1.7" fill="#c9d4e6" opacity="0.65"/>
<circle cx="906" cy="411" r="2.3" fill="#dfe8f5" class="tw d5"/>
<circle cx="1006" cy="536" r="1.4" fill="#c9d4e6" opacity="0.66"/>
<circle cx="950" cy="251" r="1.9" fill="#c9d4e6" opacity="0.78"/>
<circle cx="585" cy="440" r="2.3" fill="#c9d4e6" opacity="0.48"/>
<circle cx="906" cy="31" r="1.9" fill="#c9d4e6" opacity="0.71"/>
<circle cx="1738" cy="32" r="1.9" fill="#c9d4e6" opacity="0.76"/>
<circle cx="1794" cy="189" r="1.3" fill="#c9d4e6" opacity="0.35"/>
<circle cx="892" cy="536" r="1.6" fill="#dfe8f5" class="tw"/>
<circle cx="1740" cy="589" r="2.3" fill="#c9d4e6" opacity="0.39"/>
<circle cx="1783" cy="574" r="1.1" fill="#dfe8f5" class="tw d1"/>
<circle cx="498" cy="139" r="1.9" fill="#c9d4e6" opacity="0.51"/>
<circle cx="1299" cy="284" r="2.2" fill="#dfe8f5" class="tw"/>
<circle cx="292" cy="137" r="1.5" fill="#c9d4e6" opacity="0.56"/>
<circle cx="1648" cy="463" r="1.1" fill="#c9d4e6" opacity="0.34"/>
<circle cx="1447" cy="400" r="1.3" fill="#c9d4e6" opacity="0.64"/>
<circle cx="1396" cy="73" r="1.6" fill="#c9d4e6" opacity="0.67"/>
<circle cx="1537" cy="396" r="1.4" fill="#c9d4e6" opacity="0.28"/>
<circle cx="1731" cy="91" r="0.9" fill="#c9d4e6" opacity="0.63"/>
<circle cx="1593" cy="54" r="1.1" fill="#c9d4e6" opacity="0.49"/>
<circle cx="1377" cy="350" r="1.2" fill="#dfe8f5" class="tw"/>
<circle cx="518" cy="597" r="1.2" fill="#c9d4e6" opacity="0.66"/>
<circle cx="289" cy="532" r="1.4" fill="#c9d4e6" opacity="0.41"/>
<circle cx="1473" cy="587" r="1.7" fill="#c9d4e6" opacity="0.68"/>
<circle cx="1581" cy="110" r="0.9" fill="#c9d4e6" opacity="0.55"/>
<circle cx="1542" cy="54" r="1.7" fill="#dfe8f5" class="tw d3"/>
<circle cx="904" cy="108" r="1.4" fill="#dfe8f5" class="tw"/>
<circle cx="806" cy="562" r="1.7" fill="#c9d4e6" opacity="0.34"/>
<circle cx="1343" cy="533" r="1.5" fill="#dfe8f5" class="tw"/>
<circle cx="1641" cy="205" r="2.0" fill="#c9d4e6" opacity="0.63"/>
<circle cx="1140" cy="589" r="1.1" fill="#c9d4e6" opacity="0.53"/>
<circle cx="1720" cy="137" r="2.2" fill="#c9d4e6" opacity="0.60"/>
<circle cx="664" cy="135" r="1.1" fill="#c9d4e6" opacity="0.67"/>
<circle cx="566" cy="595" r="1.1" fill="#c9d4e6" opacity="0.52"/>
<circle cx="101" cy="203" r="1.9" fill="#c9d4e6" opacity="0.57"/>
<circle cx="226" cy="229" r="1.1" fill="#dfe8f5" class="tw d1"/><circle cx="1660" cy="200" r="130" fill="url(#halo)"/>
<circle cx="1660" cy="200" r="50" fill="url(#mgrad)"/><rect x="170" y="712" width="330" height="234" fill="#131a29"/><line x1="200" y1="712" x2="200" y2="946 M250,712 250,946" stroke="#0e1320" stroke-width="0"/><line x1="206" y1="724" x2="206" y2="940" stroke="#0e1320" stroke-width="4"/><line x1="258" y1="724" x2="258" y2="940" stroke="#0e1320" stroke-width="4"/><line x1="310" y1="724" x2="310" y2="940" stroke="#0e1320" stroke-width="4"/><line x1="362" y1="724" x2="362" y2="940" stroke="#0e1320" stroke-width="4"/><line x1="414" y1="724" x2="414" y2="940" stroke="#0e1320" stroke-width="4"/><line x1="466" y1="724" x2="466" y2="940" stroke="#0e1320" stroke-width="4"/><path d="M225,712 Q335,566 445,712 Z" fill="#182136"/><path d="M225,712 Q335,566 445,712" fill="none" stroke="#46557f" stroke-width="2.2" opacity=".85"/><path d="M258,690 Q335,608 412,690" fill="none" stroke="#0e1320" stroke-width="2.4" opacity=".8"/><rect x="313" y="586" width="44" height="34" fill="#182136"/><path d="M313,586 h44 M321,586 v34 M335,586 v34 M349,586 v34" stroke="#0e1320" stroke-width="2"/><path d="M313,586 Q335,568 357,586 Z" fill="#182136" stroke="#46557f" stroke-width="1.6"/><line x1="335" y1="570" x2="335" y2="548" stroke="#46557f" stroke-width="2"/><path d="M710,946 L710,628 Q810,592 980,588 L1050,588 L1070,676 Q1140,698 1240,704 L1500,704 Q1580,698 1630,676 L1630,946 Z" fill="#1b2334"/><line x1="710" y1="749" x2="1630" y2="749" stroke="#141b2c" stroke-width="1.6" opacity=".9"/><line x1="710" y1="798" x2="1630" y2="798" stroke="#141b2c" stroke-width="1.6" opacity=".9"/><line x1="710" y1="848" x2="1630" y2="848" stroke="#141b2c" stroke-width="1.6" opacity=".9"/><line x1="710" y1="897" x2="1630" y2="897" stroke="#141b2c" stroke-width="1.6" opacity=".9"/><line x1="805" y1="700" x2="805" y2="749" stroke="#141b2c" stroke-width="1.3" opacity=".65"/><line x1="901" y1="700" x2="901" y2="749" stroke="#141b2c" stroke-width="1.3" opacity=".65"/><line x1="992" y1="700" x2="992" y2="749" stroke="#141b2c" stroke-width="1.3" opacity=".65"/><line x1="1083" y1="700" x2="1083" y2="749" stroke="#141b2c" stroke-width="1.3" opacity=".65"/><line x1="1175" y1="700" x2="1175" y2="749" stroke="#141b2c" stroke-width="1.3" opacity=".65"/><line x1="1265" y1="700" x2="1265" y2="749" stroke="#141b2c" stroke-width="1.3" opacity=".65"/><line x1="1356" y1="700" x2="1356" y2="749" stroke="#141b2c" stroke-width="1.3" opacity=".65"/><line x1="1452" y1="700" x2="1452" y2="749" stroke="#141b2c" stroke-width="1.3" opacity=".65"/><line x1="1546" y1="700" x2="1546" y2="749" stroke="#141b2c" stroke-width="1.3" opacity=".65"/><line x1="764" y1="749" x2="764" y2="798" stroke="#141b2c" stroke-width="1.3" opacity=".65"/><line x1="855" y1="749" x2="855" y2="798" stroke="#141b2c" stroke-width="1.3" opacity=".65"/><line x1="938" y1="749" x2="938" y2="798" stroke="#141b2c" stroke-width="1.3" opacity=".65"/><line x1="1024" y1="749" x2="1024" y2="798" stroke="#141b2c" stroke-width="1.3" opacity=".65"/><line x1="1121" y1="749" x2="1121" y2="798" stroke="#141b2c" stroke-width="1.3" opacity=".65"/><line x1="1213" y1="749" x2="1213" y2="798" stroke="#141b2c" stroke-width="1.3" opacity=".65"/><line x1="1310" y1="749" x2="1310" y2="798" stroke="#141b2c" stroke-width="1.3" opacity=".65"/><line x1="1407" y1="749" x2="1407" y2="798" stroke="#141b2c" stroke-width="1.3" opacity=".65"/><line x1="1493" y1="749" x2="1493" y2="798" stroke="#141b2c" stroke-width="1.3" opacity=".65"/><line x1="1590" y1="749" x2="1590" y2="798" stroke="#141b2c" stroke-width="1.3" opacity=".65"/><line x1="808" y1="798" x2="808" y2="848" stroke="#141b2c" stroke-width="1.3" opacity=".65"/><line x1="899" y1="798" x2="899" y2="848" stroke="#141b2c" stroke-width="1.3" opacity=".65"/><line x1="983" y1="798" x2="983" y2="848" stroke="#141b2c" stroke-width="1.3" opacity=".65"/><line x1="1077" y1="798" x2="1077" y2="848" stroke="#141b2c" stroke-width="1.3" opacity=".65"/><line x1="1175" y1="798" x2="1175" y2="848" stroke="#141b2c" stroke-width="1.3" opacity=".65"/><line x1="1260" y1="798" x2="1260" y2="848" stroke="#141b2c" stroke-width="1.3" opacity=".65"/><line x1="1352" y1="798" x2="1352" y2="848" stroke="#141b2c" stroke-width="1.3" opacity=".65"/><line x1="1442" y1="798" x2="1442" y2="848" stroke="#141b2c" stroke-width="1.3" opacity=".65"/><line x1="1546" y1="798" x2="1546" y2="848" stroke="#141b2c" stroke-width="1.3" opacity=".65"/><line x1="751" y1="848" x2="751" y2="897" stroke="#141b2c" stroke-width="1.3" opacity=".65"/><line x1="848" y1="848" x2="848" y2="897" stroke="#141b2c" stroke-width="1.3" opacity=".65"/><line x1="944" y1="848" x2="944" y2="897" stroke="#141b2c" stroke-width="1.3" opacity=".65"/><line x1="1037" y1="848" x2="1037" y2="897" stroke="#141b2c" stroke-width="1.3" opacity=".65"/><line x1="1116" y1="848" x2="1116" y2="897" stroke="#141b2c" stroke-width="1.3" opacity=".65"/><line x1="1216" y1="848" x2="1216" y2="897" stroke="#141b2c" stroke-width="1.3" opacity=".65"/><line x1="1305" y1="848" x2="1305" y2="897" stroke="#141b2c" stroke-width="1.3" opacity=".65"/><line x1="1395" y1="848" x2="1395" y2="897" stroke="#141b2c" stroke-width="1.3" opacity=".65"/><line x1="1494" y1="848" x2="1494" y2="897" stroke="#141b2c" stroke-width="1.3" opacity=".65"/><line x1="1577" y1="848" x2="1577" y2="897" stroke="#141b2c" stroke-width="1.3" opacity=".65"/><line x1="806" y1="897" x2="806" y2="946" stroke="#141b2c" stroke-width="1.3" opacity=".65"/><line x1="895" y1="897" x2="895" y2="946" stroke="#141b2c" stroke-width="1.3" opacity=".65"/><line x1="993" y1="897" x2="993" y2="946" stroke="#141b2c" stroke-width="1.3" opacity=".65"/><line x1="1071" y1="897" x2="1071" y2="946" stroke="#141b2c" stroke-width="1.3" opacity=".65"/><line x1="1164" y1="897" x2="1164" y2="946" stroke="#141b2c" stroke-width="1.3" opacity=".65"/><line x1="1258" y1="897" x2="1258" y2="946" stroke="#141b2c" stroke-width="1.3" opacity=".65"/><line x1="1352" y1="897" x2="1352" y2="946" stroke="#141b2c" stroke-width="1.3" opacity=".65"/><line x1="1442" y1="897" x2="1442" y2="946" stroke="#141b2c" stroke-width="1.3" opacity=".65"/><line x1="1536" y1="897" x2="1536" y2="946" stroke="#141b2c" stroke-width="1.3" opacity=".65"/><path d="M752,664 v-36 a16,18 0 0 1 32,0 v36 Z" fill="#0d1220"/><path d="M828,664 v-36 a16,18 0 0 1 32,0 v36 Z" fill="#0d1220"/><path d="M904,664 v-36 a16,18 0 0 1 32,0 v36 Z" fill="#0d1220"/><path d="M980,664 v-36 a16,18 0 0 1 32,0 v36 Z" fill="#0d1220"/><path d="M752,736 v-38 a16,19 0 0 1 32,0 v38 Z" fill="#0d1220"/><path d="M828,736 v-38 a16,19 0 0 1 32,0 v38 Z" fill="#0d1220"/><path d="M904,736 v-38 a16,19 0 0 1 32,0 v38 Z" fill="#0d1220"/><path d="M980,736 v-38 a16,19 0 0 1 32,0 v38 Z" fill="#0d1220"/><path d="M740,826 v-44 a18,21 0 0 1 36,0 v44 Z" fill="#0d1220"/><path d="M822,826 v-44 a18,21 0 0 1 36,0 v44 Z" fill="#0d1220"/><path d="M904,826 v-44 a18,21 0 0 1 36,0 v44 Z" fill="#0d1220"/><path d="M986,826 v-44 a18,21 0 0 1 36,0 v44 Z" fill="#0d1220"/><path d="M1068,826 v-44 a18,21 0 0 1 36,0 v44 Z" fill="#0d1220"/><path d="M1150,826 v-44 a18,21 0 0 1 36,0 v44 Z" fill="#0d1220"/><path d="M1232,826 v-44 a18,21 0 0 1 36,0 v44 Z" fill="#0d1220"/><path d="M1314,826 v-44 a18,21 0 0 1 36,0 v44 Z" fill="#0d1220"/><path d="M1396,826 v-44 a18,21 0 0 1 36,0 v44 Z" fill="#0d1220"/><path d="M1478,826 v-44 a18,21 0 0 1 36,0 v44 Z" fill="#0d1220"/><path d="M1560,826 v-44 a18,21 0 0 1 36,0 v44 Z" fill="#0d1220"/><path d="M756,946 v-56 a19,23 0 0 1 38,0 v56 Z" fill="#0b0f18"/><path d="M756,946 v-56 a19,23 0 0 1 38,0 v56" fill="none" stroke="#26304a" stroke-width="1.4" opacity=".6"/><path d="M838,946 v-56 a19,23 0 0 1 38,0 v56 Z" fill="#0b0f18"/><path d="M838,946 v-56 a19,23 0 0 1 38,0 v56" fill="none" stroke="#26304a" stroke-width="1.4" opacity=".6"/><path d="M920,946 v-56 a19,23 0 0 1 38,0 v56 Z" fill="#0b0f18"/><path d="M920,946 v-56 a19,23 0 0 1 38,0 v56" fill="none" stroke="#26304a" stroke-width="1.4" opacity=".6"/><path d="M1002,946 v-56 a19,23 0 0 1 38,0 v56 Z" fill="#0b0f18"/><path d="M1002,946 v-56 a19,23 0 0 1 38,0 v56" fill="none" stroke="#26304a" stroke-width="1.4" opacity=".6"/><path d="M1084,946 v-56 a19,23 0 0 1 38,0 v56 Z" fill="#0b0f18"/><path d="M1084,946 v-56 a19,23 0 0 1 38,0 v56" fill="none" stroke="#26304a" stroke-width="1.4" opacity=".6"/><path d="M1166,946 v-56 a19,23 0 0 1 38,0 v56 Z" fill="#0b0f18"/><path d="M1166,946 v-56 a19,23 0 0 1 38,0 v56" fill="none" stroke="#26304a" stroke-width="1.4" opacity=".6"/><path d="M1248,946 v-56 a19,23 0 0 1 38,0 v56 Z" fill="#0b0f18"/><path d="M1248,946 v-56 a19,23 0 0 1 38,0 v56" fill="none" stroke="#26304a" stroke-width="1.4" opacity=".6"/><path d="M1330,946 v-56 a19,23 0 0 1 38,0 v56 Z" fill="#0b0f18"/><path d="M1330,946 v-56 a19,23 0 0 1 38,0 v56" fill="none" stroke="#26304a" stroke-width="1.4" opacity=".6"/><path d="M1412,946 v-56 a19,23 0 0 1 38,0 v56 Z" fill="#0b0f18"/><path d="M1412,946 v-56 a19,23 0 0 1 38,0 v56" fill="none" stroke="#26304a" stroke-width="1.4" opacity=".6"/><path d="M1494,946 v-56 a19,23 0 0 1 38,0 v56 Z" fill="#0b0f18"/><path d="M1494,946 v-56 a19,23 0 0 1 38,0 v56" fill="none" stroke="#26304a" stroke-width="1.4" opacity=".6"/><path d="M710,628 Q810,592 980,588 L1050,588 L1070,676 Q1140,698 1240,704 L1500,704 Q1580,698 1630,676" fill="none" stroke="#46557f" stroke-width="2.8" opacity=".9"/><line x1="718" y1="756" x2="1062" y2="756" stroke="#313d60" stroke-width="2.4" opacity=".8"/><line x1="710" y1="852" x2="1630" y2="852" stroke="#313d60" stroke-width="2.4" opacity=".7"/><path d="M1070,676 Q1210,664 1470,666 L1470,704 Q1140,698 1070,676 Z" fill="#12182a"/><rect x="0" y="946" width="1920" height="334" fill="#0a0e16"/><line x1="0" y1="946" x2="1920" y2="946" stroke="url(#acc)" stroke-width="2" opacity=".45"/><g class="sway"><path d="M110,946 Q116,796 110,696" fill="none" stroke="#1d2534" stroke-width="10"/>
<path d="M15,710 Q70,644 110,656 Q150,644 205,710 Q140,736 110,730 Q80,736 15,710 Z" fill="#131b28" stroke="url(#acc)" stroke-width="1.6" opacity=".95"/></g><g class="sway"><path d="M1880,946 Q1886,817 1880,731" fill="none" stroke="#1d2534" stroke-width="10"/>
<path d="M1785,745 Q1840,679 1880,691 Q1920,679 1975,745 Q1910,771 1880,765 Q1850,771 1785,745 Z" fill="#131b28" stroke="url(#acc)" stroke-width="1.6" opacity=".95"/></g><rect width="1920" height="1280" fill="url(#vig)"/>
<rect width="1920" height="1280" filter="url(#grain)" opacity="0.55" fill="none"/>
</svg>