<svg xmlns="http://www.w3.org/2000/svg" viewBox="0 0 1920 1280" width="1920" height="1280">
<defs>
<linearGradient id="sky" x1="0" y1="0" x2="0" y2="1">
 <stop offset="0" stop-color="#05060c"/><stop offset="1" stop-color="#101331"/>
</linearGradient>
<linearGradient id="acc" x1="0" y1="0" x2="1" y2="1">
 <stop offset="0" stop-color="#7c5cff"/><stop offset="1" stop-color="#43e0d0"/>
</linearGradient>
<linearGradient id="accv" x1="0" y1="0" x2="0" y2="1">
 <stop offset="0" stop-color="#7c5cff"/><stop offset="1" stop-color="#43e0d0"/>
</linearGradient>
<radialGradient id="mgrad" cx="0.35" cy="0.3" r="1">
 <stop offset="0" stop-color="#a99cff"/><stop offset="1" stop-color="#5fe6d6"/>
</radialGradient>
<radialGradient id="halo" cx="0.5" cy="0.5" r="0.5">
 <stop offset="0" stop-color="rgba(103,220,205,.34)"/><stop offset="1" stop-color="rgba(103,220,205,0)"/>
</radialGradient>
<radialGradient id="vig" cx="0.5" cy="0.46" r="0.85">
 <stop offset="0.55" stop-color="rgba(0,0,0,0)"/><stop offset="1" stop-color="rgba(0,0,4,.5)"/>
</radialGradient>
<linearGradient id="wgrad" x1="0" y1="0" x2="0" y2="1">
 <stop offset="0" stop-color="#0b111e"/><stop offset="1" stop-color="#070a12"/>
</linearGradient>
<filter id="soft" x="-40%" y="-40%" width="180%" height="180%"><feGaussianBlur stdDeviation="7"/></filter>
<filter id="soft2" x="-60%" y="-60%" width="220%" height="220%"><feGaussianBlur stdDeviation="16"/></filter>
<filter id="grain"><feTurbulence type="fractalNoise" baseFrequency="0.8" numOctaves="2" stitchTiles="stitch"/>
 <feColorMatrix type="matrix" values="0 0 0 0 1 0 0 0 0 1 0 0 0 0 1 0 0 0 0.05 0"/><feComposite operator="over" in2="SourceGraphic"/></filter>
</defs>
<style>
@keyframes tw{0%,100%{opacity:.1}50%{opacity:1}}
.tw{animation:tw 3.4s ease-in-out infinite}
.tw.d1{animation-delay:.6s}.tw.d2{animation-delay:1.2s}.tw.d3{animation-delay:1.9s}.tw.d4{animation-delay:2.6s}.tw.d5{animation-delay:3.1s}
@keyframes shoot{0%,84%{opacity:0;transform:translate(0,0)}86%{opacity:1}96%{opacity:0;transform:translate(-620px,320px)}100%{opacity:0}}
.shoot{animation:shoot 12s linear infinite}
.shoot.s2{animation-duration:19s;animation-delay:7s}
@keyframes bob{0%,100%{transform:translateY(0px) rotate(-1.2deg)}50%{transform:translateY(9px) rotate(1.4deg)}}
.bob{animation:bob 5.6s ease-in-out infinite;transform-box:fill-box;transform-origin:center}
.bob.b2{animation-duration:7.2s;animation-delay:1.1s}
@keyframes shim{0%,100%{opacity:.22}50%{opacity:.75}}
.shim{animation:shim 4.4s ease-in-out infinite}
.shim.d1{animation-delay:1.4s}.shim.d2{animation-delay:2.7s}.shim.d3{animation-delay:3.6s}
@keyframes flick{0%,91%,100%{opacity:.9}93%{opacity:.25}95%{opacity:.85}}
.flick{animation:flick 8s linear infinite}.flick.f2{animation-delay:3.5s}
@keyframes spin{from{transform:rotate(0deg)}to{transform:rotate(360deg)}}
.wheel{animation:spin 80s linear infinite;transform-box:fill-box;transform-origin:center}
@keyframes aur{0%,100%{opacity:.34;transform:skewX(0deg)}50%{opacity:.72;transform:skewX(-4deg)}}
.aur{animation:aur 9s ease-in-out infinite;transform-box:fill-box;transform-origin:bottom}
.aur.a2{animation-duration:13s;animation-delay:2.5s}
@keyframes fall{from{transform:translateY(-140px)}to{transform:translateY(150px)}}
.fall{animation:fall 9s linear infinite}.fall.f2{animation-duration:13s;animation-delay:2s}.fall.f3{animation-duration:11s;animation-delay:5s}
@keyframes sway{0%,100%{transform:rotate(-1.4deg)}50%{transform:rotate(1.4deg)}}
.sway{animation:sway 7s ease-in-out infinite;transform-box:fill-box;transform-origin:bottom center}

@media (prefers-reduced-motion:reduce){*{animation:none!important}}
</style>
<rect width="1920" height="1280" fill="url(#sky)"/><circle cx="1167" cy="358" r="2.3" fill="#dfe8f5" class="tw d1"/>
<circle cx="1783" cy="461" r="2.1" fill="#c9d4e6" opacity="0.31"/>
<circle cx="428" cy="53" r="1.5" fill="#dfe8f5" class="tw d5"/>
<circle cx="1336" cy="210" r="1.0" fill="#c9d4e6" opacity="0.45"/>
<circle cx="79" cy="547" r="1.1" fill="#c9d4e6" opacity="0.31"/>
<circle cx="730" cy="135" r="1.4" fill="#c9d4e6" opacity="0.40"/>
<circle cx="1702" cy="409" r="2.3" fill="#c9d4e6" opacity="0.63"/>
<circle cx="1674" cy="412" r="1.2" fill="#dfe8f5" class="tw d1"/>
<circle cx="993" cy="175" r="1.9" fill="#dfe8f5" class="tw d3"/>
<circle cx="367" cy="340" r="1.2" fill="#c9d4e6" opacity="0.63"/>
<circle cx="1484" cy="477" r="1.6" fill="#dfe8f5" class="tw d3"/>
<circle cx="239" cy="433" r="1.2" fill="#c9d4e6" opacity="0.32"/>
<circle cx="994" cy="273" r="1.1" fill="#dfe8f5" class="tw d2"/>
<circle cx="1704" cy="238" r="1.1" fill="#c9d4e6" opacity="0.54"/>
<circle cx="919" cy="575" r="1.8" fill="#c9d4e6" opacity="0.57"/>
<circle cx="147" cy="193" r="1.4" fill="#c9d4e6" opacity="0.75"/>
<circle cx="1387" cy="442" r="1.8" fill="#c9d4e6" opacity="0.41"/>
<circle cx="119" cy="429" r="1.1" fill="#dfe8f5" class="tw d5"/>
<circle cx="1705" cy="231" r="2.2" fill="#c9d4e6" opacity="0.51"/>
<circle cx="1060" cy="243" r="1.3" fill="#c9d4e6" opacity="0.64"/>
<circle cx="213" cy="23" r="1.5" fill="#c9d4e6" opacity="0.64"/>
<circle cx="878" cy="341" r="1.3" fill="#dfe8f5" class="tw d2"/>
<circle cx="722" cy="565" r="1.0" fill="#c9d4e6" opacity="0.42"/>
<circle cx="1113" cy="286" r="1.8" fill="#c9d4e6" opacity="0.68"/>
<circle cx="1673" cy="47" r="1.3" fill="#c9d4e6" opacity="0.51"/>
<circle cx="547" cy="596" r="1.9" fill="#c9d4e6" opacity="0.65"/>
<circle cx="1208" cy="259" r="1.3" fill="#c9d4e6" opacity="0.63"/>
<circle cx="1384" cy="450" r="1.5" fill="#c9d4e6" opacity="0.68"/>
<circle cx="126" cy="113" r="1.7" fill="#dfe8f5" class="tw d2"/>
<circle cx="537" cy="40" r="1.9" fill="#dfe8f5" class="tw d1"/>
<circle cx="164" cy="526" r="1.0" fill="#c9d4e6" opacity="0.57"/>
<circle cx="188" cy="232" r="1.5" fill="#c9d4e6" opacity="0.67"/>
<circle cx="70" cy="48" r="1.4" fill="#dfe8f5" class="tw d3"/>
<circle cx="999" cy="404" r="1.9" fill="#c9d4e6" opacity="0.31"/>
<circle cx="87" cy="120" r="1.7" fill="#c9d4e6" opacity="0.33"/>
<circle cx="279" cy="548" r="1.5" fill="#c9d4e6" opacity="0.51"/>
<circle cx="1348" cy="432" r="2.3" fill="#dfe8f5" class="tw"/>
<circle cx="475" cy="72" r="2.4" fill="#c9d4e6" opacity="0.61"/>
<circle cx="1246" cy="156" r="2.3" fill="#dfe8f5" class="tw"/>
<circle cx="831" cy="443" r="1.7" fill="#c9d4e6" opacity="0.71"/>
<circle cx="1091" cy="333" r="1.0" fill="#c9d4e6" opacity="0.28"/>
<circle cx="934" cy="361" r="1.2" fill="#dfe8f5" class="tw d4"/>
<circle cx="1309" cy="450" r="1.9" fill="#dfe8f5" class="tw d1"/>
<circle cx="1599" cy="205" r="2.4" fill="#c9d4e6" opacity="0.56"/><circle cx="1630" cy="230" r="130" fill="url(#halo)"/>
<circle cx="1630" cy="230" r="50" fill="url(#mgrad)"/><path d="M605,946 C627,649 662,482 700,406 C738,482 773,649 795,946 Z" fill="#1a2130"/><path d="M605,946 C627,649 662,482 700,406 C738,482 773,649 795,946" fill="none" stroke="url(#accv)" stroke-width="2" opacity=".85"/><ellipse cx="700" cy="795" rx="30" ry="24" fill="#0b0f18"/><ellipse cx="700" cy="708" rx="25" ry="24" fill="#0b0f18"/><ellipse cx="700" cy="622" rx="19" ry="24" fill="#0b0f18"/><ellipse cx="700" cy="536" rx="14" ry="24" fill="#0b0f18"/><line x1="700" y1="406" x2="700" y2="380" stroke="url(#acc)" stroke-width="2.6"/><circle cx="700" cy="374" r="7" fill="none" stroke="#43e0d0" stroke-width="2"/><circle cx="700" cy="374" r="3" fill="#ffd9a0" class="tw d2"/><path d="M775,946 C795,693 826,550 860,486 C894,550 925,693 945,946 Z" fill="#1a2130"/><path d="M775,946 C795,693 826,550 860,486 C894,550 925,693 945,946" fill="none" stroke="url(#accv)" stroke-width="2" opacity=".85"/><ellipse cx="860" cy="817" rx="27" ry="21" fill="#0b0f18"/><ellipse cx="860" cy="744" rx="22" ry="21" fill="#0b0f18"/><ellipse cx="860" cy="670" rx="17" ry="21" fill="#0b0f18"/><ellipse cx="860" cy="596" rx="13" ry="21" fill="#0b0f18"/><line x1="860" y1="486" x2="860" y2="460" stroke="url(#acc)" stroke-width="2.6"/><circle cx="860" cy="454" r="7" fill="none" stroke="#43e0d0" stroke-width="2"/><path d="M895,946 C919,627 958,447 1000,366 C1042,447 1081,627 1105,946 Z" fill="#1a2130"/><path d="M895,946 C919,627 958,447 1000,366 C1042,447 1081,627 1105,946" fill="none" stroke="url(#accv)" stroke-width="2" opacity=".85"/><ellipse cx="1000" cy="784" rx="34" ry="26" fill="#0b0f18"/><ellipse cx="1000" cy="691" rx="28" ry="26" fill="#0b0f18"/><ellipse cx="1000" cy="598" rx="22" ry="26" fill="#0b0f18"/><ellipse cx="1000" cy="505" rx="15" ry="26" fill="#0b0f18"/><line x1="1000" y1="366" x2="1000" y2="340" stroke="url(#acc)" stroke-width="2.6"/><circle cx="1000" cy="334" r="7" fill="none" stroke="#43e0d0" stroke-width="2"/><circle cx="1000" cy="334" r="3" fill="#ffd9a0" class="tw d2"/><path d="M1055,946 C1075,693 1106,550 1140,486 C1174,550 1205,693 1225,946 Z" fill="#1a2130"/><path d="M1055,946 C1075,693 1106,550 1140,486 C1174,550 1205,693 1225,946" fill="none" stroke="url(#accv)" stroke-width="2" opacity=".85"/><ellipse cx="1140" cy="817" rx="27" ry="21" fill="#0b0f18"/><ellipse cx="1140" cy="744" rx="22" ry="21" fill="#0b0f18"/><ellipse cx="1140" cy="670" rx="17" ry="21" fill="#0b0f18"/><ellipse cx="1140" cy="596" rx="13" ry="21" fill="#0b0f18"/><line x1="1140" y1="486" x2="1140" y2="460" stroke="url(#acc)" stroke-width="2.6"/><circle cx="1140" cy="454" r="7" fill="none" stroke="#43e0d0" stroke-width="2"/><path d="M1205,946 C1227,649 1262,482 1300,406 C1338,482 1373,649 1395,946 Z" fill="#1a2130"/><path d="M1205,946 C1227,649 1262,482 1300,406 C1338,482 1373,649 1395,946" fill="none" stroke="url(#accv)" stroke-width="2" opacity=".85"/><ellipse cx="1300" cy="795" rx="30" ry="24" fill="#0b0f18"/><ellipse cx="1300" cy="708" rx="25" ry="24" fill="#0b0f18"/><ellipse cx="1300" cy="622" rx="19" ry="24" fill="#0b0f18"/><ellipse cx="1300" cy="536" rx="14" ry="24" fill="#0b0f18"/><line x1="1300" y1="406" x2="1300" y2="380" stroke="url(#acc)" stroke-width="2.6"/><circle cx="1300" cy="374" r="7" fill="none" stroke="#43e0d0" stroke-width="2"/><rect x="620" y="800" width="740" height="146" fill="#161d2c"/><path d="M620,800 h740" stroke="url(#acc)" stroke-width="1.6" opacity=".5"/><circle cx="990" cy="872" r="30" fill="#0b0f18" stroke="#7c5cff" stroke-width="2"/><circle cx="990" cy="866" r="16" fill="none" stroke="#43e0d0" stroke-width="1.4" opacity=".8"/><g><line x1="540" y1="946" x2="540" y2="326" stroke="#26304a" stroke-width="8"/><line x1="534" y1="946" x2="534" y2="326" stroke="#1a2238" stroke-width="3"/><line x1="540" y1="326" x2="330" y2="326" stroke="#26304a" stroke-width="5"/><line x1="540" y1="326" x2="620" y2="326" stroke="#26304a" stroke-width="5"/><line x1="540" y1="280" x2="330" y2="326" stroke="#26304a" stroke-width="2"/><line x1="540" y1="280" x2="620" y2="326" stroke="#26304a" stroke-width="2"/><line x1="540" y1="280" x2="540" y2="326" stroke="#26304a" stroke-width="3"/><rect x="620" y="318" width="26" height="16" fill="#26304a"/><line x1="372" y1="326" x2="372" y2="396" stroke="#26304a" stroke-width="2"/><rect x="364" y="396" width="16" height="12" fill="#26304a"/><circle cx="540" cy="276" r="3.6" fill="#ff6b6b" class="tw d3"/></g><g><line x1="1430" y1="946" x2="1430" y2="266" stroke="#26304a" stroke-width="8"/><line x1="1424" y1="946" x2="1424" y2="266" stroke="#1a2238" stroke-width="3"/><line x1="1430" y1="266" x2="1640" y2="266" stroke="#26304a" stroke-width="5"/><line x1="1430" y1="266" x2="1350" y2="266" stroke="#26304a" stroke-width="5"/><line x1="1430" y1="220" x2="1640" y2="266" stroke="#26304a" stroke-width="2"/><line x1="1430" y1="220" x2="1350" y2="266" stroke="#26304a" stroke-width="2"/><line x1="1430" y1="220" x2="1430" y2="266" stroke="#26304a" stroke-width="3"/><rect x="1336" y="258" width="26" height="16" fill="#26304a"/><line x1="1598" y1="266" x2="1598" y2="336" stroke="#26304a" stroke-width="2"/><rect x="1590" y="336" width="16" height="12" fill="#26304a"/><circle cx="1430" cy="216" r="3.6" fill="#ff6b6b" class="tw d3"/></g><rect x="0" y="946" width="1920" height="334" fill="#0a0e17"/><line x1="0" y1="946" x2="1920" y2="946" stroke="url(#acc)" stroke-width="2" opacity=".45"/><rect width="1920" height="1280" fill="url(#vig)"/>
<rect width="1920" height="1280" filter="url(#grain)" opacity="0.55" fill="none"/>
</svg>