<svg xmlns="http://www.w3.org/2000/svg" viewBox="0 0 1920 1280" width="1920" height="1280">
<defs>
<linearGradient id="sky" x1="0" y1="0" x2="0" y2="1">
 <stop offset="0" stop-color="#04060b"/><stop offset="1" stop-color="#0f1526"/>
</linearGradient>
<linearGradient id="acc" x1="0" y1="0" x2="1" y2="1">
 <stop offset="0" stop-color="#7c5cff"/><stop offset="1" stop-color="#43e0d0"/>
</linearGradient>
<linearGradient id="accv" x1="0" y1="0" x2="0" y2="1">
 <stop offset="0" stop-color="#7c5cff"/><stop offset="1" stop-color="#43e0d0"/>
</linearGradient>
<radialGradient id="mgrad" cx="0.35" cy="0.3" r="1">
 <stop offset="0" stop-color="#a99cff"/><stop offset="1" stop-color="#5fe6d6"/>
</radialGradient>
<radialGradient id="halo" cx="0.5" cy="0.5" r="0.5">
 <stop offset="0" stop-color="rgba(103,220,205,.34)"/><stop offset="1" stop-color="rgba(103,220,205,0)"/>
</radialGradient>
<radialGradient id="vig" cx="0.5" cy="0.46" r="0.85">
 <stop offset="0.55" stop-color="rgba(0,0,0,0)"/><stop offset="1" stop-color="rgba(0,0,4,.5)"/>
</radialGradient>
<linearGradient id="wgrad" x1="0" y1="0" x2="0" y2="1">
 <stop offset="0" stop-color="#0b111e"/><stop offset="1" stop-color="#070a12"/>
</linearGradient>
<filter id="soft" x="-40%" y="-40%" width="180%" height="180%"><feGaussianBlur stdDeviation="7"/></filter>
<filter id="soft2" x="-60%" y="-60%" width="220%" height="220%"><feGaussianBlur stdDeviation="16"/></filter>
<filter id="grain"><feTurbulence type="fractalNoise" baseFrequency="0.8" numOctaves="2" stitchTiles="stitch"/>
 <feColorMatrix type="matrix" values="0 0 0 0 1 0 0 0 0 1 0 0 0 0 1 0 0 0 0.05 0"/><feComposite operator="over" in2="SourceGraphic"/></filter>
</defs>
<style>
@keyframes tw{0%,100%{opacity:.1}50%{opacity:1}}
.tw{animation:tw 3.4s ease-in-out infinite}
.tw.d1{animation-delay:.6s}.tw.d2{animation-delay:1.2s}.tw.d3{animation-delay:1.9s}.tw.d4{animation-delay:2.6s}.tw.d5{animation-delay:3.1s}
@keyframes shoot{0%,84%{opacity:0;transform:translate(0,0)}86%{opacity:1}96%{opacity:0;transform:translate(-620px,320px)}100%{opacity:0}}
.shoot{animation:shoot 12s linear infinite}
.shoot.s2{animation-duration:19s;animation-delay:7s}
@keyframes bob{0%,100%{transform:translateY(0px) rotate(-1.2deg)}50%{transform:translateY(9px) rotate(1.4deg)}}
.bob{animation:bob 5.6s ease-in-out infinite;transform-box:fill-box;transform-origin:center}
.bob.b2{animation-duration:7.2s;animation-delay:1.1s}
@keyframes shim{0%,100%{opacity:.22}50%{opacity:.75}}
.shim{animation:shim 4.4s ease-in-out infinite}
.shim.d1{animation-delay:1.4s}.shim.d2{animation-delay:2.7s}.shim.d3{animation-delay:3.6s}
@keyframes flick{0%,91%,100%{opacity:.9}93%{opacity:.25}95%{opacity:.85}}
.flick{animation:flick 8s linear infinite}.flick.f2{animation-delay:3.5s}
@keyframes spin{from{transform:rotate(0deg)}to{transform:rotate(360deg)}}
.wheel{animation:spin 80s linear infinite;transform-box:fill-box;transform-origin:center}
@keyframes aur{0%,100%{opacity:.34;transform:skewX(0deg)}50%{opacity:.72;transform:skewX(-4deg)}}
.aur{animation:aur 9s ease-in-out infinite;transform-box:fill-box;transform-origin:bottom}
.aur.a2{animation-duration:13s;animation-delay:2.5s}
@keyframes fall{from{transform:translateY(-140px)}to{transform:translateY(150px)}}
.fall{animation:fall 9s linear infinite}.fall.f2{animation-duration:13s;animation-delay:2s}.fall.f3{animation-duration:11s;animation-delay:5s}
@keyframes sway{0%,100%{transform:rotate(-1.4deg)}50%{transform:rotate(1.4deg)}}
.sway{animation:sway 7s ease-in-out infinite;transform-box:fill-box;transform-origin:bottom center}

@media (prefers-reduced-motion:reduce){*{animation:none!important}}
</style>
<rect width="1920" height="1280" fill="url(#sky)"/><circle cx="1343" cy="182" r="1.7" fill="#dfe8f5" class="tw d2"/>
<circle cx="411" cy="44" r="1.0" fill="#dfe8f5" class="tw d2"/>
<circle cx="554" cy="488" r="1.2" fill="#dfe8f5" class="tw"/>
<circle cx="1511" cy="92" r="2.2" fill="#c9d4e6" opacity="0.78"/>
<circle cx="1597" cy="523" r="1.6" fill="#dfe8f5" class="tw d3"/>
<circle cx="1133" cy="493" r="2.3" fill="#c9d4e6" opacity="0.41"/>
<circle cx="1634" cy="341" r="2.3" fill="#c9d4e6" opacity="0.57"/>
<circle cx="280" cy="457" r="2.3" fill="#dfe8f5" class="tw d3"/>
<circle cx="1200" cy="356" r="1.4" fill="#c9d4e6" opacity="0.67"/>
<circle cx="1143" cy="184" r="1.7" fill="#c9d4e6" opacity="0.34"/>
<circle cx="935" cy="431" r="1.0" fill="#c9d4e6" opacity="0.70"/>
<circle cx="577" cy="307" r="1.7" fill="#c9d4e6" opacity="0.27"/>
<circle cx="502" cy="22" r="2.2" fill="#c9d4e6" opacity="0.35"/>
<circle cx="1279" cy="520" r="1.6" fill="#c9d4e6" opacity="0.77"/>
<circle cx="59" cy="180" r="1.4" fill="#c9d4e6" opacity="0.35"/>
<circle cx="295" cy="451" r="1.7" fill="#c9d4e6" opacity="0.62"/>
<circle cx="636" cy="134" r="1.9" fill="#c9d4e6" opacity="0.44"/>
<circle cx="1650" cy="313" r="1.1" fill="#dfe8f5" class="tw"/>
<circle cx="1237" cy="534" r="2.4" fill="#dfe8f5" class="tw d2"/>
<circle cx="1149" cy="79" r="1.4" fill="#c9d4e6" opacity="0.51"/>
<circle cx="879" cy="367" r="1.9" fill="#c9d4e6" opacity="0.71"/>
<circle cx="1042" cy="287" r="1.9" fill="#dfe8f5" class="tw d3"/>
<circle cx="1346" cy="198" r="1.7" fill="#c9d4e6" opacity="0.75"/>
<circle cx="1688" cy="545" r="2.2" fill="#c9d4e6" opacity="0.26"/>
<circle cx="873" cy="236" r="1.0" fill="#c9d4e6" opacity="0.26"/>
<circle cx="1339" cy="344" r="1.7" fill="#c9d4e6" opacity="0.62"/>
<circle cx="1296" cy="493" r="1.3" fill="#c9d4e6" opacity="0.34"/>
<circle cx="982" cy="94" r="2.1" fill="#c9d4e6" opacity="0.25"/>
<circle cx="354" cy="385" r="1.3" fill="#dfe8f5" class="tw d1"/>
<circle cx="523" cy="498" r="1.2" fill="#dfe8f5" class="tw d5"/>
<circle cx="424" cy="329" r="1.7" fill="#dfe8f5" class="tw"/>
<circle cx="1097" cy="439" r="1.4" fill="#c9d4e6" opacity="0.57"/>
<circle cx="953" cy="514" r="1.9" fill="#dfe8f5" class="tw d2"/>
<circle cx="941" cy="223" r="1.8" fill="#c9d4e6" opacity="0.79"/>
<circle cx="395" cy="182" r="2.3" fill="#c9d4e6" opacity="0.62"/>
<circle cx="968" cy="383" r="2.2" fill="#dfe8f5" class="tw d2"/>
<circle cx="153" cy="254" r="0.9" fill="#c9d4e6" opacity="0.78"/>
<circle cx="1436" cy="409" r="2.0" fill="#dfe8f5" class="tw d5"/>
<circle cx="1860" cy="36" r="1.2" fill="#dfe8f5" class="tw d5"/>
<circle cx="1680" cy="442" r="1.4" fill="#c9d4e6" opacity="0.34"/><circle cx="290" cy="190" r="114" fill="url(#halo)"/>
<circle cx="290" cy="190" r="44" fill="url(#mgrad)"/><rect x="420" y="600" width="130" height="300" fill="#3d2029"/><path d="M420,600 L485,554 L550,600 Z" fill="#3d2029" stroke="#46557f" stroke-width="1.8" opacity=".95"/><rect x="446" y="642" width="17" height="27" fill="#0e131d" opacity="1" stroke="#c9d2e0" stroke-width="1.6"/><rect x="495" y="642" width="17" height="27" fill="#0e131d" opacity="1" stroke="#c9d2e0" stroke-width="1.6"/><rect x="446" y="722" width="17" height="27" fill="#ffd9a0" opacity=".85" stroke="#c9d2e0" stroke-width="1.6"/><rect x="495" y="722" width="17" height="27" fill="#ffd9a0" opacity=".85" stroke="#c9d2e0" stroke-width="1.6"/><rect x="446" y="802" width="17" height="27" fill="#ffd9a0" opacity=".85" stroke="#c9d2e0" stroke-width="1.6"/><rect x="495" y="802" width="17" height="27" fill="#ffd9a0" opacity=".85" stroke="#c9d2e0" stroke-width="1.6"/><rect x="469" y="856" width="24" height="44" fill="#0e131d" stroke="#c9d2e0" stroke-width="1.2"/><rect x="556" y="560" width="120" height="340" fill="#3a2d1c"/><path d="M556,560 L556,548 L586,548 L586,533 L646,533 L646,548 L676,548 L676,560 Z" fill="#3a2d1c" stroke="#46557f" stroke-width="1.8" opacity=".95"/><rect x="580" y="602" width="17" height="27" fill="#ffd9a0" opacity=".85" stroke="#c9d2e0" stroke-width="1.6"/><rect x="626" y="602" width="17" height="27" fill="#ffd9a0" opacity=".85" stroke="#c9d2e0" stroke-width="1.6"/><rect x="580" y="682" width="17" height="27" fill="#ffd9a0" opacity=".85" stroke="#c9d2e0" stroke-width="1.6"/><rect x="626" y="682" width="17" height="27" fill="#ffd9a0" opacity=".85" stroke="#c9d2e0" stroke-width="1.6"/><rect x="580" y="762" width="17" height="27" fill="#0e131d" opacity="1" stroke="#c9d2e0" stroke-width="1.6"/><rect x="626" y="762" width="17" height="27" fill="#0e131d" opacity="1" stroke="#c9d2e0" stroke-width="1.6"/><rect x="602" y="856" width="24" height="44" fill="#0e131d" stroke="#c9d2e0" stroke-width="1.2"/><rect x="682" y="620" width="140" height="280" fill="#1d2a3c"/><path d="M682,620 L752,574 L822,620 Z" fill="#1d2a3c" stroke="#46557f" stroke-width="1.8" opacity=".95"/><rect x="710" y="662" width="17" height="27" fill="#ffd9a0" opacity=".85" stroke="#c9d2e0" stroke-width="1.6"/><rect x="763" y="662" width="17" height="27" fill="#ffd9a0" opacity=".85" stroke="#c9d2e0" stroke-width="1.6"/><rect x="710" y="742" width="17" height="27" fill="#0e131d" opacity="1" stroke="#c9d2e0" stroke-width="1.6"/><rect x="763" y="742" width="17" height="27" fill="#0e131d" opacity="1" stroke="#c9d2e0" stroke-width="1.6"/><rect x="710" y="822" width="17" height="27" fill="#ffd9a0" opacity=".85" stroke="#c9d2e0" stroke-width="1.6"/><rect x="763" y="822" width="17" height="27" fill="#ffd9a0" opacity=".85" stroke="#c9d2e0" stroke-width="1.6"/><rect x="735" y="856" width="24" height="44" fill="#0e131d" stroke="#c9d2e0" stroke-width="1.2"/><rect x="828" y="540" width="118" height="360" fill="#332536"/><path d="M828,540 L828,528 L858,528 L858,513 L916,513 L916,528 L946,528 L946,540 Z" fill="#332536" stroke="#46557f" stroke-width="1.8" opacity=".95"/><rect x="852" y="582" width="17" height="27" fill="#0e131d" opacity="1" stroke="#c9d2e0" stroke-width="1.6"/><rect x="896" y="582" width="17" height="27" fill="#0e131d" opacity="1" stroke="#c9d2e0" stroke-width="1.6"/><rect x="852" y="662" width="17" height="27" fill="#ffd9a0" opacity=".85" stroke="#c9d2e0" stroke-width="1.6"/><rect x="896" y="662" width="17" height="27" fill="#ffd9a0" opacity=".85" stroke="#c9d2e0" stroke-width="1.6"/><rect x="852" y="742" width="17" height="27" fill="#ffd9a0" opacity=".85" stroke="#c9d2e0" stroke-width="1.6"/><rect x="896" y="742" width="17" height="27" fill="#ffd9a0" opacity=".85" stroke="#c9d2e0" stroke-width="1.6"/><rect x="873" y="856" width="24" height="44" fill="#0e131d" stroke="#c9d2e0" stroke-width="1.2"/><rect x="952" y="590" width="132" height="310" fill="#20313a"/><path d="M952,590 L1018,544 L1084,590 Z" fill="#20313a" stroke="#46557f" stroke-width="1.8" opacity=".95"/><rect x="978" y="632" width="17" height="27" fill="#ffd9a0" opacity=".85" stroke="#c9d2e0" stroke-width="1.6"/><rect x="1029" y="632" width="17" height="27" fill="#ffd9a0" opacity=".85" stroke="#c9d2e0" stroke-width="1.6"/><rect x="978" y="712" width="17" height="27" fill="#ffd9a0" opacity=".85" stroke="#c9d2e0" stroke-width="1.6"/><rect x="1029" y="712" width="17" height="27" fill="#ffd9a0" opacity=".85" stroke="#c9d2e0" stroke-width="1.6"/><rect x="978" y="792" width="17" height="27" fill="#0e131d" opacity="1" stroke="#c9d2e0" stroke-width="1.6"/><rect x="1029" y="792" width="17" height="27" fill="#0e131d" opacity="1" stroke="#c9d2e0" stroke-width="1.6"/><rect x="1002" y="856" width="24" height="44" fill="#0e131d" stroke="#c9d2e0" stroke-width="1.2"/><rect x="1090" y="570" width="122" height="330" fill="#3d2029"/><path d="M1090,570 L1090,558 L1120,558 L1120,543 L1182,543 L1182,558 L1212,558 L1212,570 Z" fill="#3d2029" stroke="#46557f" stroke-width="1.8" opacity=".95"/><rect x="1114" y="612" width="17" height="27" fill="#ffd9a0" opacity=".85" stroke="#c9d2e0" stroke-width="1.6"/><rect x="1161" y="612" width="17" height="27" fill="#ffd9a0" opacity=".85" stroke="#c9d2e0" stroke-width="1.6"/><rect x="1114" y="692" width="17" height="27" fill="#0e131d" opacity="1" stroke="#c9d2e0" stroke-width="1.6"/><rect x="1161" y="692" width="17" height="27" fill="#0e131d" opacity="1" stroke="#c9d2e0" stroke-width="1.6"/><rect x="1114" y="772" width="17" height="27" fill="#ffd9a0" opacity=".85" stroke="#c9d2e0" stroke-width="1.6"/><rect x="1161" y="772" width="17" height="27" fill="#ffd9a0" opacity=".85" stroke="#c9d2e0" stroke-width="1.6"/><rect x="1136" y="856" width="24" height="44" fill="#0e131d" stroke="#c9d2e0" stroke-width="1.2"/><rect x="1218" y="610" width="136" height="290" fill="#2c2c22"/><path d="M1218,610 L1286,564 L1354,610 Z" fill="#2c2c22" stroke="#46557f" stroke-width="1.8" opacity=".95"/><rect x="1245" y="652" width="17" height="27" fill="#0e131d" opacity="1" stroke="#c9d2e0" stroke-width="1.6"/><rect x="1297" y="652" width="17" height="27" fill="#0e131d" opacity="1" stroke="#c9d2e0" stroke-width="1.6"/><rect x="1245" y="732" width="17" height="27" fill="#ffd9a0" opacity=".85" stroke="#c9d2e0" stroke-width="1.6"/><rect x="1297" y="732" width="17" height="27" fill="#ffd9a0" opacity=".85" stroke="#c9d2e0" stroke-width="1.6"/><rect x="1245" y="812" width="17" height="27" fill="#ffd9a0" opacity=".85" stroke="#c9d2e0" stroke-width="1.6"/><rect x="1297" y="812" width="17" height="27" fill="#ffd9a0" opacity=".85" stroke="#c9d2e0" stroke-width="1.6"/><rect x="1270" y="856" width="24" height="44" fill="#0e131d" stroke="#c9d2e0" stroke-width="1.2"/><rect x="400" y="900" width="1000" height="16" fill="#0d1322"/><line x1="400" y1="900" x2="1400" y2="900" stroke="url(#acc)" stroke-width="1.8" opacity=".6"/><line x1="440" y1="900" x2="440" y2="854" stroke="#222b42" stroke-width="4"/><rect x="434" y="840" width="12" height="14" rx="2" fill="#222b42"/><circle cx="440" cy="847" r="3.4" fill="#ffd9a0" class="flick" opacity=".9"/><circle cx="440" cy="847" r="9" fill="#ffd9a0" opacity=".12"/><line x1="900" y1="900" x2="900" y2="854" stroke="#222b42" stroke-width="4"/><rect x="894" y="840" width="12" height="14" rx="2" fill="#222b42"/><circle cx="900" cy="847" r="3.4" fill="#ffd9a0" class="flick" opacity=".9"/><circle cx="900" cy="847" r="9" fill="#ffd9a0" opacity=".12"/><line x1="1360" y1="900" x2="1360" y2="854" stroke="#222b42" stroke-width="4"/><rect x="1354" y="840" width="12" height="14" rx="2" fill="#222b42"/><circle cx="1360" cy="847" r="3.4" fill="#ffd9a0" class="flick" opacity=".9"/><circle cx="1360" cy="847" r="9" fill="#ffd9a0" opacity=".12"/><rect x="0" y="916" width="1920" height="364" fill="url(#wgrad)"/>
<line x1="0" y1="916" x2="1920" y2="916" stroke="url(#acc)" stroke-width="2.4" opacity=".55"/>
<line x1="963" y1="1064" x2="1028" y2="1064" stroke="#43e0d0" stroke-width="2" class="shim d2" opacity=".3"/>
<line x1="1416" y1="1127" x2="1461" y2="1127" stroke="#43e0d0" stroke-width="2" class="shim d2" opacity=".3"/>
<line x1="1189" y1="1044" x2="1287" y2="1044" stroke="#43e0d0" stroke-width="2" class="shim d2" opacity=".3"/>
<line x1="149" y1="1076" x2="217" y2="1076" stroke="#43e0d0" stroke-width="2" class="shim d3" opacity=".3"/>
<line x1="1121" y1="964" x2="1244" y2="964" stroke="#43e0d0" stroke-width="2" class="shim d1" opacity=".3"/>
<line x1="836" y1="1121" x2="967" y2="1121" stroke="#43e0d0" stroke-width="2" class="shim d1" opacity=".3"/>
<line x1="586" y1="1123" x2="645" y2="1123" stroke="#43e0d0" stroke-width="2" class="shim d1" opacity=".3"/>
<line x1="450" y1="1027" x2="551" y2="1027" stroke="#7c5cff" stroke-width="2" class="shim d1" opacity=".3"/>
<line x1="731" y1="1151" x2="880" y2="1151" stroke="#7c5cff" stroke-width="2" class="shim d2" opacity=".3"/>
<line x1="1300" y1="1220" x2="1406" y2="1220" stroke="#7c5cff" stroke-width="2" class="shim" opacity=".3"/><g class="bob b2">
<path d="M141,970 L339,970 L317,1000 L163,1000 Z" fill="#161d2c" stroke="url(#acc)" stroke-width="1.8"/>
<line x1="240" y1="970" x2="240" y2="670" stroke="#222b42" stroke-width="6"/>
<line x1="240" y1="670" x2="174" y2="950" stroke="#313d60" stroke-width="1.8"/>
<line x1="240" y1="670" x2="306" y2="950" stroke="#313d60" stroke-width="1.8"/>
<line x1="178" y1="844" x2="302" y2="844" stroke="#222b42" stroke-width="4"/>
<line x1="198" y1="745" x2="282" y2="745" stroke="#222b42" stroke-width="3"/>
<circle cx="240" cy="670" r="3" fill="#ffd9a0" class="tw d2"/></g><g class="bob b2">
<path d="M1448,970 L1672,970 L1648,1000 L1472,1000 Z" fill="#161d2c" stroke="url(#acc)" stroke-width="1.8"/>
<line x1="1560" y1="970" x2="1560" y2="630" stroke="#222b42" stroke-width="6"/>
<line x1="1560" y1="630" x2="1485" y2="950" stroke="#313d60" stroke-width="1.8"/>
<line x1="1560" y1="630" x2="1635" y2="950" stroke="#313d60" stroke-width="1.8"/>
<line x1="1490" y1="827" x2="1630" y2="827" stroke="#222b42" stroke-width="4"/>
<line x1="1512" y1="715" x2="1608" y2="715" stroke="#222b42" stroke-width="3"/>
<circle cx="1560" cy="630" r="3" fill="#ffd9a0" class="tw d2"/></g><g class="bob b2">
<path d="M1724,970 L1876,970 L1860,1000 L1740,1000 Z" fill="#161d2c" stroke="url(#acc)" stroke-width="1.8"/>
<line x1="1800" y1="970" x2="1800" y2="710" stroke="#222b42" stroke-width="6"/>
<line x1="1800" y1="710" x2="1749" y2="950" stroke="#313d60" stroke-width="1.8"/>
<line x1="1800" y1="710" x2="1851" y2="950" stroke="#313d60" stroke-width="1.8"/>
<line x1="1752" y1="861" x2="1848" y2="861" stroke="#222b42" stroke-width="4"/>
<line x1="1768" y1="775" x2="1832" y2="775" stroke="#222b42" stroke-width="3"/>
<circle cx="1800" cy="710" r="3" fill="#ffd9a0" class="tw d2"/></g><rect width="1920" height="1280" fill="url(#vig)"/>
<rect width="1920" height="1280" filter="url(#grain)" opacity="0.55" fill="none"/>
</svg>