<svg xmlns="http://www.w3.org/2000/svg" viewBox="0 0 1920 1280" width="1920" height="1280">
<defs>
<linearGradient id="sky" x1="0" y1="0" x2="0" y2="1">
 <stop offset="0" stop-color="#04060b"/><stop offset="1" stop-color="#0f1324"/>
</linearGradient>
<linearGradient id="acc" x1="0" y1="0" x2="1" y2="1">
 <stop offset="0" stop-color="#7c5cff"/><stop offset="1" stop-color="#43e0d0"/>
</linearGradient>
<linearGradient id="accv" x1="0" y1="0" x2="0" y2="1">
 <stop offset="0" stop-color="#7c5cff"/><stop offset="1" stop-color="#43e0d0"/>
</linearGradient>
<radialGradient id="mgrad" cx="0.35" cy="0.3" r="1">
 <stop offset="0" stop-color="#a99cff"/><stop offset="1" stop-color="#5fe6d6"/>
</radialGradient>
<radialGradient id="halo" cx="0.5" cy="0.5" r="0.5">
 <stop offset="0" stop-color="rgba(103,220,205,.34)"/><stop offset="1" stop-color="rgba(103,220,205,0)"/>
</radialGradient>
<radialGradient id="vig" cx="0.5" cy="0.46" r="0.85">
 <stop offset="0.55" stop-color="rgba(0,0,0,0)"/><stop offset="1" stop-color="rgba(0,0,4,.5)"/>
</radialGradient>
<linearGradient id="wgrad" x1="0" y1="0" x2="0" y2="1">
 <stop offset="0" stop-color="#0b111e"/><stop offset="1" stop-color="#070a12"/>
</linearGradient>
<filter id="soft" x="-40%" y="-40%" width="180%" height="180%"><feGaussianBlur stdDeviation="7"/></filter>
<filter id="soft2" x="-60%" y="-60%" width="220%" height="220%"><feGaussianBlur stdDeviation="16"/></filter>
<filter id="grain"><feTurbulence type="fractalNoise" baseFrequency="0.8" numOctaves="2" stitchTiles="stitch"/>
 <feColorMatrix type="matrix" values="0 0 0 0 1 0 0 0 0 1 0 0 0 0 1 0 0 0 0.05 0"/><feComposite operator="over" in2="SourceGraphic"/></filter>
</defs>
<style>
@keyframes tw{0%,100%{opacity:.1}50%{opacity:1}}
.tw{animation:tw 3.4s ease-in-out infinite}
.tw.d1{animation-delay:.6s}.tw.d2{animation-delay:1.2s}.tw.d3{animation-delay:1.9s}.tw.d4{animation-delay:2.6s}.tw.d5{animation-delay:3.1s}
@keyframes shoot{0%,84%{opacity:0;transform:translate(0,0)}86%{opacity:1}96%{opacity:0;transform:translate(-620px,320px)}100%{opacity:0}}
.shoot{animation:shoot 12s linear infinite}
.shoot.s2{animation-duration:19s;animation-delay:7s}
@keyframes bob{0%,100%{transform:translateY(0px) rotate(-1.2deg)}50%{transform:translateY(9px) rotate(1.4deg)}}
.bob{animation:bob 5.6s ease-in-out infinite;transform-box:fill-box;transform-origin:center}
.bob.b2{animation-duration:7.2s;animation-delay:1.1s}
@keyframes shim{0%,100%{opacity:.22}50%{opacity:.75}}
.shim{animation:shim 4.4s ease-in-out infinite}
.shim.d1{animation-delay:1.4s}.shim.d2{animation-delay:2.7s}.shim.d3{animation-delay:3.6s}
@keyframes flick{0%,91%,100%{opacity:.9}93%{opacity:.25}95%{opacity:.85}}
.flick{animation:flick 8s linear infinite}.flick.f2{animation-delay:3.5s}
@keyframes spin{from{transform:rotate(0deg)}to{transform:rotate(360deg)}}
.wheel{animation:spin 80s linear infinite;transform-box:fill-box;transform-origin:center}
@keyframes aur{0%,100%{opacity:.34;transform:skewX(0deg)}50%{opacity:.72;transform:skewX(-4deg)}}
.aur{animation:aur 9s ease-in-out infinite;transform-box:fill-box;transform-origin:bottom}
.aur.a2{animation-duration:13s;animation-delay:2.5s}
@keyframes fall{from{transform:translateY(-140px)}to{transform:translateY(150px)}}
.fall{animation:fall 9s linear infinite}.fall.f2{animation-duration:13s;animation-delay:2s}.fall.f3{animation-duration:11s;animation-delay:5s}
@keyframes sway{0%,100%{transform:rotate(-1.4deg)}50%{transform:rotate(1.4deg)}}
.sway{animation:sway 7s ease-in-out infinite;transform-box:fill-box;transform-origin:bottom center}

@media (prefers-reduced-motion:reduce){*{animation:none!important}}
</style>
<rect width="1920" height="1280" fill="url(#sky)"/><circle cx="1272" cy="204" r="1.7" fill="#c9d4e6" opacity="0.31"/>
<circle cx="770" cy="471" r="2.1" fill="#c9d4e6" opacity="0.69"/>
<circle cx="1456" cy="559" r="1.7" fill="#c9d4e6" opacity="0.62"/>
<circle cx="1673" cy="127" r="1.1" fill="#c9d4e6" opacity="0.34"/>
<circle cx="812" cy="421" r="2.4" fill="#c9d4e6" opacity="0.56"/>
<circle cx="489" cy="286" r="1.6" fill="#c9d4e6" opacity="0.76"/>
<circle cx="1155" cy="578" r="1.6" fill="#c9d4e6" opacity="0.76"/>
<circle cx="1526" cy="467" r="1.7" fill="#c9d4e6" opacity="0.47"/>
<circle cx="598" cy="201" r="1.8" fill="#dfe8f5" class="tw d1"/>
<circle cx="796" cy="389" r="2.0" fill="#c9d4e6" opacity="0.41"/>
<circle cx="948" cy="79" r="1.0" fill="#c9d4e6" opacity="0.67"/>
<circle cx="681" cy="59" r="1.7" fill="#c9d4e6" opacity="0.40"/>
<circle cx="1729" cy="557" r="1.8" fill="#c9d4e6" opacity="0.69"/>
<circle cx="346" cy="47" r="1.5" fill="#c9d4e6" opacity="0.28"/>
<circle cx="1493" cy="508" r="1.5" fill="#c9d4e6" opacity="0.74"/>
<circle cx="183" cy="536" r="1.0" fill="#c9d4e6" opacity="0.30"/>
<circle cx="77" cy="490" r="2.4" fill="#c9d4e6" opacity="0.31"/>
<circle cx="425" cy="318" r="1.4" fill="#dfe8f5" class="tw"/>
<circle cx="1433" cy="359" r="1.2" fill="#c9d4e6" opacity="0.69"/>
<circle cx="1000" cy="278" r="1.4" fill="#dfe8f5" class="tw d2"/>
<circle cx="1769" cy="592" r="2.0" fill="#c9d4e6" opacity="0.43"/>
<circle cx="1001" cy="514" r="2.2" fill="#c9d4e6" opacity="0.63"/>
<circle cx="1426" cy="224" r="2.3" fill="#c9d4e6" opacity="0.50"/>
<circle cx="319" cy="354" r="1.2" fill="#c9d4e6" opacity="0.69"/>
<circle cx="1496" cy="124" r="1.9" fill="#dfe8f5" class="tw d5"/>
<circle cx="236" cy="109" r="2.0" fill="#c9d4e6" opacity="0.33"/>
<circle cx="1091" cy="129" r="1.5" fill="#c9d4e6" opacity="0.37"/>
<circle cx="680" cy="129" r="2.2" fill="#c9d4e6" opacity="0.31"/>
<circle cx="280" cy="585" r="1.1" fill="#c9d4e6" opacity="0.49"/>
<circle cx="1508" cy="583" r="1.1" fill="#dfe8f5" class="tw d5"/>
<circle cx="1784" cy="336" r="1.3" fill="#c9d4e6" opacity="0.66"/>
<circle cx="1046" cy="320" r="1.1" fill="#c9d4e6" opacity="0.66"/>
<circle cx="1084" cy="297" r="0.9" fill="#c9d4e6" opacity="0.34"/>
<circle cx="43" cy="450" r="2.0" fill="#c9d4e6" opacity="0.40"/>
<circle cx="666" cy="459" r="1.8" fill="#dfe8f5" class="tw"/>
<circle cx="667" cy="481" r="2.1" fill="#c9d4e6" opacity="0.59"/>
<circle cx="1291" cy="89" r="2.3" fill="#dfe8f5" class="tw d5"/>
<circle cx="448" cy="68" r="1.7" fill="#dfe8f5" class="tw d3"/>
<circle cx="808" cy="147" r="1.8" fill="#c9d4e6" opacity="0.78"/>
<circle cx="718" cy="57" r="2.3" fill="#c9d4e6" opacity="0.41"/>
<circle cx="1432" cy="574" r="2.1" fill="#c9d4e6" opacity="0.29"/>
<circle cx="423" cy="33" r="0.9" fill="#c9d4e6" opacity="0.78"/><circle cx="1620" cy="220" r="125" fill="url(#halo)"/>
<circle cx="1620" cy="220" r="48" fill="url(#mgrad)"/><path d="M280,946 L280,760 Q700,690 1240,740 L1240,946 Z" fill="#10141f"/><rect x="560" y="480" width="120" height="290" rx="14" fill="#1c2434"/><path d="M545,485 L620,380 L695,485 Z" fill="#171e2c"/><path d="M545,485 L620,380 L695,485" fill="none" stroke="url(#acc)" stroke-width="2.2" opacity=".85"/><rect x="560" y="480" width="120" height="290" rx="14" fill="none" stroke="url(#acc)" stroke-width="2" opacity=".7"/><rect x="600" y="540" width="14" height="22" fill="#ffd9a0" opacity=".85" class="flick"/><rect x="600" y="640" width="14" height="22" fill="#ffd9a0" opacity=".85" /><rect x="720" y="600" width="300" height="180" fill="#1a2130"/><path d="M720,600 L870,530 L1020,600 Z" fill="#171e2c" stroke="url(#acc)" stroke-width="2"/><rect x="790" y="650" width="15" height="24" fill="#ffd9a0" opacity=".85" class="flick"/><rect x="920" y="650" width="15" height="24" fill="#ffd9a0" opacity=".85" /><rect x="380" y="700" width="760" height="70" fill="#171e2c"/><rect x="392" y="686" width="26" height="16" fill="#171e2c"/><rect x="456" y="686" width="26" height="16" fill="#171e2c"/><rect x="520" y="686" width="26" height="16" fill="#171e2c"/><rect x="584" y="686" width="26" height="16" fill="#171e2c"/><rect x="648" y="686" width="26" height="16" fill="#171e2c"/><rect x="712" y="686" width="26" height="16" fill="#171e2c"/><rect x="776" y="686" width="26" height="16" fill="#171e2c"/><rect x="840" y="686" width="26" height="16" fill="#171e2c"/><rect x="904" y="686" width="26" height="16" fill="#171e2c"/><rect x="968" y="686" width="26" height="16" fill="#171e2c"/><rect x="1032" y="686" width="26" height="16" fill="#171e2c"/><rect x="1096" y="686" width="26" height="16" fill="#171e2c"/><rect x="180" y="726" width="190" height="220" fill="#161d2c"/><path d="M168,726 L275,662 L382,726 Z" fill="#1a2130" stroke="url(#acc)" stroke-width="1.8" opacity=".9"/><path d="M198,756 L352,906 M352,756 L198,906 M180,836 L370,836" stroke="#26304a" stroke-width="3.4" opacity=".8"/><rect x="260" y="792" width="15" height="22" fill="#ffd9a0" opacity=".85" class="flick"/><rect x="400" y="696" width="170" height="250" fill="#161d2c"/><path d="M388,696 L485,632 L582,696 Z" fill="#1a2130" stroke="url(#acc)" stroke-width="1.8" opacity=".9"/><path d="M418,726 L552,906 M552,726 L418,906 M400,821 L570,821" stroke="#26304a" stroke-width="3.4" opacity=".8"/><rect x="471" y="771" width="15" height="22" fill="#ffd9a0" opacity=".85" /><rect x="1300" y="706" width="200" height="240" fill="#161d2c"/><path d="M1288,706 L1400,642 L1512,706 Z" fill="#1a2130" stroke="url(#acc)" stroke-width="1.8" opacity=".9"/><path d="M1318,736 L1482,906 M1482,736 L1318,906 M1300,826 L1500,826" stroke="#26304a" stroke-width="3.4" opacity=".8"/><rect x="1384" y="778" width="15" height="22" fill="#ffd9a0" opacity=".85" class="flick"/><rect x="1540" y="736" width="180" height="210" fill="#161d2c"/><path d="M1528,736 L1630,672 L1732,736 Z" fill="#1a2130" stroke="url(#acc)" stroke-width="1.8" opacity=".9"/><path d="M1558,766 L1702,906 M1702,766 L1558,906 M1540,841 L1720,841" stroke="#26304a" stroke-width="3.4" opacity=".8"/><rect x="1616" y="799" width="15" height="22" fill="#ffd9a0" opacity=".85" /><rect x="0" y="946" width="1920" height="334" fill="#0a0e17"/><line x1="0" y1="946" x2="1920" y2="946" stroke="url(#acc)" stroke-width="2" opacity=".45"/><rect width="1920" height="1280" fill="url(#vig)"/>
<rect width="1920" height="1280" filter="url(#grain)" opacity="0.55" fill="none"/>
</svg>