<svg xmlns="http://www.w3.org/2000/svg" viewBox="0 0 1920 1280" width="1920" height="1280">
<defs>
<linearGradient id="sky" x1="0" y1="0" x2="0" y2="1">
 <stop offset="0" stop-color="#05070d"/><stop offset="1" stop-color="#101627"/>
</linearGradient>
<linearGradient id="acc" x1="0" y1="0" x2="1" y2="1">
 <stop offset="0" stop-color="#7c5cff"/><stop offset="1" stop-color="#43e0d0"/>
</linearGradient>
<linearGradient id="accv" x1="0" y1="0" x2="0" y2="1">
 <stop offset="0" stop-color="#7c5cff"/><stop offset="1" stop-color="#43e0d0"/>
</linearGradient>
<radialGradient id="mgrad" cx="0.35" cy="0.3" r="1">
 <stop offset="0" stop-color="#a99cff"/><stop offset="1" stop-color="#5fe6d6"/>
</radialGradient>
<radialGradient id="halo" cx="0.5" cy="0.5" r="0.5">
 <stop offset="0" stop-color="rgba(103,220,205,.34)"/><stop offset="1" stop-color="rgba(103,220,205,0)"/>
</radialGradient>
<radialGradient id="vig" cx="0.5" cy="0.46" r="0.85">
 <stop offset="0.55" stop-color="rgba(0,0,0,0)"/><stop offset="1" stop-color="rgba(0,0,4,.5)"/>
</radialGradient>
<linearGradient id="wgrad" x1="0" y1="0" x2="0" y2="1">
 <stop offset="0" stop-color="#0b111e"/><stop offset="1" stop-color="#070a12"/>
</linearGradient>
<filter id="soft" x="-40%" y="-40%" width="180%" height="180%"><feGaussianBlur stdDeviation="7"/></filter>
<filter id="soft2" x="-60%" y="-60%" width="220%" height="220%"><feGaussianBlur stdDeviation="16"/></filter>
<filter id="grain"><feTurbulence type="fractalNoise" baseFrequency="0.8" numOctaves="2" stitchTiles="stitch"/>
 <feColorMatrix type="matrix" values="0 0 0 0 1 0 0 0 0 1 0 0 0 0 1 0 0 0 0.05 0"/><feComposite operator="over" in2="SourceGraphic"/></filter>
</defs>
<style>
@keyframes tw{0%,100%{opacity:.1}50%{opacity:1}}
.tw{animation:tw 3.4s ease-in-out infinite}
.tw.d1{animation-delay:.6s}.tw.d2{animation-delay:1.2s}.tw.d3{animation-delay:1.9s}.tw.d4{animation-delay:2.6s}.tw.d5{animation-delay:3.1s}
@keyframes shoot{0%,84%{opacity:0;transform:translate(0,0)}86%{opacity:1}96%{opacity:0;transform:translate(-620px,320px)}100%{opacity:0}}
.shoot{animation:shoot 12s linear infinite}
.shoot.s2{animation-duration:19s;animation-delay:7s}
@keyframes bob{0%,100%{transform:translateY(0px) rotate(-1.2deg)}50%{transform:translateY(9px) rotate(1.4deg)}}
.bob{animation:bob 5.6s ease-in-out infinite;transform-box:fill-box;transform-origin:center}
.bob.b2{animation-duration:7.2s;animation-delay:1.1s}
@keyframes shim{0%,100%{opacity:.22}50%{opacity:.75}}
.shim{animation:shim 4.4s ease-in-out infinite}
.shim.d1{animation-delay:1.4s}.shim.d2{animation-delay:2.7s}.shim.d3{animation-delay:3.6s}
@keyframes flick{0%,91%,100%{opacity:.9}93%{opacity:.25}95%{opacity:.85}}
.flick{animation:flick 8s linear infinite}.flick.f2{animation-delay:3.5s}
@keyframes spin{from{transform:rotate(0deg)}to{transform:rotate(360deg)}}
.wheel{animation:spin 80s linear infinite;transform-box:fill-box;transform-origin:center}
@keyframes aur{0%,100%{opacity:.34;transform:skewX(0deg)}50%{opacity:.72;transform:skewX(-4deg)}}
.aur{animation:aur 9s ease-in-out infinite;transform-box:fill-box;transform-origin:bottom}
.aur.a2{animation-duration:13s;animation-delay:2.5s}
@keyframes fall{from{transform:translateY(-140px)}to{transform:translateY(150px)}}
.fall{animation:fall 9s linear infinite}.fall.f2{animation-duration:13s;animation-delay:2s}.fall.f3{animation-duration:11s;animation-delay:5s}
@keyframes sway{0%,100%{transform:rotate(-1.4deg)}50%{transform:rotate(1.4deg)}}
.sway{animation:sway 7s ease-in-out infinite;transform-box:fill-box;transform-origin:bottom center}

@media (prefers-reduced-motion:reduce){*{animation:none!important}}
</style>
<rect width="1920" height="1280" fill="url(#sky)"/><circle cx="1684" cy="365" r="1.7" fill="#dfe8f5" class="tw d3"/>
<circle cx="595" cy="52" r="1.3" fill="#dfe8f5" class="tw d1"/>
<circle cx="485" cy="415" r="1.2" fill="#c9d4e6" opacity="0.55"/>
<circle cx="398" cy="343" r="1.3" fill="#c9d4e6" opacity="0.53"/>
<circle cx="1685" cy="323" r="1.7" fill="#c9d4e6" opacity="0.26"/>
<circle cx="600" cy="501" r="1.0" fill="#dfe8f5" class="tw d3"/>
<circle cx="166" cy="72" r="2.3" fill="#dfe8f5" class="tw d4"/>
<circle cx="438" cy="297" r="1.6" fill="#dfe8f5" class="tw d5"/>
<circle cx="513" cy="64" r="1.5" fill="#c9d4e6" opacity="0.53"/>
<circle cx="1399" cy="625" r="1.3" fill="#c9d4e6" opacity="0.48"/>
<circle cx="1168" cy="113" r="2.4" fill="#c9d4e6" opacity="0.25"/>
<circle cx="493" cy="672" r="2.3" fill="#dfe8f5" class="tw d4"/>
<circle cx="926" cy="476" r="1.9" fill="#c9d4e6" opacity="0.52"/>
<circle cx="623" cy="176" r="2.3" fill="#c9d4e6" opacity="0.70"/>
<circle cx="1847" cy="94" r="1.2" fill="#c9d4e6" opacity="0.57"/>
<circle cx="1749" cy="140" r="2.2" fill="#dfe8f5" class="tw d2"/>
<circle cx="240" cy="392" r="1.5" fill="#c9d4e6" opacity="0.27"/>
<circle cx="679" cy="131" r="1.6" fill="#c9d4e6" opacity="0.59"/>
<circle cx="921" cy="508" r="2.0" fill="#dfe8f5" class="tw d1"/>
<circle cx="671" cy="428" r="1.2" fill="#c9d4e6" opacity="0.52"/>
<circle cx="69" cy="108" r="1.3" fill="#dfe8f5" class="tw d5"/>
<circle cx="974" cy="95" r="1.0" fill="#dfe8f5" class="tw d4"/>
<circle cx="1088" cy="483" r="1.8" fill="#c9d4e6" opacity="0.77"/>
<circle cx="1080" cy="336" r="1.8" fill="#c9d4e6" opacity="0.40"/>
<circle cx="574" cy="381" r="1.7" fill="#c9d4e6" opacity="0.53"/>
<circle cx="134" cy="560" r="1.1" fill="#dfe8f5" class="tw d2"/>
<circle cx="562" cy="377" r="1.7" fill="#c9d4e6" opacity="0.76"/>
<circle cx="1521" cy="210" r="2.1" fill="#c9d4e6" opacity="0.59"/>
<circle cx="475" cy="262" r="1.9" fill="#dfe8f5" class="tw"/>
<circle cx="1536" cy="109" r="1.8" fill="#c9d4e6" opacity="0.67"/>
<circle cx="65" cy="504" r="1.5" fill="#dfe8f5" class="tw d1"/>
<circle cx="185" cy="176" r="2.3" fill="#c9d4e6" opacity="0.29"/>
<circle cx="463" cy="157" r="1.5" fill="#c9d4e6" opacity="0.26"/>
<circle cx="1477" cy="575" r="0.9" fill="#dfe8f5" class="tw d2"/>
<circle cx="1455" cy="174" r="1.3" fill="#c9d4e6" opacity="0.34"/>
<circle cx="509" cy="40" r="2.0" fill="#c9d4e6" opacity="0.48"/>
<circle cx="578" cy="300" r="2.4" fill="#c9d4e6" opacity="0.30"/>
<circle cx="1108" cy="68" r="1.1" fill="#c9d4e6" opacity="0.36"/>
<circle cx="471" cy="53" r="1.0" fill="#dfe8f5" class="tw d1"/>
<circle cx="1493" cy="295" r="1.6" fill="#dfe8f5" class="tw d3"/>
<circle cx="1047" cy="577" r="1.3" fill="#dfe8f5" class="tw d4"/>
<circle cx="1823" cy="51" r="2.3" fill="#c9d4e6" opacity="0.75"/>
<circle cx="513" cy="675" r="2.2" fill="#c9d4e6" opacity="0.60"/>
<circle cx="1119" cy="472" r="1.4" fill="#dfe8f5" class="tw d3"/>
<circle cx="212" cy="640" r="1.6" fill="#c9d4e6" opacity="0.76"/>
<circle cx="847" cy="58" r="2.3" fill="#dfe8f5" class="tw"/><g class="shoot s2" opacity="0"><line x1="500" y1="150" x2="630" y2="84" stroke="url(#acc)" stroke-width="3" stroke-linecap="round"/>
<circle cx="500" cy="150" r="3.6" fill="#eaf2ff"/></g><circle cx="400" cy="250" r="146" fill="url(#halo)"/>
<circle cx="400" cy="250" r="56" fill="url(#mgrad)"/><path d="M0,950 L0,810 L240,720 L480,790 L700,740 L900,800 L1000,950 Z" fill="#141a27" opacity=".8"/><rect x="1060" y="700" width="230" height="250" fill="#1c2434"/><line x1="1060" y1="736" x2="1290" y2="736" stroke="#141b2c" stroke-width="1.6" opacity=".9"/><line x1="1060" y1="771" x2="1290" y2="771" stroke="#141b2c" stroke-width="1.6" opacity=".9"/><line x1="1060" y1="807" x2="1290" y2="807" stroke="#141b2c" stroke-width="1.6" opacity=".9"/><line x1="1060" y1="843" x2="1290" y2="843" stroke="#141b2c" stroke-width="1.6" opacity=".9"/><line x1="1060" y1="879" x2="1290" y2="879" stroke="#141b2c" stroke-width="1.6" opacity=".9"/><line x1="1060" y1="914" x2="1290" y2="914" stroke="#141b2c" stroke-width="1.6" opacity=".9"/><line x1="1177" y1="700" x2="1177" y2="736" stroke="#141b2c" stroke-width="1.3" opacity=".65"/><line x1="1112" y1="736" x2="1112" y2="771" stroke="#141b2c" stroke-width="1.3" opacity=".65"/><line x1="1225" y1="736" x2="1225" y2="771" stroke="#141b2c" stroke-width="1.3" opacity=".65"/><line x1="1181" y1="771" x2="1181" y2="807" stroke="#141b2c" stroke-width="1.3" opacity=".65"/><line x1="1124" y1="807" x2="1124" y2="843" stroke="#141b2c" stroke-width="1.3" opacity=".65"/><line x1="1235" y1="807" x2="1235" y2="843" stroke="#141b2c" stroke-width="1.3" opacity=".65"/><line x1="1174" y1="843" x2="1174" y2="879" stroke="#141b2c" stroke-width="1.3" opacity=".65"/><line x1="1124" y1="879" x2="1124" y2="914" stroke="#141b2c" stroke-width="1.3" opacity=".65"/><line x1="1235" y1="879" x2="1235" y2="914" stroke="#141b2c" stroke-width="1.3" opacity=".65"/><line x1="1172" y1="914" x2="1172" y2="950" stroke="#141b2c" stroke-width="1.3" opacity=".65"/><path d="M1058,704 L1058,678 L1066,688 L1075,678 L1075,704 Z" fill="#1c2434"/><path d="M1087,704 L1087,678 L1096,688 L1104,678 L1104,704 Z" fill="#1c2434"/><path d="M1116,704 L1116,678 L1124,688 L1133,678 L1133,704 Z" fill="#1c2434"/><path d="M1145,704 L1145,678 L1154,688 L1162,678 L1162,704 Z" fill="#1c2434"/><path d="M1174,704 L1174,678 L1182,688 L1191,678 L1191,704 Z" fill="#1c2434"/><path d="M1203,704 L1203,678 L1212,688 L1220,678 L1220,704 Z" fill="#1c2434"/><path d="M1232,704 L1232,678 L1240,688 L1249,678 L1249,704 Z" fill="#1c2434"/><path d="M1261,704 L1261,678 L1270,688 L1278,678 L1278,704 Z" fill="#1c2434"/><line x1="1060" y1="700" x2="1290" y2="700" stroke="#46557f" stroke-width="2" opacity=".7"/><rect x="1300" y="460" width="170" height="490" fill="#232c40"/><line x1="1300" y1="498" x2="1470" y2="498" stroke="#1a2233" stroke-width="1.6" opacity=".9"/><line x1="1300" y1="535" x2="1470" y2="535" stroke="#1a2233" stroke-width="1.6" opacity=".9"/><line x1="1300" y1="573" x2="1470" y2="573" stroke="#1a2233" stroke-width="1.6" opacity=".9"/><line x1="1300" y1="611" x2="1470" y2="611" stroke="#1a2233" stroke-width="1.6" opacity=".9"/><line x1="1300" y1="648" x2="1470" y2="648" stroke="#1a2233" stroke-width="1.6" opacity=".9"/><line x1="1300" y1="686" x2="1470" y2="686" stroke="#1a2233" stroke-width="1.6" opacity=".9"/><line x1="1300" y1="724" x2="1470" y2="724" stroke="#1a2233" stroke-width="1.6" opacity=".9"/><line x1="1300" y1="762" x2="1470" y2="762" stroke="#1a2233" stroke-width="1.6" opacity=".9"/><line x1="1300" y1="799" x2="1470" y2="799" stroke="#1a2233" stroke-width="1.6" opacity=".9"/><line x1="1300" y1="837" x2="1470" y2="837" stroke="#1a2233" stroke-width="1.6" opacity=".9"/><line x1="1300" y1="875" x2="1470" y2="875" stroke="#1a2233" stroke-width="1.6" opacity=".9"/><line x1="1300" y1="912" x2="1470" y2="912" stroke="#1a2233" stroke-width="1.6" opacity=".9"/><line x1="1390" y1="460" x2="1390" y2="498" stroke="#1a2233" stroke-width="1.3" opacity=".65"/><line x1="1348" y1="498" x2="1348" y2="535" stroke="#1a2233" stroke-width="1.3" opacity=".65"/><line x1="1420" y1="498" x2="1420" y2="535" stroke="#1a2233" stroke-width="1.3" opacity=".65"/><line x1="1383" y1="535" x2="1383" y2="573" stroke="#1a2233" stroke-width="1.3" opacity=".65"/><line x1="1343" y1="573" x2="1343" y2="611" stroke="#1a2233" stroke-width="1.3" opacity=".65"/><line x1="1420" y1="573" x2="1420" y2="611" stroke="#1a2233" stroke-width="1.3" opacity=".65"/><line x1="1392" y1="611" x2="1392" y2="648" stroke="#1a2233" stroke-width="1.3" opacity=".65"/><line x1="1342" y1="648" x2="1342" y2="686" stroke="#1a2233" stroke-width="1.3" opacity=".65"/><line x1="1427" y1="648" x2="1427" y2="686" stroke="#1a2233" stroke-width="1.3" opacity=".65"/><line x1="1379" y1="686" x2="1379" y2="724" stroke="#1a2233" stroke-width="1.3" opacity=".65"/><line x1="1338" y1="724" x2="1338" y2="762" stroke="#1a2233" stroke-width="1.3" opacity=".65"/><line x1="1431" y1="724" x2="1431" y2="762" stroke="#1a2233" stroke-width="1.3" opacity=".65"/><line x1="1380" y1="762" x2="1380" y2="799" stroke="#1a2233" stroke-width="1.3" opacity=".65"/><line x1="1336" y1="799" x2="1336" y2="837" stroke="#1a2233" stroke-width="1.3" opacity=".65"/><line x1="1430" y1="799" x2="1430" y2="837" stroke="#1a2233" stroke-width="1.3" opacity=".65"/><line x1="1388" y1="837" x2="1388" y2="875" stroke="#1a2233" stroke-width="1.3" opacity=".65"/><line x1="1336" y1="875" x2="1336" y2="912" stroke="#1a2233" stroke-width="1.3" opacity=".65"/><line x1="1428" y1="875" x2="1428" y2="912" stroke="#1a2233" stroke-width="1.3" opacity=".65"/><line x1="1390" y1="912" x2="1390" y2="950" stroke="#1a2233" stroke-width="1.3" opacity=".65"/><rect x="1290" y="500" width="190" height="12" fill="#1c2434"/><path d="M1294,464 L1294,434 L1304,444 L1314,434 L1314,464 Z" fill="#1c2434"/><path d="M1324,464 L1324,434 L1334,444 L1344,434 L1344,464 Z" fill="#1c2434"/><path d="M1354,464 L1354,434 L1364,444 L1374,434 L1374,464 Z" fill="#1c2434"/><path d="M1384,464 L1384,434 L1394,444 L1404,434 L1404,464 Z" fill="#1c2434"/><path d="M1414,464 L1414,434 L1424,444 L1434,434 L1434,464 Z" fill="#1c2434"/><path d="M1444,464 L1444,434 L1454,444 L1464,434 L1464,464 Z" fill="#1c2434"/><rect x="1300" y="460" width="170" height="490" fill="none" stroke="#46557f" stroke-width="2.2" opacity=".8"/><rect x="1372" y="560" width="15" height="24" fill="#ffd9a0" opacity=".85" class="flick"/><rect x="1330" y="680" width="12" height="18" fill="#ffd9a0" opacity=".85" /><rect x="1416" y="720" width="12" height="18" fill="#ffd9a0" opacity=".85" class="flick"/><path d="M1358,950 v-64 a24,26 0 0 1 48,0 v64 Z" fill="#0b0f18" stroke="#46557f" stroke-width="1.6"/><rect x="1470" y="640" width="280" height="310" fill="#1c2434"/><line x1="1470" y1="679" x2="1750" y2="679" stroke="#141b2c" stroke-width="1.6" opacity=".9"/><line x1="1470" y1="718" x2="1750" y2="718" stroke="#141b2c" stroke-width="1.6" opacity=".9"/><line x1="1470" y1="756" x2="1750" y2="756" stroke="#141b2c" stroke-width="1.6" opacity=".9"/><line x1="1470" y1="795" x2="1750" y2="795" stroke="#141b2c" stroke-width="1.6" opacity=".9"/><line x1="1470" y1="834" x2="1750" y2="834" stroke="#141b2c" stroke-width="1.6" opacity=".9"/><line x1="1470" y1="872" x2="1750" y2="872" stroke="#141b2c" stroke-width="1.6" opacity=".9"/><line x1="1470" y1="911" x2="1750" y2="911" stroke="#141b2c" stroke-width="1.6" opacity=".9"/><line x1="1558" y1="640" x2="1558" y2="679" stroke="#141b2c" stroke-width="1.3" opacity=".65"/><line x1="1664" y1="640" x2="1664" y2="679" stroke="#141b2c" stroke-width="1.3" opacity=".65"/><line x1="1511" y1="679" x2="1511" y2="718" stroke="#141b2c" stroke-width="1.3" opacity=".65"/><line x1="1618" y1="679" x2="1618" y2="718" stroke="#141b2c" stroke-width="1.3" opacity=".65"/><line x1="1708" y1="679" x2="1708" y2="718" stroke="#141b2c" stroke-width="1.3" opacity=".65"/><line x1="1477" y1="718" x2="1477" y2="756" stroke="#141b2c" stroke-width="1.3" opacity=".65"/><line x1="1567" y1="718" x2="1567" y2="756" stroke="#141b2c" stroke-width="1.3" opacity=".65"/><line x1="1662" y1="718" x2="1662" y2="756" stroke="#141b2c" stroke-width="1.3" opacity=".65"/><line x1="1509" y1="756" x2="1509" y2="795" stroke="#141b2c" stroke-width="1.3" opacity=".65"/><line x1="1610" y1="756" x2="1610" y2="795" stroke="#141b2c" stroke-width="1.3" opacity=".65"/><line x1="1700" y1="756" x2="1700" y2="795" stroke="#141b2c" stroke-width="1.3" opacity=".65"/><line x1="1566" y1="795" x2="1566" y2="834" stroke="#141b2c" stroke-width="1.3" opacity=".65"/><line x1="1658" y1="795" x2="1658" y2="834" stroke="#141b2c" stroke-width="1.3" opacity=".65"/><line x1="1517" y1="834" x2="1517" y2="872" stroke="#141b2c" stroke-width="1.3" opacity=".65"/><line x1="1616" y1="834" x2="1616" y2="872" stroke="#141b2c" stroke-width="1.3" opacity=".65"/><line x1="1709" y1="834" x2="1709" y2="872" stroke="#141b2c" stroke-width="1.3" opacity=".65"/><line x1="1567" y1="872" x2="1567" y2="911" stroke="#141b2c" stroke-width="1.3" opacity=".65"/><line x1="1660" y1="872" x2="1660" y2="911" stroke="#141b2c" stroke-width="1.3" opacity=".65"/><line x1="1524" y1="911" x2="1524" y2="950" stroke="#141b2c" stroke-width="1.3" opacity=".65"/><line x1="1618" y1="911" x2="1618" y2="950" stroke="#141b2c" stroke-width="1.3" opacity=".65"/><line x1="1700" y1="911" x2="1700" y2="950" stroke="#141b2c" stroke-width="1.3" opacity=".65"/><path d="M1468,644 L1468,618 L1476,628 L1484,618 L1484,644 Z" fill="#1c2434"/><path d="M1496,644 L1496,618 L1504,628 L1512,618 L1512,644 Z" fill="#1c2434"/><path d="M1524,644 L1524,618 L1532,628 L1540,618 L1540,644 Z" fill="#1c2434"/><path d="M1552,644 L1552,618 L1560,628 L1568,618 L1568,644 Z" fill="#1c2434"/><path d="M1580,644 L1580,618 L1588,628 L1596,618 L1596,644 Z" fill="#1c2434"/><path d="M1608,644 L1608,618 L1616,628 L1624,618 L1624,644 Z" fill="#1c2434"/><path d="M1636,644 L1636,618 L1644,628 L1652,618 L1652,644 Z" fill="#1c2434"/><path d="M1664,644 L1664,618 L1672,628 L1680,618 L1680,644 Z" fill="#1c2434"/><path d="M1692,644 L1692,618 L1700,628 L1708,618 L1708,644 Z" fill="#1c2434"/><path d="M1720,644 L1720,618 L1728,628 L1736,618 L1736,644 Z" fill="#1c2434"/><line x1="1470" y1="640" x2="1750" y2="640" stroke="#46557f" stroke-width="2" opacity=".6"/><rect x="1750" y="550" width="100" height="400" fill="#232c40"/><line x1="1750" y1="590" x2="1850" y2="590" stroke="#1a2233" stroke-width="1.6" opacity=".9"/><line x1="1750" y1="630" x2="1850" y2="630" stroke="#1a2233" stroke-width="1.6" opacity=".9"/><line x1="1750" y1="670" x2="1850" y2="670" stroke="#1a2233" stroke-width="1.6" opacity=".9"/><line x1="1750" y1="710" x2="1850" y2="710" stroke="#1a2233" stroke-width="1.6" opacity=".9"/><line x1="1750" y1="750" x2="1850" y2="750" stroke="#1a2233" stroke-width="1.6" opacity=".9"/><line x1="1750" y1="790" x2="1850" y2="790" stroke="#1a2233" stroke-width="1.6" opacity=".9"/><line x1="1750" y1="830" x2="1850" y2="830" stroke="#1a2233" stroke-width="1.6" opacity=".9"/><line x1="1750" y1="870" x2="1850" y2="870" stroke="#1a2233" stroke-width="1.6" opacity=".9"/><line x1="1750" y1="910" x2="1850" y2="910" stroke="#1a2233" stroke-width="1.6" opacity=".9"/><line x1="1800" y1="550" x2="1800" y2="590" stroke="#1a2233" stroke-width="1.3" opacity=".65"/><line x1="1767" y1="590" x2="1767" y2="630" stroke="#1a2233" stroke-width="1.3" opacity=".65"/><line x1="1824" y1="590" x2="1824" y2="630" stroke="#1a2233" stroke-width="1.3" opacity=".65"/><line x1="1795" y1="630" x2="1795" y2="670" stroke="#1a2233" stroke-width="1.3" opacity=".65"/><line x1="1775" y1="670" x2="1775" y2="710" stroke="#1a2233" stroke-width="1.3" opacity=".65"/><line x1="1822" y1="670" x2="1822" y2="710" stroke="#1a2233" stroke-width="1.3" opacity=".65"/><line x1="1757" y1="710" x2="1757" y2="750" stroke="#1a2233" stroke-width="1.3" opacity=".65"/><line x1="1799" y1="710" x2="1799" y2="750" stroke="#1a2233" stroke-width="1.3" opacity=".65"/><line x1="1774" y1="750" x2="1774" y2="790" stroke="#1a2233" stroke-width="1.3" opacity=".65"/><line x1="1833" y1="750" x2="1833" y2="790" stroke="#1a2233" stroke-width="1.3" opacity=".65"/><line x1="1803" y1="790" x2="1803" y2="830" stroke="#1a2233" stroke-width="1.3" opacity=".65"/><line x1="1777" y1="830" x2="1777" y2="870" stroke="#1a2233" stroke-width="1.3" opacity=".65"/><line x1="1822" y1="830" x2="1822" y2="870" stroke="#1a2233" stroke-width="1.3" opacity=".65"/><line x1="1803" y1="870" x2="1803" y2="910" stroke="#1a2233" stroke-width="1.3" opacity=".65"/><line x1="1776" y1="910" x2="1776" y2="950" stroke="#1a2233" stroke-width="1.3" opacity=".65"/><line x1="1830" y1="910" x2="1830" y2="950" stroke="#1a2233" stroke-width="1.3" opacity=".65"/><path d="M1748,554 L1748,528 L1756,538 L1764,528 L1764,554 Z" fill="#1c2434"/><path d="M1775,554 L1775,528 L1783,538 L1791,528 L1791,554 Z" fill="#1c2434"/><path d="M1802,554 L1802,528 L1810,538 L1818,528 L1818,554 Z" fill="#1c2434"/><path d="M1829,554 L1829,528 L1837,538 L1845,528 L1845,554 Z" fill="#1c2434"/><rect x="1786" y="640" width="12" height="18" fill="#ffd9a0" opacity=".85" class="flick"/><path d="M1060,950 Q1030,996 1060,1040 L1090,1040 Q1064,996 1090,950 Z" fill="#1c2434"/><path d="M1850,950 Q1880,996 1850,1040 L1820,1040 Q1846,996 1820,950 Z" fill="#1c2434"/><rect x="0" y="950" width="1920" height="330" fill="url(#wgrad)"/>
<line x1="0" y1="950" x2="1920" y2="950" stroke="url(#acc)" stroke-width="2.4" opacity=".55"/>
<line x1="616" y1="999" x2="757" y2="999" stroke="#7c5cff" stroke-width="2" class="shim d4" opacity=".3"/>
<line x1="1402" y1="1087" x2="1557" y2="1087" stroke="#43e0d0" stroke-width="2" class="shim" opacity=".3"/>
<line x1="1596" y1="1022" x2="1718" y2="1022" stroke="#43e0d0" stroke-width="2" class="shim d1" opacity=".3"/>
<line x1="319" y1="1152" x2="509" y2="1152" stroke="#43e0d0" stroke-width="2" class="shim d4" opacity=".3"/>
<line x1="404" y1="1136" x2="447" y2="1136" stroke="#7c5cff" stroke-width="2" class="shim d1" opacity=".3"/>
<line x1="1084" y1="1085" x2="1180" y2="1085" stroke="#7c5cff" stroke-width="2" class="shim" opacity=".3"/>
<line x1="471" y1="1223" x2="635" y2="1223" stroke="#43e0d0" stroke-width="2" class="shim d3" opacity=".3"/>
<line x1="367" y1="1102" x2="492" y2="1102" stroke="#43e0d0" stroke-width="2" class="shim" opacity=".3"/>
<line x1="1054" y1="978" x2="1133" y2="978" stroke="#43e0d0" stroke-width="2" class="shim d1" opacity=".3"/>
<line x1="1476" y1="1161" x2="1649" y2="1161" stroke="#7c5cff" stroke-width="2" class="shim d2" opacity=".3"/>
<line x1="1414" y1="1116" x2="1523" y2="1116" stroke="#43e0d0" stroke-width="2" class="shim d3" opacity=".3"/>
<line x1="1243" y1="1132" x2="1355" y2="1132" stroke="#7c5cff" stroke-width="2" class="shim d4" opacity=".3"/>
<line x1="485" y1="1064" x2="607" y2="1064" stroke="#43e0d0" stroke-width="2" class="shim d1" opacity=".3"/>
<line x1="170" y1="1040" x2="301" y2="1040" stroke="#7c5cff" stroke-width="2" class="shim d1" opacity=".3"/>
<line x1="975" y1="1093" x2="1041" y2="1093" stroke="#43e0d0" stroke-width="2" class="shim d3" opacity=".3"/>
<line x1="1099" y1="1010" x2="1190" y2="1010" stroke="#43e0d0" stroke-width="2" class="shim d2" opacity=".3"/><g class="shim d1" opacity=".4"><path d="M360,980 q40,10 80,0 M340,1030 q60,14 120,2 M380,1090 q40,10 70,0" stroke="#9fd8d0" stroke-width="3" fill="none"/></g><g class="bob">
<path d="M496,1040 L624,1040 L604,1063 L516,1063 Z" fill="#1a2130" stroke="url(#acc)" stroke-width="2"/>
<line x1="560" y1="1040" x2="560" y2="931" stroke="url(#acc)" stroke-width="2.6"/>
<path d="M565,934 L620,1031 L565,1031 Z" fill="#232c40" stroke="url(#acc)" stroke-width="1.6"/>
<path d="M555,950 L512,1031 L555,1031 Z" fill="#1c2434" stroke="url(#acc)" stroke-width="1.4" opacity=".9"/>
</g><g class="bob b2">
<path d="M821,1090 L899,1090 L887,1104 L833,1104 Z" fill="#1a2130" stroke="url(#acc)" stroke-width="2"/>
<line x1="860" y1="1090" x2="860" y2="1024" stroke="url(#acc)" stroke-width="2.6"/>
<path d="M863,1026 L896,1084 L863,1084 Z" fill="#232c40" stroke="url(#acc)" stroke-width="1.6"/>
<path d="M857,1035 L831,1084 L857,1084 Z" fill="#1c2434" stroke="url(#acc)" stroke-width="1.4" opacity=".9"/>
</g><rect width="1920" height="1280" fill="url(#vig)"/>
<rect width="1920" height="1280" filter="url(#grain)" opacity="0.55" fill="none"/>
</svg>