<svg xmlns="http://www.w3.org/2000/svg" viewBox="0 0 1920 1280" width="1920" height="1280">
<defs>
<linearGradient id="sky" x1="0" y1="0" x2="0" y2="1">
 <stop offset="0" stop-color="#04060b"/><stop offset="1" stop-color="#0e1220"/>
</linearGradient>
<linearGradient id="acc" x1="0" y1="0" x2="1" y2="1">
 <stop offset="0" stop-color="#7c5cff"/><stop offset="1" stop-color="#43e0d0"/>
</linearGradient>
<linearGradient id="accv" x1="0" y1="0" x2="0" y2="1">
 <stop offset="0" stop-color="#7c5cff"/><stop offset="1" stop-color="#43e0d0"/>
</linearGradient>
<radialGradient id="mgrad" cx="0.35" cy="0.3" r="1">
 <stop offset="0" stop-color="#a99cff"/><stop offset="1" stop-color="#5fe6d6"/>
</radialGradient>
<radialGradient id="halo" cx="0.5" cy="0.5" r="0.5">
 <stop offset="0" stop-color="rgba(103,220,205,.34)"/><stop offset="1" stop-color="rgba(103,220,205,0)"/>
</radialGradient>
<radialGradient id="vig" cx="0.5" cy="0.46" r="0.85">
 <stop offset="0.55" stop-color="rgba(0,0,0,0)"/><stop offset="1" stop-color="rgba(0,0,4,.5)"/>
</radialGradient>
<linearGradient id="wgrad" x1="0" y1="0" x2="0" y2="1">
 <stop offset="0" stop-color="#0b111e"/><stop offset="1" stop-color="#070a12"/>
</linearGradient>
<filter id="soft" x="-40%" y="-40%" width="180%" height="180%"><feGaussianBlur stdDeviation="7"/></filter>
<filter id="soft2" x="-60%" y="-60%" width="220%" height="220%"><feGaussianBlur stdDeviation="16"/></filter>
<filter id="grain"><feTurbulence type="fractalNoise" baseFrequency="0.8" numOctaves="2" stitchTiles="stitch"/>
 <feColorMatrix type="matrix" values="0 0 0 0 1 0 0 0 0 1 0 0 0 0 1 0 0 0 0.05 0"/><feComposite operator="over" in2="SourceGraphic"/></filter>
</defs>
<style>
@keyframes tw{0%,100%{opacity:.1}50%{opacity:1}}
.tw{animation:tw 3.4s ease-in-out infinite}
.tw.d1{animation-delay:.6s}.tw.d2{animation-delay:1.2s}.tw.d3{animation-delay:1.9s}.tw.d4{animation-delay:2.6s}.tw.d5{animation-delay:3.1s}
@keyframes shoot{0%,84%{opacity:0;transform:translate(0,0)}86%{opacity:1}96%{opacity:0;transform:translate(-620px,320px)}100%{opacity:0}}
.shoot{animation:shoot 12s linear infinite}
.shoot.s2{animation-duration:19s;animation-delay:7s}
@keyframes bob{0%,100%{transform:translateY(0px) rotate(-1.2deg)}50%{transform:translateY(9px) rotate(1.4deg)}}
.bob{animation:bob 5.6s ease-in-out infinite;transform-box:fill-box;transform-origin:center}
.bob.b2{animation-duration:7.2s;animation-delay:1.1s}
@keyframes shim{0%,100%{opacity:.22}50%{opacity:.75}}
.shim{animation:shim 4.4s ease-in-out infinite}
.shim.d1{animation-delay:1.4s}.shim.d2{animation-delay:2.7s}.shim.d3{animation-delay:3.6s}
@keyframes flick{0%,91%,100%{opacity:.9}93%{opacity:.25}95%{opacity:.85}}
.flick{animation:flick 8s linear infinite}.flick.f2{animation-delay:3.5s}
@keyframes spin{from{transform:rotate(0deg)}to{transform:rotate(360deg)}}
.wheel{animation:spin 80s linear infinite;transform-box:fill-box;transform-origin:center}
@keyframes aur{0%,100%{opacity:.34;transform:skewX(0deg)}50%{opacity:.72;transform:skewX(-4deg)}}
.aur{animation:aur 9s ease-in-out infinite;transform-box:fill-box;transform-origin:bottom}
.aur.a2{animation-duration:13s;animation-delay:2.5s}
@keyframes fall{from{transform:translateY(-140px)}to{transform:translateY(150px)}}
.fall{animation:fall 9s linear infinite}.fall.f2{animation-duration:13s;animation-delay:2s}.fall.f3{animation-duration:11s;animation-delay:5s}
@keyframes sway{0%,100%{transform:rotate(-1.4deg)}50%{transform:rotate(1.4deg)}}
.sway{animation:sway 7s ease-in-out infinite;transform-box:fill-box;transform-origin:bottom center}

@media (prefers-reduced-motion:reduce){*{animation:none!important}}
</style>
<rect width="1920" height="1280" fill="url(#sky)"/><circle cx="1798" cy="313" r="1.0" fill="#dfe8f5" class="tw d2"/>
<circle cx="201" cy="568" r="1.2" fill="#c9d4e6" opacity="0.58"/>
<circle cx="170" cy="77" r="1.7" fill="#dfe8f5" class="tw d3"/>
<circle cx="137" cy="44" r="2.2" fill="#dfe8f5" class="tw d1"/>
<circle cx="1455" cy="581" r="2.3" fill="#c9d4e6" opacity="0.34"/>
<circle cx="260" cy="278" r="1.3" fill="#c9d4e6" opacity="0.35"/>
<circle cx="1422" cy="347" r="2.2" fill="#c9d4e6" opacity="0.46"/>
<circle cx="1327" cy="562" r="2.1" fill="#c9d4e6" opacity="0.79"/>
<circle cx="1046" cy="263" r="1.0" fill="#c9d4e6" opacity="0.62"/>
<circle cx="101" cy="158" r="1.7" fill="#dfe8f5" class="tw d4"/>
<circle cx="1376" cy="261" r="1.5" fill="#dfe8f5" class="tw d1"/>
<circle cx="925" cy="283" r="1.5" fill="#c9d4e6" opacity="0.73"/>
<circle cx="676" cy="562" r="1.1" fill="#c9d4e6" opacity="0.39"/>
<circle cx="1746" cy="85" r="1.9" fill="#dfe8f5" class="tw"/>
<circle cx="651" cy="179" r="1.4" fill="#c9d4e6" opacity="0.47"/>
<circle cx="1450" cy="224" r="1.5" fill="#c9d4e6" opacity="0.36"/>
<circle cx="916" cy="495" r="2.1" fill="#c9d4e6" opacity="0.69"/>
<circle cx="344" cy="462" r="1.6" fill="#c9d4e6" opacity="0.75"/>
<circle cx="329" cy="292" r="1.9" fill="#c9d4e6" opacity="0.30"/>
<circle cx="476" cy="472" r="2.2" fill="#c9d4e6" opacity="0.77"/>
<circle cx="1165" cy="346" r="1.0" fill="#c9d4e6" opacity="0.65"/>
<circle cx="999" cy="102" r="1.6" fill="#c9d4e6" opacity="0.75"/>
<circle cx="991" cy="391" r="1.4" fill="#dfe8f5" class="tw"/>
<circle cx="1060" cy="465" r="1.1" fill="#dfe8f5" class="tw d2"/>
<circle cx="1098" cy="581" r="1.1" fill="#dfe8f5" class="tw"/>
<circle cx="1040" cy="297" r="1.3" fill="#dfe8f5" class="tw d1"/>
<circle cx="1457" cy="200" r="1.2" fill="#c9d4e6" opacity="0.57"/>
<circle cx="988" cy="85" r="1.1" fill="#dfe8f5" class="tw d2"/>
<circle cx="1008" cy="157" r="1.5" fill="#c9d4e6" opacity="0.64"/>
<circle cx="816" cy="376" r="1.5" fill="#c9d4e6" opacity="0.32"/>
<circle cx="323" cy="358" r="2.0" fill="#dfe8f5" class="tw d2"/>
<circle cx="430" cy="557" r="1.8" fill="#c9d4e6" opacity="0.80"/>
<circle cx="289" cy="58" r="2.4" fill="#dfe8f5" class="tw d5"/>
<circle cx="250" cy="324" r="1.3" fill="#dfe8f5" class="tw d1"/>
<circle cx="960" cy="407" r="1.6" fill="#c9d4e6" opacity="0.73"/>
<circle cx="456" cy="100" r="1.5" fill="#c9d4e6" opacity="0.40"/>
<circle cx="806" cy="190" r="1.6" fill="#dfe8f5" class="tw d2"/>
<circle cx="820" cy="109" r="1.1" fill="#c9d4e6" opacity="0.70"/>
<circle cx="969" cy="409" r="2.1" fill="#dfe8f5" class="tw d1"/>
<circle cx="268" cy="514" r="1.1" fill="#c9d4e6" opacity="0.43"/>
<circle cx="901" cy="28" r="2.2" fill="#c9d4e6" opacity="0.26"/>
<circle cx="293" cy="64" r="2.3" fill="#c9d4e6" opacity="0.27"/><circle cx="330" cy="200" r="120" fill="url(#halo)"/>
<circle cx="330" cy="200" r="46" fill="url(#mgrad)"/><g class="wheel"><circle cx="1560" cy="600" r="250" fill="none" stroke="#26304a" stroke-width="7"/>
<circle cx="1560" cy="600" r="250" fill="none" stroke="url(#acc)" stroke-width="2" opacity=".8"/>
<line x1="1560" y1="600" x2="1810" y2="600" stroke="#26304a" stroke-width="2.4"/><line x1="1560" y1="600" x2="1791" y2="696" stroke="#26304a" stroke-width="2.4"/><line x1="1560" y1="600" x2="1737" y2="777" stroke="#26304a" stroke-width="2.4"/><line x1="1560" y1="600" x2="1656" y2="831" stroke="#26304a" stroke-width="2.4"/><line x1="1560" y1="600" x2="1560" y2="850" stroke="#26304a" stroke-width="2.4"/><line x1="1560" y1="600" x2="1464" y2="831" stroke="#26304a" stroke-width="2.4"/><line x1="1560" y1="600" x2="1383" y2="777" stroke="#26304a" stroke-width="2.4"/><line x1="1560" y1="600" x2="1329" y2="696" stroke="#26304a" stroke-width="2.4"/><line x1="1560" y1="600" x2="1310" y2="600" stroke="#26304a" stroke-width="2.4"/><line x1="1560" y1="600" x2="1329" y2="504" stroke="#26304a" stroke-width="2.4"/><line x1="1560" y1="600" x2="1383" y2="423" stroke="#26304a" stroke-width="2.4"/><line x1="1560" y1="600" x2="1464" y2="369" stroke="#26304a" stroke-width="2.4"/><line x1="1560" y1="600" x2="1560" y2="350" stroke="#26304a" stroke-width="2.4"/><line x1="1560" y1="600" x2="1656" y2="369" stroke="#26304a" stroke-width="2.4"/><line x1="1560" y1="600" x2="1737" y2="423" stroke="#26304a" stroke-width="2.4"/><line x1="1560" y1="600" x2="1791" y2="504" stroke="#26304a" stroke-width="2.4"/><circle cx="1810" cy="600" r="7" fill="#232c40" stroke="#43e0d0" stroke-width="1.4"/><circle cx="1777" cy="725" r="7" fill="#232c40" stroke="#43e0d0" stroke-width="1.4"/><circle cx="1685" cy="817" r="7" fill="#232c40" stroke="#43e0d0" stroke-width="1.4"/><circle cx="1560" cy="850" r="7" fill="#232c40" stroke="#43e0d0" stroke-width="1.4"/><circle cx="1435" cy="817" r="7" fill="#232c40" stroke="#43e0d0" stroke-width="1.4"/><circle cx="1343" cy="725" r="7" fill="#232c40" stroke="#43e0d0" stroke-width="1.4"/><circle cx="1310" cy="600" r="7" fill="#232c40" stroke="#43e0d0" stroke-width="1.4"/><circle cx="1343" cy="475" r="7" fill="#232c40" stroke="#43e0d0" stroke-width="1.4"/><circle cx="1435" cy="383" r="7" fill="#232c40" stroke="#43e0d0" stroke-width="1.4"/><circle cx="1560" cy="350" r="7" fill="#232c40" stroke="#43e0d0" stroke-width="1.4"/><circle cx="1685" cy="383" r="7" fill="#232c40" stroke="#43e0d0" stroke-width="1.4"/><circle cx="1777" cy="475" r="7" fill="#232c40" stroke="#43e0d0" stroke-width="1.4"/><circle cx="1560" cy="600" r="14" fill="#1d2534" stroke="url(#acc)" stroke-width="2"/></g>
<path d="M1490,946 L1560,640 L1630,946" fill="none" stroke="#1d2534" stroke-width="10"/><rect x="520" y="740" width="460" height="206" fill="#151b28"/><path d="M540,740 L540,700 L548,684 L556,700 L556,740 Z" fill="#1a2130"/><path d="M610,740 L610,700 L618,684 L626,700 L626,740 Z" fill="#1a2130"/><path d="M680,740 L680,700 L688,684 L696,700 L696,740 Z" fill="#1a2130"/><path d="M750,740 L750,700 L758,684 L766,700 L766,740 Z" fill="#1a2130"/><path d="M820,740 L820,700 L828,684 L836,700 L836,740 Z" fill="#1a2130"/><path d="M890,740 L890,700 L898,684 L906,700 L906,740 Z" fill="#1a2130"/><path d="M960,740 L960,700 L968,684 L976,700 L976,740 Z" fill="#1a2130"/><rect x="520" y="740" width="460" height="206" fill="none" stroke="url(#acc)" stroke-width="1.8" opacity=".6"/><rect x="560" y="790" width="10" height="26" fill="#ffd9a0" opacity=".85" class="flick"/><rect x="700" y="790" width="10" height="26" fill="#ffd9a0" opacity=".85" /><rect x="840" y="790" width="10" height="26" fill="#ffd9a0" opacity=".85" class="flick"/><rect x="920" y="790" width="10" height="26" fill="#ffd9a0" opacity=".85" /><rect x="380" y="480" width="110" height="466" fill="#1a2130"/><rect x="372" y="452" width="126" height="34" fill="#1d2534"/><path d="M372,452 L435,346 L498,452 Z" fill="#171e2c"/><path d="M372,452 L435,346 L498,452" fill="none" stroke="url(#acc)" stroke-width="2.2" opacity=".85"/><line x1="435" y1="346" x2="435" y2="310" stroke="url(#acc)" stroke-width="2.6"/><circle cx="435" cy="512" r="42" fill="#f5e2b0" opacity=".92"/><circle cx="435" cy="512" r="42" fill="none" stroke="#0b0f18" stroke-width="6"/><line x1="435" y1="512" x2="435" y2="484" stroke="#0b0f18" stroke-width="4"/><line x1="435" y1="512" x2="454" y2="520" stroke="#0b0f18" stroke-width="4"/><rect x="380" y="480" width="110" height="466" fill="none" stroke="url(#acc)" stroke-width="2" opacity=".75"/><rect x="0" y="946" width="1920" height="334" fill="url(#wgrad)"/>
<line x1="0" y1="946" x2="1920" y2="946" stroke="url(#acc)" stroke-width="2.4" opacity=".55"/>
<line x1="1048" y1="989" x2="1178" y2="989" stroke="#43e0d0" stroke-width="2" class="shim d4" opacity=".3"/>
<line x1="1311" y1="980" x2="1466" y2="980" stroke="#7c5cff" stroke-width="2" class="shim d2" opacity=".3"/>
<line x1="1529" y1="1004" x2="1599" y2="1004" stroke="#7c5cff" stroke-width="2" class="shim d3" opacity=".3"/>
<line x1="1489" y1="1086" x2="1579" y2="1086" stroke="#7c5cff" stroke-width="2" class="shim d3" opacity=".3"/>
<line x1="255" y1="1042" x2="310" y2="1042" stroke="#7c5cff" stroke-width="2" class="shim" opacity=".3"/>
<line x1="1338" y1="1165" x2="1434" y2="1165" stroke="#43e0d0" stroke-width="2" class="shim d1" opacity=".3"/>
<line x1="1109" y1="1007" x2="1257" y2="1007" stroke="#43e0d0" stroke-width="2" class="shim d3" opacity=".3"/>
<line x1="1324" y1="1172" x2="1429" y2="1172" stroke="#43e0d0" stroke-width="2" class="shim" opacity=".3"/>
<line x1="634" y1="1155" x2="815" y2="1155" stroke="#43e0d0" stroke-width="2" class="shim" opacity=".3"/>
<line x1="1145" y1="1057" x2="1259" y2="1057" stroke="#43e0d0" stroke-width="2" class="shim d3" opacity=".3"/>
<line x1="1186" y1="988" x2="1350" y2="988" stroke="#43e0d0" stroke-width="2" class="shim d3" opacity=".3"/>
<line x1="1093" y1="1181" x2="1211" y2="1181" stroke="#43e0d0" stroke-width="2" class="shim d1" opacity=".3"/><rect width="1920" height="1280" fill="url(#vig)"/>
<rect width="1920" height="1280" filter="url(#grain)" opacity="0.55" fill="none"/>
</svg>