<svg xmlns="http://www.w3.org/2000/svg" viewBox="0 0 1920 1280" width="1920" height="1280">
<defs>
<linearGradient id="sky" x1="0" y1="0" x2="0" y2="1">
 <stop offset="0" stop-color="#05060b"/><stop offset="1" stop-color="#131120"/>
</linearGradient>
<linearGradient id="acc" x1="0" y1="0" x2="1" y2="1">
 <stop offset="0" stop-color="#7c5cff"/><stop offset="1" stop-color="#43e0d0"/>
</linearGradient>
<linearGradient id="accv" x1="0" y1="0" x2="0" y2="1">
 <stop offset="0" stop-color="#7c5cff"/><stop offset="1" stop-color="#43e0d0"/>
</linearGradient>
<radialGradient id="mgrad" cx="0.35" cy="0.3" r="1">
 <stop offset="0" stop-color="#a99cff"/><stop offset="1" stop-color="#5fe6d6"/>
</radialGradient>
<radialGradient id="halo" cx="0.5" cy="0.5" r="0.5">
 <stop offset="0" stop-color="rgba(103,220,205,.34)"/><stop offset="1" stop-color="rgba(103,220,205,0)"/>
</radialGradient>
<radialGradient id="vig" cx="0.5" cy="0.46" r="0.85">
 <stop offset="0.55" stop-color="rgba(0,0,0,0)"/><stop offset="1" stop-color="rgba(0,0,4,.5)"/>
</radialGradient>
<linearGradient id="wgrad" x1="0" y1="0" x2="0" y2="1">
 <stop offset="0" stop-color="#0b111e"/><stop offset="1" stop-color="#070a12"/>
</linearGradient>
<filter id="soft" x="-40%" y="-40%" width="180%" height="180%"><feGaussianBlur stdDeviation="7"/></filter>
<filter id="soft2" x="-60%" y="-60%" width="220%" height="220%"><feGaussianBlur stdDeviation="16"/></filter>
<filter id="grain"><feTurbulence type="fractalNoise" baseFrequency="0.8" numOctaves="2" stitchTiles="stitch"/>
 <feColorMatrix type="matrix" values="0 0 0 0 1 0 0 0 0 1 0 0 0 0 1 0 0 0 0.05 0"/><feComposite operator="over" in2="SourceGraphic"/></filter>
</defs>
<style>
@keyframes tw{0%,100%{opacity:.1}50%{opacity:1}}
.tw{animation:tw 3.4s ease-in-out infinite}
.tw.d1{animation-delay:.6s}.tw.d2{animation-delay:1.2s}.tw.d3{animation-delay:1.9s}.tw.d4{animation-delay:2.6s}.tw.d5{animation-delay:3.1s}
@keyframes shoot{0%,84%{opacity:0;transform:translate(0,0)}86%{opacity:1}96%{opacity:0;transform:translate(-620px,320px)}100%{opacity:0}}
.shoot{animation:shoot 12s linear infinite}
.shoot.s2{animation-duration:19s;animation-delay:7s}
@keyframes bob{0%,100%{transform:translateY(0px) rotate(-1.2deg)}50%{transform:translateY(9px) rotate(1.4deg)}}
.bob{animation:bob 5.6s ease-in-out infinite;transform-box:fill-box;transform-origin:center}
.bob.b2{animation-duration:7.2s;animation-delay:1.1s}
@keyframes shim{0%,100%{opacity:.22}50%{opacity:.75}}
.shim{animation:shim 4.4s ease-in-out infinite}
.shim.d1{animation-delay:1.4s}.shim.d2{animation-delay:2.7s}.shim.d3{animation-delay:3.6s}
@keyframes flick{0%,91%,100%{opacity:.9}93%{opacity:.25}95%{opacity:.85}}
.flick{animation:flick 8s linear infinite}.flick.f2{animation-delay:3.5s}
@keyframes spin{from{transform:rotate(0deg)}to{transform:rotate(360deg)}}
.wheel{animation:spin 80s linear infinite;transform-box:fill-box;transform-origin:center}
@keyframes aur{0%,100%{opacity:.34;transform:skewX(0deg)}50%{opacity:.72;transform:skewX(-4deg)}}
.aur{animation:aur 9s ease-in-out infinite;transform-box:fill-box;transform-origin:bottom}
.aur.a2{animation-duration:13s;animation-delay:2.5s}
@keyframes fall{from{transform:translateY(-140px)}to{transform:translateY(150px)}}
.fall{animation:fall 9s linear infinite}.fall.f2{animation-duration:13s;animation-delay:2s}.fall.f3{animation-duration:11s;animation-delay:5s}
@keyframes sway{0%,100%{transform:rotate(-1.4deg)}50%{transform:rotate(1.4deg)}}
.sway{animation:sway 7s ease-in-out infinite;transform-box:fill-box;transform-origin:bottom center}

@media (prefers-reduced-motion:reduce){*{animation:none!important}}
</style>
<rect width="1920" height="1280" fill="url(#sky)"/><circle cx="567" cy="464" r="2.4" fill="#c9d4e6" opacity="0.37"/>
<circle cx="897" cy="33" r="1.1" fill="#c9d4e6" opacity="0.42"/>
<circle cx="734" cy="46" r="2.4" fill="#c9d4e6" opacity="0.75"/>
<circle cx="1332" cy="142" r="0.9" fill="#c9d4e6" opacity="0.58"/>
<circle cx="1259" cy="567" r="1.8" fill="#dfe8f5" class="tw d3"/>
<circle cx="710" cy="207" r="2.3" fill="#c9d4e6" opacity="0.47"/>
<circle cx="1572" cy="405" r="1.8" fill="#dfe8f5" class="tw d5"/>
<circle cx="1692" cy="375" r="2.4" fill="#c9d4e6" opacity="0.76"/>
<circle cx="707" cy="192" r="1.7" fill="#c9d4e6" opacity="0.76"/>
<circle cx="250" cy="170" r="2.2" fill="#c9d4e6" opacity="0.36"/>
<circle cx="50" cy="268" r="2.1" fill="#dfe8f5" class="tw"/>
<circle cx="221" cy="162" r="2.2" fill="#c9d4e6" opacity="0.42"/>
<circle cx="351" cy="394" r="2.2" fill="#c9d4e6" opacity="0.36"/>
<circle cx="1048" cy="241" r="1.5" fill="#c9d4e6" opacity="0.47"/>
<circle cx="712" cy="261" r="1.8" fill="#c9d4e6" opacity="0.77"/>
<circle cx="1698" cy="284" r="1.3" fill="#c9d4e6" opacity="0.51"/>
<circle cx="926" cy="215" r="2.0" fill="#dfe8f5" class="tw d3"/>
<circle cx="1473" cy="320" r="1.3" fill="#c9d4e6" opacity="0.57"/>
<circle cx="349" cy="157" r="1.8" fill="#dfe8f5" class="tw d3"/>
<circle cx="1293" cy="436" r="2.0" fill="#c9d4e6" opacity="0.66"/>
<circle cx="1240" cy="277" r="1.6" fill="#c9d4e6" opacity="0.43"/>
<circle cx="356" cy="414" r="1.3" fill="#c9d4e6" opacity="0.63"/>
<circle cx="1597" cy="521" r="1.6" fill="#dfe8f5" class="tw"/>
<circle cx="1009" cy="502" r="1.4" fill="#dfe8f5" class="tw d3"/>
<circle cx="90" cy="563" r="1.0" fill="#c9d4e6" opacity="0.50"/>
<circle cx="817" cy="258" r="1.9" fill="#dfe8f5" class="tw d4"/>
<circle cx="1638" cy="305" r="1.0" fill="#c9d4e6" opacity="0.29"/>
<circle cx="679" cy="153" r="1.5" fill="#c9d4e6" opacity="0.39"/>
<circle cx="421" cy="92" r="2.1" fill="#dfe8f5" class="tw d3"/>
<circle cx="774" cy="514" r="2.3" fill="#c9d4e6" opacity="0.54"/>
<circle cx="1089" cy="574" r="1.4" fill="#c9d4e6" opacity="0.30"/>
<circle cx="769" cy="97" r="1.7" fill="#c9d4e6" opacity="0.36"/>
<circle cx="986" cy="147" r="1.8" fill="#c9d4e6" opacity="0.34"/>
<circle cx="1277" cy="478" r="1.7" fill="#c9d4e6" opacity="0.73"/>
<circle cx="1755" cy="539" r="1.3" fill="#c9d4e6" opacity="0.65"/>
<circle cx="52" cy="465" r="2.0" fill="#c9d4e6" opacity="0.27"/>
<circle cx="1160" cy="265" r="1.2" fill="#c9d4e6" opacity="0.66"/>
<circle cx="485" cy="477" r="1.5" fill="#c9d4e6" opacity="0.79"/>
<circle cx="1296" cy="297" r="1.7" fill="#c9d4e6" opacity="0.64"/>
<circle cx="691" cy="258" r="1.4" fill="#c9d4e6" opacity="0.30"/>
<circle cx="1564" cy="225" r="2.2" fill="#dfe8f5" class="tw d4"/>
<circle cx="879" cy="434" r="2.3" fill="#dfe8f5" class="tw"/>
<circle cx="86" cy="336" r="1.7" fill="#c9d4e6" opacity="0.63"/>
<circle cx="277" cy="190" r="1.7" fill="#c9d4e6" opacity="0.77"/><circle cx="1620" cy="200" r="130" fill="url(#halo)"/>
<circle cx="1620" cy="200" r="50" fill="url(#mgrad)"/><path d="M340,950 L660,530 L980,950 Z" fill="#1b2334"/><path d="M660,530 L766,950 L980,950" fill="#12182a" opacity=".8"/><path d="M340,950 L660,530 L980,950" fill="none" stroke="url(#acc)" stroke-width="2.2" opacity=".85"/><path d="M615,588 L660,530 L705,588 Z" fill="#c3cddd" opacity=".85"/><path d="M900,950 L1180,590 L1460,950 Z" fill="#1b2334"/><path d="M1180,590 L1273,950 L1460,950" fill="#12182a" opacity=".8"/><path d="M900,950 L1180,590 L1460,950" fill="none" stroke="url(#acc)" stroke-width="2.2" opacity=".85"/><path d="M1400,950 L1560,750 L1720,950 Z" fill="#1b2334"/><path d="M1560,750 L1613,950 L1720,950" fill="#12182a" opacity=".8"/><path d="M1400,950 L1560,750 L1720,950" fill="none" stroke="url(#acc)" stroke-width="2.2" opacity=".85"/><g><path d="M120,950 L120,912 Q124,884 160,880 L340,880 Q380,882 420,900 L470,922 L470,950 Z" fill="#1c2434"/>
<path d="M150,884 Q142,846 160,820 Q170,802 196,800 Q224,800 234,820 Q248,846 238,884 Q226,900 194,900 Q160,900 150,884 Z" fill="#232c40"/>
<path d="M160,820 L128,846 L150,878 M234,820 L266,846 L240,878" fill="#232c40" stroke="none"/>
<path d="M150,884 Q142,846 160,820 Q170,802 196,800 Q224,800 234,820 Q248,846 238,884" fill="none" stroke="url(#acc)" stroke-width="1.8" opacity=".8"/>
<path d="M120,950 L120,912 Q124,884 160,880 L340,880 Q380,882 420,900 L470,922" fill="none" stroke="url(#acc)" stroke-width="1.8" opacity=".6"/>
<path d="M330,880 L330,950 M380,894 L380,950" stroke="#12182a" stroke-width="8"/></g><rect x="0" y="950" width="1920" height="330" fill="#0b0d15"/><line x1="0" y1="950" x2="1920" y2="950" stroke="url(#acc)" stroke-width="2" opacity=".4"/><path d="M0,1060 Q480,1020 960,1064 Q1440,1108 1920,1052" stroke="#7c5cff" stroke-width="1.6" fill="none" opacity=".3"/><path d="M0,1170 Q560,1130 1100,1176 Q1560,1210 1920,1160" stroke="#43e0d0" stroke-width="1.6" fill="none" opacity=".25"/><rect width="1920" height="1280" fill="url(#vig)"/>
<rect width="1920" height="1280" filter="url(#grain)" opacity="0.55" fill="none"/>
</svg>