<svg xmlns="http://www.w3.org/2000/svg" viewBox="0 0 1920 1280" width="1920" height="1280">
<defs>
<linearGradient id="sky" x1="0" y1="0" x2="0" y2="1">
 <stop offset="0" stop-color="#04060b"/><stop offset="1" stop-color="#0e1424"/>
</linearGradient>
<linearGradient id="acc" x1="0" y1="0" x2="1" y2="1">
 <stop offset="0" stop-color="#7c5cff"/><stop offset="1" stop-color="#43e0d0"/>
</linearGradient>
<linearGradient id="accv" x1="0" y1="0" x2="0" y2="1">
 <stop offset="0" stop-color="#7c5cff"/><stop offset="1" stop-color="#43e0d0"/>
</linearGradient>
<radialGradient id="mgrad" cx="0.35" cy="0.3" r="1">
 <stop offset="0" stop-color="#a99cff"/><stop offset="1" stop-color="#5fe6d6"/>
</radialGradient>
<radialGradient id="halo" cx="0.5" cy="0.5" r="0.5">
 <stop offset="0" stop-color="rgba(103,220,205,.34)"/><stop offset="1" stop-color="rgba(103,220,205,0)"/>
</radialGradient>
<radialGradient id="vig" cx="0.5" cy="0.46" r="0.85">
 <stop offset="0.55" stop-color="rgba(0,0,0,0)"/><stop offset="1" stop-color="rgba(0,0,4,.5)"/>
</radialGradient>
<linearGradient id="wgrad" x1="0" y1="0" x2="0" y2="1">
 <stop offset="0" stop-color="#0b111e"/><stop offset="1" stop-color="#070a12"/>
</linearGradient>
<filter id="soft" x="-40%" y="-40%" width="180%" height="180%"><feGaussianBlur stdDeviation="7"/></filter>
<filter id="soft2" x="-60%" y="-60%" width="220%" height="220%"><feGaussianBlur stdDeviation="16"/></filter>
<filter id="grain"><feTurbulence type="fractalNoise" baseFrequency="0.8" numOctaves="2" stitchTiles="stitch"/>
 <feColorMatrix type="matrix" values="0 0 0 0 1 0 0 0 0 1 0 0 0 0 1 0 0 0 0.05 0"/><feComposite operator="over" in2="SourceGraphic"/></filter>
</defs>
<style>
@keyframes tw{0%,100%{opacity:.1}50%{opacity:1}}
.tw{animation:tw 3.4s ease-in-out infinite}
.tw.d1{animation-delay:.6s}.tw.d2{animation-delay:1.2s}.tw.d3{animation-delay:1.9s}.tw.d4{animation-delay:2.6s}.tw.d5{animation-delay:3.1s}
@keyframes shoot{0%,84%{opacity:0;transform:translate(0,0)}86%{opacity:1}96%{opacity:0;transform:translate(-620px,320px)}100%{opacity:0}}
.shoot{animation:shoot 12s linear infinite}
.shoot.s2{animation-duration:19s;animation-delay:7s}
@keyframes bob{0%,100%{transform:translateY(0px) rotate(-1.2deg)}50%{transform:translateY(9px) rotate(1.4deg)}}
.bob{animation:bob 5.6s ease-in-out infinite;transform-box:fill-box;transform-origin:center}
.bob.b2{animation-duration:7.2s;animation-delay:1.1s}
@keyframes shim{0%,100%{opacity:.22}50%{opacity:.75}}
.shim{animation:shim 4.4s ease-in-out infinite}
.shim.d1{animation-delay:1.4s}.shim.d2{animation-delay:2.7s}.shim.d3{animation-delay:3.6s}
@keyframes flick{0%,91%,100%{opacity:.9}93%{opacity:.25}95%{opacity:.85}}
.flick{animation:flick 8s linear infinite}.flick.f2{animation-delay:3.5s}
@keyframes spin{from{transform:rotate(0deg)}to{transform:rotate(360deg)}}
.wheel{animation:spin 80s linear infinite;transform-box:fill-box;transform-origin:center}
@keyframes aur{0%,100%{opacity:.34;transform:skewX(0deg)}50%{opacity:.72;transform:skewX(-4deg)}}
.aur{animation:aur 9s ease-in-out infinite;transform-box:fill-box;transform-origin:bottom}
.aur.a2{animation-duration:13s;animation-delay:2.5s}
@keyframes fall{from{transform:translateY(-140px)}to{transform:translateY(150px)}}
.fall{animation:fall 9s linear infinite}.fall.f2{animation-duration:13s;animation-delay:2s}.fall.f3{animation-duration:11s;animation-delay:5s}
@keyframes sway{0%,100%{transform:rotate(-1.4deg)}50%{transform:rotate(1.4deg)}}
.sway{animation:sway 7s ease-in-out infinite;transform-box:fill-box;transform-origin:bottom center}

@media (prefers-reduced-motion:reduce){*{animation:none!important}}
</style>
<rect width="1920" height="1280" fill="url(#sky)"/><circle cx="1883" cy="532" r="1.8" fill="#dfe8f5" class="tw d5"/>
<circle cx="746" cy="664" r="1.5" fill="#dfe8f5" class="tw d5"/>
<circle cx="593" cy="154" r="1.9" fill="#c9d4e6" opacity="0.69"/>
<circle cx="1324" cy="254" r="1.5" fill="#dfe8f5" class="tw"/>
<circle cx="679" cy="360" r="1.3" fill="#dfe8f5" class="tw d2"/>
<circle cx="358" cy="272" r="1.9" fill="#dfe8f5" class="tw"/>
<circle cx="1614" cy="350" r="1.4" fill="#c9d4e6" opacity="0.72"/>
<circle cx="1709" cy="371" r="1.9" fill="#c9d4e6" opacity="0.80"/>
<circle cx="1636" cy="668" r="1.5" fill="#c9d4e6" opacity="0.47"/>
<circle cx="1200" cy="271" r="1.4" fill="#dfe8f5" class="tw d5"/>
<circle cx="365" cy="50" r="2.2" fill="#dfe8f5" class="tw d2"/>
<circle cx="1611" cy="502" r="2.1" fill="#dfe8f5" class="tw d1"/>
<circle cx="440" cy="290" r="1.9" fill="#dfe8f5" class="tw"/>
<circle cx="190" cy="231" r="1.9" fill="#c9d4e6" opacity="0.55"/>
<circle cx="160" cy="362" r="2.1" fill="#c9d4e6" opacity="0.33"/>
<circle cx="1262" cy="239" r="1.5" fill="#c9d4e6" opacity="0.40"/>
<circle cx="337" cy="571" r="2.2" fill="#dfe8f5" class="tw d5"/>
<circle cx="506" cy="249" r="1.0" fill="#c9d4e6" opacity="0.52"/>
<circle cx="1859" cy="575" r="1.3" fill="#c9d4e6" opacity="0.59"/>
<circle cx="619" cy="641" r="1.1" fill="#dfe8f5" class="tw d5"/>
<circle cx="1588" cy="238" r="1.4" fill="#dfe8f5" class="tw d5"/>
<circle cx="1840" cy="356" r="1.0" fill="#c9d4e6" opacity="0.51"/>
<circle cx="424" cy="449" r="1.2" fill="#c9d4e6" opacity="0.58"/>
<circle cx="1545" cy="405" r="2.2" fill="#dfe8f5" class="tw d2"/>
<circle cx="451" cy="690" r="2.0" fill="#c9d4e6" opacity="0.38"/>
<circle cx="969" cy="119" r="1.0" fill="#c9d4e6" opacity="0.59"/>
<circle cx="241" cy="282" r="1.8" fill="#c9d4e6" opacity="0.29"/>
<circle cx="1720" cy="222" r="1.1" fill="#c9d4e6" opacity="0.74"/>
<circle cx="1153" cy="595" r="2.1" fill="#c9d4e6" opacity="0.61"/>
<circle cx="1277" cy="320" r="2.3" fill="#dfe8f5" class="tw d4"/>
<circle cx="1395" cy="308" r="1.3" fill="#c9d4e6" opacity="0.38"/>
<circle cx="1380" cy="674" r="1.4" fill="#c9d4e6" opacity="0.28"/>
<circle cx="1041" cy="405" r="1.9" fill="#c9d4e6" opacity="0.34"/>
<circle cx="1639" cy="531" r="2.2" fill="#dfe8f5" class="tw"/>
<circle cx="318" cy="375" r="1.3" fill="#c9d4e6" opacity="0.71"/>
<circle cx="1121" cy="526" r="1.3" fill="#dfe8f5" class="tw"/>
<circle cx="649" cy="696" r="1.6" fill="#c9d4e6" opacity="0.69"/>
<circle cx="444" cy="47" r="1.9" fill="#c9d4e6" opacity="0.75"/>
<circle cx="56" cy="79" r="2.2" fill="#dfe8f5" class="tw"/>
<circle cx="1260" cy="112" r="1.8" fill="#c9d4e6" opacity="0.57"/>
<circle cx="1430" cy="99" r="1.4" fill="#c9d4e6" opacity="0.71"/>
<circle cx="1719" cy="97" r="1.0" fill="#dfe8f5" class="tw"/>
<circle cx="170" cy="602" r="0.9" fill="#dfe8f5" class="tw d3"/>
<circle cx="461" cy="79" r="1.4" fill="#dfe8f5" class="tw d2"/>
<circle cx="392" cy="379" r="2.2" fill="#c9d4e6" opacity="0.46"/>
<circle cx="1427" cy="308" r="2.1" fill="#dfe8f5" class="tw d5"/>
<circle cx="680" cy="60" r="1.3" fill="#c9d4e6" opacity="0.63"/>
<circle cx="847" cy="400" r="1.8" fill="#c9d4e6" opacity="0.69"/>
<circle cx="1177" cy="615" r="1.6" fill="#c9d4e6" opacity="0.67"/>
<circle cx="952" cy="304" r="1.4" fill="#c9d4e6" opacity="0.30"/>
<circle cx="1205" cy="404" r="1.9" fill="#dfe8f5" class="tw d2"/>
<circle cx="967" cy="347" r="2.3" fill="#dfe8f5" class="tw"/>
<circle cx="306" cy="530" r="1.8" fill="#c9d4e6" opacity="0.45"/>
<circle cx="1643" cy="30" r="2.1" fill="#c9d4e6" opacity="0.63"/><g class="shoot" opacity="0"><line x1="1460" y1="170" x2="1590" y2="104" stroke="url(#acc)" stroke-width="3" stroke-linecap="round"/>
<circle cx="1460" cy="170" r="3.6" fill="#eaf2ff"/></g><g class="shoot s2" opacity="0"><line x1="700" y1="120" x2="830" y2="54" stroke="url(#acc)" stroke-width="3" stroke-linecap="round"/>
<circle cx="700" cy="120" r="3.6" fill="#eaf2ff"/></g><circle cx="1560" cy="250" r="140" fill="url(#halo)"/>
<circle cx="1560" cy="250" r="54" fill="url(#mgrad)"/><path d="M0,960 L0,760 L170,640 L300,740 L450,600 L610,730 L760,660 L900,760 L900,960 Z" fill="#141a27"/><path d="M143,659 L170,640 L198,661 L184,672 L156,668 Z" fill="#c3cddd" opacity=".8"/><path d="M424,622 L450,600 L478,624 L462,634 L438,630 Z" fill="#c3cddd" opacity=".8"/><path d="M1020,960 L1020,780 L1180,650 L1330,760 L1490,620 L1660,740 L1820,680 L1920,760 L1920,960 Z" fill="#141a27"/><path d="M1154,671 L1180,650 L1208,672 L1192,682 L1166,678 Z" fill="#c3cddd" opacity=".75"/><path d="M1464,642 L1490,620 L1518,644 L1502,654 L1476,650 Z" fill="#c3cddd" opacity=".75"/><path d="M600,960 L780,600 L900,430 L946,352 L998,300 L1032,338 L1030,420 L1120,560 L1260,960 Z" fill="#1b2334"/><path d="M998,300 L1032,338 L1030,420 L1120,560 L1260,960 L1010,960 L980,560 Z" fill="#151b2a"/><path d="M780,600 L900,430 L946,352 L998,300 L980,560 L900,720 L820,860 L780,960 L700,960 Z" fill="#1e2740"/><path d="M998,300 L980,560 L1010,960" fill="none" stroke="#2b3550" stroke-width="2" opacity=".8"/><path d="M946,352 L900,720 L860,960" fill="none" stroke="#2b3550" stroke-width="1.6" opacity=".5"/><path d="M946,352 L998,300 L1032,338 L1030,420 L1078,496 L1036,478 L998,508 L952,470 L906,502 L862,466 L900,430 Z" fill="#e7ecf5"/><path d="M998,300 L1032,338 L1030,420 L1078,496 L1036,478 L998,508 L986,470 L998,300 Z" fill="#c3cddd"/><path d="M862,466 L906,502 L952,470 L998,508 L1036,478 L1078,496" fill="none" stroke="#43e0d0" stroke-width="1.6" opacity=".5"/><path d="M600,960 L780,600 L900,430 L946,352 L998,300" fill="none" stroke="url(#acc)" stroke-width="2" opacity=".6"/><rect x="0" y="958" width="1920" height="322" fill="#0a0e18"/><line x1="0" y1="958" x2="1920" y2="958" stroke="url(#acc)" stroke-width="2" opacity=".4"/><rect width="1920" height="1280" fill="url(#vig)"/>
<rect width="1920" height="1280" filter="url(#grain)" opacity="0.55" fill="none"/>
</svg>