<svg xmlns="http://www.w3.org/2000/svg" viewBox="0 0 1920 1280" width="1920" height="1280">
<defs>
<linearGradient id="sky" x1="0" y1="0" x2="0" y2="1">
 <stop offset="0" stop-color="#04060b"/><stop offset="1" stop-color="#10152a"/>
</linearGradient>
<linearGradient id="acc" x1="0" y1="0" x2="1" y2="1">
 <stop offset="0" stop-color="#7c5cff"/><stop offset="1" stop-color="#43e0d0"/>
</linearGradient>
<linearGradient id="accv" x1="0" y1="0" x2="0" y2="1">
 <stop offset="0" stop-color="#7c5cff"/><stop offset="1" stop-color="#43e0d0"/>
</linearGradient>
<radialGradient id="mgrad" cx="0.35" cy="0.3" r="1">
 <stop offset="0" stop-color="#a99cff"/><stop offset="1" stop-color="#5fe6d6"/>
</radialGradient>
<radialGradient id="halo" cx="0.5" cy="0.5" r="0.5">
 <stop offset="0" stop-color="rgba(103,220,205,.34)"/><stop offset="1" stop-color="rgba(103,220,205,0)"/>
</radialGradient>
<radialGradient id="vig" cx="0.5" cy="0.46" r="0.85">
 <stop offset="0.55" stop-color="rgba(0,0,0,0)"/><stop offset="1" stop-color="rgba(0,0,4,.5)"/>
</radialGradient>
<linearGradient id="wgrad" x1="0" y1="0" x2="0" y2="1">
 <stop offset="0" stop-color="#0b111e"/><stop offset="1" stop-color="#070a12"/>
</linearGradient>
<filter id="soft" x="-40%" y="-40%" width="180%" height="180%"><feGaussianBlur stdDeviation="7"/></filter>
<filter id="soft2" x="-60%" y="-60%" width="220%" height="220%"><feGaussianBlur stdDeviation="16"/></filter>
<filter id="grain"><feTurbulence type="fractalNoise" baseFrequency="0.8" numOctaves="2" stitchTiles="stitch"/>
 <feColorMatrix type="matrix" values="0 0 0 0 1 0 0 0 0 1 0 0 0 0 1 0 0 0 0.05 0"/><feComposite operator="over" in2="SourceGraphic"/></filter>
</defs>
<style>
@keyframes tw{0%,100%{opacity:.1}50%{opacity:1}}
.tw{animation:tw 3.4s ease-in-out infinite}
.tw.d1{animation-delay:.6s}.tw.d2{animation-delay:1.2s}.tw.d3{animation-delay:1.9s}.tw.d4{animation-delay:2.6s}.tw.d5{animation-delay:3.1s}
@keyframes shoot{0%,84%{opacity:0;transform:translate(0,0)}86%{opacity:1}96%{opacity:0;transform:translate(-620px,320px)}100%{opacity:0}}
.shoot{animation:shoot 12s linear infinite}
.shoot.s2{animation-duration:19s;animation-delay:7s}
@keyframes bob{0%,100%{transform:translateY(0px) rotate(-1.2deg)}50%{transform:translateY(9px) rotate(1.4deg)}}
.bob{animation:bob 5.6s ease-in-out infinite;transform-box:fill-box;transform-origin:center}
.bob.b2{animation-duration:7.2s;animation-delay:1.1s}
@keyframes shim{0%,100%{opacity:.22}50%{opacity:.75}}
.shim{animation:shim 4.4s ease-in-out infinite}
.shim.d1{animation-delay:1.4s}.shim.d2{animation-delay:2.7s}.shim.d3{animation-delay:3.6s}
@keyframes flick{0%,91%,100%{opacity:.9}93%{opacity:.25}95%{opacity:.85}}
.flick{animation:flick 8s linear infinite}.flick.f2{animation-delay:3.5s}
@keyframes spin{from{transform:rotate(0deg)}to{transform:rotate(360deg)}}
.wheel{animation:spin 80s linear infinite;transform-box:fill-box;transform-origin:center}
@keyframes aur{0%,100%{opacity:.34;transform:skewX(0deg)}50%{opacity:.72;transform:skewX(-4deg)}}
.aur{animation:aur 9s ease-in-out infinite;transform-box:fill-box;transform-origin:bottom}
.aur.a2{animation-duration:13s;animation-delay:2.5s}
@keyframes fall{from{transform:translateY(-140px)}to{transform:translateY(150px)}}
.fall{animation:fall 9s linear infinite}.fall.f2{animation-duration:13s;animation-delay:2s}.fall.f3{animation-duration:11s;animation-delay:5s}
@keyframes sway{0%,100%{transform:rotate(-1.4deg)}50%{transform:rotate(1.4deg)}}
.sway{animation:sway 7s ease-in-out infinite;transform-box:fill-box;transform-origin:bottom center}

@media (prefers-reduced-motion:reduce){*{animation:none!important}}
</style>
<rect width="1920" height="1280" fill="url(#sky)"/><circle cx="1063" cy="215" r="1.6" fill="#c9d4e6" opacity="0.60"/>
<circle cx="439" cy="361" r="2.0" fill="#c9d4e6" opacity="0.63"/>
<circle cx="245" cy="111" r="2.2" fill="#c9d4e6" opacity="0.75"/>
<circle cx="1689" cy="474" r="1.8" fill="#c9d4e6" opacity="0.46"/>
<circle cx="502" cy="357" r="1.1" fill="#dfe8f5" class="tw d1"/>
<circle cx="120" cy="514" r="1.0" fill="#c9d4e6" opacity="0.30"/>
<circle cx="1621" cy="35" r="1.7" fill="#c9d4e6" opacity="0.66"/>
<circle cx="1395" cy="506" r="2.0" fill="#dfe8f5" class="tw d3"/>
<circle cx="23" cy="422" r="1.0" fill="#c9d4e6" opacity="0.32"/>
<circle cx="1188" cy="445" r="0.9" fill="#c9d4e6" opacity="0.49"/>
<circle cx="1653" cy="383" r="2.0" fill="#c9d4e6" opacity="0.78"/>
<circle cx="1218" cy="238" r="1.3" fill="#dfe8f5" class="tw d2"/>
<circle cx="1303" cy="519" r="1.1" fill="#c9d4e6" opacity="0.27"/>
<circle cx="555" cy="364" r="1.9" fill="#c9d4e6" opacity="0.33"/>
<circle cx="1575" cy="150" r="2.2" fill="#c9d4e6" opacity="0.33"/>
<circle cx="1391" cy="477" r="1.6" fill="#dfe8f5" class="tw d4"/>
<circle cx="1884" cy="438" r="1.0" fill="#c9d4e6" opacity="0.71"/>
<circle cx="1781" cy="17" r="1.3" fill="#c9d4e6" opacity="0.32"/>
<circle cx="1561" cy="173" r="2.4" fill="#c9d4e6" opacity="0.28"/>
<circle cx="131" cy="263" r="1.9" fill="#c9d4e6" opacity="0.54"/>
<circle cx="438" cy="381" r="1.5" fill="#c9d4e6" opacity="0.39"/>
<circle cx="345" cy="436" r="2.1" fill="#c9d4e6" opacity="0.51"/>
<circle cx="196" cy="143" r="1.3" fill="#c9d4e6" opacity="0.31"/>
<circle cx="1108" cy="46" r="2.0" fill="#c9d4e6" opacity="0.60"/>
<circle cx="1225" cy="81" r="2.0" fill="#c9d4e6" opacity="0.45"/>
<circle cx="1495" cy="138" r="1.9" fill="#c9d4e6" opacity="0.39"/>
<circle cx="1480" cy="498" r="2.0" fill="#c9d4e6" opacity="0.62"/>
<circle cx="891" cy="453" r="2.4" fill="#c9d4e6" opacity="0.80"/>
<circle cx="713" cy="429" r="1.0" fill="#c9d4e6" opacity="0.59"/>
<circle cx="777" cy="233" r="1.2" fill="#c9d4e6" opacity="0.32"/>
<circle cx="1109" cy="315" r="1.9" fill="#c9d4e6" opacity="0.43"/>
<circle cx="111" cy="552" r="2.0" fill="#dfe8f5" class="tw d2"/>
<circle cx="1591" cy="101" r="1.9" fill="#c9d4e6" opacity="0.29"/>
<circle cx="338" cy="354" r="2.4" fill="#dfe8f5" class="tw d4"/>
<circle cx="1183" cy="412" r="2.4" fill="#c9d4e6" opacity="0.74"/>
<circle cx="1637" cy="235" r="2.3" fill="#c9d4e6" opacity="0.41"/>
<circle cx="826" cy="432" r="1.4" fill="#c9d4e6" opacity="0.78"/>
<circle cx="1591" cy="189" r="1.5" fill="#dfe8f5" class="tw d5"/>
<circle cx="947" cy="264" r="1.8" fill="#c9d4e6" opacity="0.55"/>
<circle cx="1864" cy="300" r="1.2" fill="#dfe8f5" class="tw d1"/><circle cx="1650" cy="200" r="120" fill="url(#halo)"/>
<circle cx="1650" cy="200" r="46" fill="url(#mgrad)"/><rect x="300" y="580" width="150" height="300" fill="#161d2c"/><path d="M300,580 L300,566 L330,566 L330,550 L360,550 L360,534 L390,534 L390,550 L420,550 L420,566 L450,566 L450,580 Z" fill="#161d2c"/><path d="M300,580 L300,566 L330,566 L330,550 L360,550 L360,534 L390,534 L390,550 L420,550 L420,566 L450,566 L450,580 Z" fill="none" stroke="url(#acc)" stroke-width="2" opacity=".8"/><rect x="336" y="614" width="15" height="26" fill="#ffd9a0" opacity=".25" /><rect x="387" y="614" width="15" height="26" fill="#ffd9a0" opacity=".85" /><rect x="336" y="688" width="15" height="26" fill="#ffd9a0" opacity=".85" class="flick"/><rect x="387" y="688" width="15" height="26" fill="#ffd9a0" opacity=".25" /><rect x="336" y="762" width="15" height="26" fill="#ffd9a0" opacity=".85" /><rect x="387" y="762" width="15" height="26" fill="#ffd9a0" opacity=".85" /><line x1="375" y1="572" x2="375" y2="588" stroke="#26304a" stroke-width="3"/><rect x="450" y="540" width="120" height="340" fill="#1a2130"/><path d="M450,540 L484,540 L484,500 Q510,482 536,500 L536,540 L570,540 Z" fill="#1a2130"/><path d="M450,540 L484,540 L484,500 Q510,482 536,500 L536,540 L570,540 Z" fill="none" stroke="url(#acc)" stroke-width="2" opacity=".8"/><rect x="479" y="574" width="15" height="26" fill="#ffd9a0" opacity=".85" class="flick"/><rect x="520" y="574" width="15" height="26" fill="#ffd9a0" opacity=".25" /><rect x="479" y="648" width="15" height="26" fill="#ffd9a0" opacity=".85" /><rect x="520" y="648" width="15" height="26" fill="#ffd9a0" opacity=".85" /><rect x="479" y="722" width="15" height="26" fill="#ffd9a0" opacity=".25" /><rect x="520" y="722" width="15" height="26" fill="#ffd9a0" opacity=".25" /><line x1="510" y1="532" x2="510" y2="548" stroke="#26304a" stroke-width="3"/><rect x="570" y="580" width="140" height="300" fill="#141a27"/><path d="M570,580 Q595,572 612,554 Q640,526 668,554 Q685,572 710,580 Z" fill="#141a27"/><path d="M570,580 Q595,572 612,554 Q640,526 668,554 Q685,572 710,580 Z" fill="none" stroke="url(#acc)" stroke-width="2" opacity=".8"/><rect x="604" y="614" width="15" height="26" fill="#ffd9a0" opacity=".85" /><rect x="651" y="614" width="15" height="26" fill="#ffd9a0" opacity=".85" /><rect x="604" y="688" width="15" height="26" fill="#ffd9a0" opacity=".25" /><rect x="651" y="688" width="15" height="26" fill="#ffd9a0" opacity=".25" /><rect x="604" y="762" width="15" height="26" fill="#ffd9a0" opacity=".85" /><rect x="651" y="762" width="15" height="26" fill="#ffd9a0" opacity=".85" /><line x1="640" y1="572" x2="640" y2="588" stroke="#26304a" stroke-width="3"/><rect x="710" y="520" width="130" height="360" fill="#1c2434"/><path d="M710,520 L775,468 L840,520 Z" fill="#1c2434"/><path d="M710,520 L775,468 L840,520 Z" fill="none" stroke="url(#acc)" stroke-width="2" opacity=".8"/><rect x="741" y="554" width="15" height="26" fill="#ffd9a0" opacity=".25" /><rect x="785" y="554" width="15" height="26" fill="#ffd9a0" opacity=".25" /><rect x="741" y="628" width="15" height="26" fill="#ffd9a0" opacity=".85" /><rect x="785" y="628" width="15" height="26" fill="#ffd9a0" opacity=".85" /><rect x="741" y="702" width="15" height="26" fill="#ffd9a0" opacity=".85" class="flick"/><rect x="785" y="702" width="15" height="26" fill="#ffd9a0" opacity=".25" /><line x1="775" y1="512" x2="775" y2="528" stroke="#26304a" stroke-width="3"/><rect x="840" y="560" width="150" height="320" fill="#161d2c"/><path d="M840,560 L840,546 L870,546 L870,530 L900,530 L900,514 L930,514 L930,530 L960,530 L960,546 L990,546 L990,560 Z" fill="#161d2c"/><path d="M840,560 L840,546 L870,546 L870,530 L900,530 L900,514 L930,514 L930,530 L960,530 L960,546 L990,546 L990,560 Z" fill="none" stroke="url(#acc)" stroke-width="2" opacity=".8"/><rect x="876" y="594" width="15" height="26" fill="#ffd9a0" opacity=".85" /><rect x="927" y="594" width="15" height="26" fill="#ffd9a0" opacity=".85" /><rect x="876" y="668" width="15" height="26" fill="#ffd9a0" opacity=".85" class="flick"/><rect x="927" y="668" width="15" height="26" fill="#ffd9a0" opacity=".25" /><rect x="876" y="742" width="15" height="26" fill="#ffd9a0" opacity=".25" /><rect x="927" y="742" width="15" height="26" fill="#ffd9a0" opacity=".85" /><line x1="915" y1="552" x2="915" y2="568" stroke="#26304a" stroke-width="3"/><rect x="990" y="580" width="130" height="300" fill="#1a2130"/><path d="M990,580 L1026,580 L1026,540 Q1055,522 1084,540 L1084,580 L1120,580 Z" fill="#1a2130"/><path d="M990,580 L1026,580 L1026,540 Q1055,522 1084,540 L1084,580 L1120,580 Z" fill="none" stroke="url(#acc)" stroke-width="2" opacity=".8"/><rect x="1021" y="614" width="15" height="26" fill="#ffd9a0" opacity=".85" class="flick"/><rect x="1065" y="614" width="15" height="26" fill="#ffd9a0" opacity=".25" /><rect x="1021" y="688" width="15" height="26" fill="#ffd9a0" opacity=".25" /><rect x="1065" y="688" width="15" height="26" fill="#ffd9a0" opacity=".85" /><rect x="1021" y="762" width="15" height="26" fill="#ffd9a0" opacity=".85" /><rect x="1065" y="762" width="15" height="26" fill="#ffd9a0" opacity=".25" /><line x1="1055" y1="572" x2="1055" y2="588" stroke="#26304a" stroke-width="3"/><rect x="280" y="880" width="830" height="18" fill="#0d1322"/><line x1="280" y1="880" x2="1110" y2="880" stroke="url(#acc)" stroke-width="1.8" opacity=".55"/><rect x="0" y="880" width="1920" height="400" fill="url(#wgrad)"/>
<line x1="0" y1="880" x2="1920" y2="880" stroke="url(#acc)" stroke-width="2.4" opacity=".55"/>
<line x1="91" y1="1164" x2="166" y2="1164" stroke="#43e0d0" stroke-width="2" class="shim" opacity=".3"/>
<line x1="394" y1="1114" x2="530" y2="1114" stroke="#43e0d0" stroke-width="2" class="shim d1" opacity=".3"/>
<line x1="280" y1="1180" x2="440" y2="1180" stroke="#43e0d0" stroke-width="2" class="shim d1" opacity=".3"/>
<line x1="1014" y1="1040" x2="1100" y2="1040" stroke="#43e0d0" stroke-width="2" class="shim d2" opacity=".3"/>
<line x1="451" y1="1115" x2="614" y2="1115" stroke="#7c5cff" stroke-width="2" class="shim" opacity=".3"/>
<line x1="931" y1="1157" x2="974" y2="1157" stroke="#43e0d0" stroke-width="2" class="shim d3" opacity=".3"/>
<line x1="196" y1="1212" x2="266" y2="1212" stroke="#43e0d0" stroke-width="2" class="shim d2" opacity=".3"/>
<line x1="337" y1="1215" x2="457" y2="1215" stroke="#43e0d0" stroke-width="2" class="shim d3" opacity=".3"/>
<line x1="801" y1="961" x2="893" y2="961" stroke="#7c5cff" stroke-width="2" class="shim d2" opacity=".3"/>
<line x1="1089" y1="1057" x2="1245" y2="1057" stroke="#43e0d0" stroke-width="2" class="shim" opacity=".3"/><path d="M1180,1000 Q1420,820 1660,1000" fill="none" stroke="#1d2534" stroke-width="14"/><path d="M1180,1000 Q1420,820 1660,1000" fill="none" stroke="url(#acc)" stroke-width="2.2" opacity=".8"/><circle cx="1238" cy="952" r="3.4" fill="#ffd9a0" class="tw"/><circle cx="1283" cy="929" r="3.4" fill="#ffd9a0" class="tw d1"/><circle cx="1329" cy="913" r="3.4" fill="#ffd9a0" class="tw d2"/><circle cx="1374" cy="903" r="3.4" fill="#ffd9a0" class="tw d3"/><circle cx="1420" cy="900" r="3.4" fill="#ffd9a0" class="tw d4"/><circle cx="1466" cy="903" r="3.4" fill="#ffd9a0" class="tw d5"/><circle cx="1511" cy="913" r="3.4" fill="#ffd9a0" class="tw"/><circle cx="1557" cy="929" r="3.4" fill="#ffd9a0" class="tw d1"/><circle cx="1602" cy="952" r="3.4" fill="#ffd9a0" class="tw d2"/><g opacity=".9"><circle cx="1300" cy="914" r="17" fill="none" stroke="#26304a" stroke-width="3"/>
<circle cx="1352" cy="914" r="17" fill="none" stroke="#26304a" stroke-width="3"/>
<path d="M1300,914 L1318,886 L1344,886 L1352,914 M1318,886 L1330,914 M1318,886 L1312,878 M1344,886 L1350,876" stroke="#26304a" stroke-width="2.6" fill="none"/></g><rect width="1920" height="1280" fill="url(#vig)"/>
<rect width="1920" height="1280" filter="url(#grain)" opacity="0.55" fill="none"/>
</svg>