<svg xmlns="http://www.w3.org/2000/svg" viewBox="0 0 1920 1280" width="1920" height="1280">
<defs>
<linearGradient id="sky" x1="0" y1="0" x2="0" y2="1">
 <stop offset="0" stop-color="#05060c"/><stop offset="1" stop-color="#121527"/>
</linearGradient>
<linearGradient id="acc" x1="0" y1="0" x2="1" y2="1">
 <stop offset="0" stop-color="#7c5cff"/><stop offset="1" stop-color="#43e0d0"/>
</linearGradient>
<linearGradient id="accv" x1="0" y1="0" x2="0" y2="1">
 <stop offset="0" stop-color="#7c5cff"/><stop offset="1" stop-color="#43e0d0"/>
</linearGradient>
<radialGradient id="mgrad" cx="0.35" cy="0.3" r="1">
 <stop offset="0" stop-color="#a99cff"/><stop offset="1" stop-color="#5fe6d6"/>
</radialGradient>
<radialGradient id="halo" cx="0.5" cy="0.5" r="0.5">
 <stop offset="0" stop-color="rgba(103,220,205,.34)"/><stop offset="1" stop-color="rgba(103,220,205,0)"/>
</radialGradient>
<radialGradient id="vig" cx="0.5" cy="0.46" r="0.85">
 <stop offset="0.55" stop-color="rgba(0,0,0,0)"/><stop offset="1" stop-color="rgba(0,0,4,.5)"/>
</radialGradient>
<linearGradient id="wgrad" x1="0" y1="0" x2="0" y2="1">
 <stop offset="0" stop-color="#0b111e"/><stop offset="1" stop-color="#070a12"/>
</linearGradient>
<filter id="soft" x="-40%" y="-40%" width="180%" height="180%"><feGaussianBlur stdDeviation="7"/></filter>
<filter id="soft2" x="-60%" y="-60%" width="220%" height="220%"><feGaussianBlur stdDeviation="16"/></filter>
<filter id="grain"><feTurbulence type="fractalNoise" baseFrequency="0.8" numOctaves="2" stitchTiles="stitch"/>
 <feColorMatrix type="matrix" values="0 0 0 0 1 0 0 0 0 1 0 0 0 0 1 0 0 0 0.05 0"/><feComposite operator="over" in2="SourceGraphic"/></filter>
</defs>
<style>
@keyframes tw{0%,100%{opacity:.1}50%{opacity:1}}
.tw{animation:tw 3.4s ease-in-out infinite}
.tw.d1{animation-delay:.6s}.tw.d2{animation-delay:1.2s}.tw.d3{animation-delay:1.9s}.tw.d4{animation-delay:2.6s}.tw.d5{animation-delay:3.1s}
@keyframes shoot{0%,84%{opacity:0;transform:translate(0,0)}86%{opacity:1}96%{opacity:0;transform:translate(-620px,320px)}100%{opacity:0}}
.shoot{animation:shoot 12s linear infinite}
.shoot.s2{animation-duration:19s;animation-delay:7s}
@keyframes bob{0%,100%{transform:translateY(0px) rotate(-1.2deg)}50%{transform:translateY(9px) rotate(1.4deg)}}
.bob{animation:bob 5.6s ease-in-out infinite;transform-box:fill-box;transform-origin:center}
.bob.b2{animation-duration:7.2s;animation-delay:1.1s}
@keyframes shim{0%,100%{opacity:.22}50%{opacity:.75}}
.shim{animation:shim 4.4s ease-in-out infinite}
.shim.d1{animation-delay:1.4s}.shim.d2{animation-delay:2.7s}.shim.d3{animation-delay:3.6s}
@keyframes flick{0%,91%,100%{opacity:.9}93%{opacity:.25}95%{opacity:.85}}
.flick{animation:flick 8s linear infinite}.flick.f2{animation-delay:3.5s}
@keyframes spin{from{transform:rotate(0deg)}to{transform:rotate(360deg)}}
.wheel{animation:spin 80s linear infinite;transform-box:fill-box;transform-origin:center}
@keyframes aur{0%,100%{opacity:.34;transform:skewX(0deg)}50%{opacity:.72;transform:skewX(-4deg)}}
.aur{animation:aur 9s ease-in-out infinite;transform-box:fill-box;transform-origin:bottom}
.aur.a2{animation-duration:13s;animation-delay:2.5s}
@keyframes fall{from{transform:translateY(-140px)}to{transform:translateY(150px)}}
.fall{animation:fall 9s linear infinite}.fall.f2{animation-duration:13s;animation-delay:2s}.fall.f3{animation-duration:11s;animation-delay:5s}
@keyframes sway{0%,100%{transform:rotate(-1.4deg)}50%{transform:rotate(1.4deg)}}
.sway{animation:sway 7s ease-in-out infinite;transform-box:fill-box;transform-origin:bottom center}

@media (prefers-reduced-motion:reduce){*{animation:none!important}}
</style>
<rect width="1920" height="1280" fill="url(#sky)"/><circle cx="1063" cy="610" r="2.0" fill="#c9d4e6" opacity="0.67"/>
<circle cx="1749" cy="424" r="1.0" fill="#dfe8f5" class="tw d3"/>
<circle cx="1060" cy="524" r="2.4" fill="#c9d4e6" opacity="0.27"/>
<circle cx="1750" cy="525" r="1.3" fill="#dfe8f5" class="tw d5"/>
<circle cx="691" cy="498" r="1.8" fill="#c9d4e6" opacity="0.76"/>
<circle cx="477" cy="195" r="1.5" fill="#c9d4e6" opacity="0.45"/>
<circle cx="62" cy="322" r="2.0" fill="#dfe8f5" class="tw d5"/>
<circle cx="909" cy="47" r="2.4" fill="#c9d4e6" opacity="0.73"/>
<circle cx="1523" cy="77" r="1.2" fill="#c9d4e6" opacity="0.68"/>
<circle cx="223" cy="319" r="1.3" fill="#c9d4e6" opacity="0.60"/>
<circle cx="1336" cy="379" r="1.3" fill="#c9d4e6" opacity="0.53"/>
<circle cx="227" cy="293" r="1.6" fill="#c9d4e6" opacity="0.56"/>
<circle cx="1407" cy="215" r="1.7" fill="#c9d4e6" opacity="0.31"/>
<circle cx="431" cy="497" r="1.2" fill="#dfe8f5" class="tw d3"/>
<circle cx="630" cy="473" r="1.3" fill="#c9d4e6" opacity="0.26"/>
<circle cx="692" cy="132" r="1.9" fill="#c9d4e6" opacity="0.77"/>
<circle cx="602" cy="510" r="1.7" fill="#c9d4e6" opacity="0.59"/>
<circle cx="259" cy="123" r="2.2" fill="#dfe8f5" class="tw d3"/>
<circle cx="1445" cy="566" r="1.3" fill="#dfe8f5" class="tw"/>
<circle cx="1358" cy="442" r="1.2" fill="#dfe8f5" class="tw"/>
<circle cx="1421" cy="533" r="1.8" fill="#c9d4e6" opacity="0.74"/>
<circle cx="203" cy="221" r="1.9" fill="#dfe8f5" class="tw d5"/>
<circle cx="1400" cy="588" r="1.3" fill="#c9d4e6" opacity="0.52"/>
<circle cx="846" cy="74" r="1.4" fill="#c9d4e6" opacity="0.62"/>
<circle cx="948" cy="440" r="2.3" fill="#c9d4e6" opacity="0.49"/>
<circle cx="1051" cy="299" r="1.8" fill="#dfe8f5" class="tw d4"/>
<circle cx="821" cy="438" r="1.4" fill="#dfe8f5" class="tw d4"/>
<circle cx="1433" cy="282" r="1.1" fill="#dfe8f5" class="tw d2"/>
<circle cx="1791" cy="158" r="1.2" fill="#c9d4e6" opacity="0.34"/>
<circle cx="136" cy="206" r="2.1" fill="#c9d4e6" opacity="0.64"/>
<circle cx="1811" cy="295" r="2.0" fill="#c9d4e6" opacity="0.32"/>
<circle cx="1692" cy="175" r="2.0" fill="#c9d4e6" opacity="0.33"/>
<circle cx="526" cy="177" r="2.1" fill="#c9d4e6" opacity="0.42"/>
<circle cx="661" cy="127" r="1.7" fill="#c9d4e6" opacity="0.45"/>
<circle cx="1257" cy="469" r="2.1" fill="#c9d4e6" opacity="0.62"/>
<circle cx="1674" cy="376" r="2.2" fill="#dfe8f5" class="tw d3"/>
<circle cx="456" cy="119" r="1.2" fill="#dfe8f5" class="tw d5"/>
<circle cx="1077" cy="600" r="1.4" fill="#c9d4e6" opacity="0.37"/>
<circle cx="412" cy="256" r="2.0" fill="#c9d4e6" opacity="0.42"/>
<circle cx="1830" cy="45" r="2.0" fill="#dfe8f5" class="tw d2"/>
<circle cx="1012" cy="145" r="1.3" fill="#c9d4e6" opacity="0.72"/>
<circle cx="1481" cy="411" r="2.3" fill="#c9d4e6" opacity="0.58"/><circle cx="1600" cy="240" r="135" fill="url(#halo)"/>
<circle cx="1600" cy="240" r="52" fill="url(#mgrad)"/><path d="M0,950 L0,846 L130,846 L130,816 L310,816 L310,858 L470,858 L470,828 L620,828 L620,950 Z" fill="#121826"/><path d="M1300,950 L1300,838 L1460,838 L1460,866 L1630,866 L1630,824 L1810,824 L1810,950 Z" fill="#121826"/><rect x="180" y="850" width="10" height="14" fill="#ffd9a0" opacity=".85" class="flick"/><rect x="390" y="846" width="10" height="14" fill="#ffd9a0" opacity=".85" /><rect x="1380" y="858" width="10" height="14" fill="#ffd9a0" opacity=".85" /><rect x="1700" y="850" width="10" height="14" fill="#ffd9a0" opacity=".85" class="flick"/><rect x="760" y="640" width="420" height="310" fill="#232c40"/><line x1="760" y1="674" x2="1180" y2="674" stroke="#1b2334" stroke-width="1.6" opacity=".9"/><line x1="760" y1="709" x2="1180" y2="709" stroke="#1b2334" stroke-width="1.6" opacity=".9"/><line x1="760" y1="743" x2="1180" y2="743" stroke="#1b2334" stroke-width="1.6" opacity=".9"/><line x1="760" y1="778" x2="1180" y2="778" stroke="#1b2334" stroke-width="1.6" opacity=".9"/><line x1="760" y1="812" x2="1180" y2="812" stroke="#1b2334" stroke-width="1.6" opacity=".9"/><line x1="760" y1="847" x2="1180" y2="847" stroke="#1b2334" stroke-width="1.6" opacity=".9"/><line x1="760" y1="881" x2="1180" y2="881" stroke="#1b2334" stroke-width="1.6" opacity=".9"/><line x1="760" y1="916" x2="1180" y2="916" stroke="#1b2334" stroke-width="1.6" opacity=".9"/><line x1="866" y1="640" x2="866" y2="674" stroke="#1b2334" stroke-width="1.3" opacity=".65"/><line x1="963" y1="640" x2="963" y2="674" stroke="#1b2334" stroke-width="1.3" opacity=".65"/><line x1="1068" y1="640" x2="1068" y2="674" stroke="#1b2334" stroke-width="1.3" opacity=".65"/><line x1="807" y1="674" x2="807" y2="709" stroke="#1b2334" stroke-width="1.3" opacity=".65"/><line x1="910" y1="674" x2="910" y2="709" stroke="#1b2334" stroke-width="1.3" opacity=".65"/><line x1="1020" y1="674" x2="1020" y2="709" stroke="#1b2334" stroke-width="1.3" opacity=".65"/><line x1="1127" y1="674" x2="1127" y2="709" stroke="#1b2334" stroke-width="1.3" opacity=".65"/><line x1="858" y1="709" x2="858" y2="743" stroke="#1b2334" stroke-width="1.3" opacity=".65"/><line x1="972" y1="709" x2="972" y2="743" stroke="#1b2334" stroke-width="1.3" opacity=".65"/><line x1="1072" y1="709" x2="1072" y2="743" stroke="#1b2334" stroke-width="1.3" opacity=".65"/><line x1="817" y1="743" x2="817" y2="778" stroke="#1b2334" stroke-width="1.3" opacity=".65"/><line x1="920" y1="743" x2="920" y2="778" stroke="#1b2334" stroke-width="1.3" opacity=".65"/><line x1="1020" y1="743" x2="1020" y2="778" stroke="#1b2334" stroke-width="1.3" opacity=".65"/><line x1="1123" y1="743" x2="1123" y2="778" stroke="#1b2334" stroke-width="1.3" opacity=".65"/><line x1="859" y1="778" x2="859" y2="812" stroke="#1b2334" stroke-width="1.3" opacity=".65"/><line x1="977" y1="778" x2="977" y2="812" stroke="#1b2334" stroke-width="1.3" opacity=".65"/><line x1="1083" y1="778" x2="1083" y2="812" stroke="#1b2334" stroke-width="1.3" opacity=".65"/><line x1="815" y1="812" x2="815" y2="847" stroke="#1b2334" stroke-width="1.3" opacity=".65"/><line x1="923" y1="812" x2="923" y2="847" stroke="#1b2334" stroke-width="1.3" opacity=".65"/><line x1="1019" y1="812" x2="1019" y2="847" stroke="#1b2334" stroke-width="1.3" opacity=".65"/><line x1="1128" y1="812" x2="1128" y2="847" stroke="#1b2334" stroke-width="1.3" opacity=".65"/><line x1="865" y1="847" x2="865" y2="881" stroke="#1b2334" stroke-width="1.3" opacity=".65"/><line x1="967" y1="847" x2="967" y2="881" stroke="#1b2334" stroke-width="1.3" opacity=".65"/><line x1="1077" y1="847" x2="1077" y2="881" stroke="#1b2334" stroke-width="1.3" opacity=".65"/><line x1="819" y1="881" x2="819" y2="916" stroke="#1b2334" stroke-width="1.3" opacity=".65"/><line x1="922" y1="881" x2="922" y2="916" stroke="#1b2334" stroke-width="1.3" opacity=".65"/><line x1="1017" y1="881" x2="1017" y2="916" stroke="#1b2334" stroke-width="1.3" opacity=".65"/><line x1="1133" y1="881" x2="1133" y2="916" stroke="#1b2334" stroke-width="1.3" opacity=".65"/><line x1="873" y1="916" x2="873" y2="950" stroke="#1b2334" stroke-width="1.3" opacity=".65"/><line x1="976" y1="916" x2="976" y2="950" stroke="#1b2334" stroke-width="1.3" opacity=".65"/><line x1="1075" y1="916" x2="1075" y2="950" stroke="#1b2334" stroke-width="1.3" opacity=".65"/><path d="M755,644 L970,556 L1185,644 Z" fill="#2b3550"/><path d="M755,644 L970,556 L1185,644" fill="none" stroke="#46557f" stroke-width="2.6" opacity=".9"/><circle cx="970" cy="618" r="17" fill="#0b0f18" stroke="#43e0d0" stroke-width="1.8" opacity=".9"/><rect x="895" y="436" width="150" height="126" fill="#232c40"/><line x1="895" y1="468" x2="1045" y2="468" stroke="#1b2334" stroke-width="1.6" opacity=".9"/><line x1="895" y1="499" x2="1045" y2="499" stroke="#1b2334" stroke-width="1.6" opacity=".9"/><line x1="895" y1="530" x2="1045" y2="530" stroke="#1b2334" stroke-width="1.6" opacity=".9"/><line x1="972" y1="436" x2="972" y2="468" stroke="#1b2334" stroke-width="1.3" opacity=".65"/><line x1="935" y1="468" x2="935" y2="499" stroke="#1b2334" stroke-width="1.3" opacity=".65"/><line x1="1015" y1="468" x2="1015" y2="499" stroke="#1b2334" stroke-width="1.3" opacity=".65"/><line x1="964" y1="499" x2="964" y2="530" stroke="#1b2334" stroke-width="1.3" opacity=".65"/><line x1="934" y1="530" x2="934" y2="562" stroke="#1b2334" stroke-width="1.3" opacity=".65"/><line x1="1007" y1="530" x2="1007" y2="562" stroke="#1b2334" stroke-width="1.3" opacity=".65"/><rect x="895" y="436" width="150" height="126" fill="none" stroke="#46557f" stroke-width="1.8" opacity=".8"/><path d="M895,436 L970,392 L1045,436 Z" fill="#2b3550" stroke="#46557f" stroke-width="2"/><line x1="970" y1="392" x2="970" y2="368" stroke="#46557f" stroke-width="2.4"/><path d="M962,368 l8,-12 l8,12 M970,356 v12" stroke="#46557f" stroke-width="2" fill="none"/><path d="M916,500 a14,17 0 0 1 28,0 v42 h-28 Z" fill="#0b0f18" stroke="#43e0d0" stroke-width="1.4"/><path d="M924,516 q6,-10 12,0 l-2,14 h-8 Z" fill="#ffd9a0" opacity=".85"/><path d="M956,500 a14,17 0 0 1 28,0 v42 h-28 Z" fill="#0b0f18" stroke="#43e0d0" stroke-width="1.4"/><path d="M964,516 q6,-10 12,0 l-2,14 h-8 Z" fill="#ffd9a0" opacity=".85"/><path d="M996,500 a14,17 0 0 1 28,0 v42 h-28 Z" fill="#0b0f18" stroke="#43e0d0" stroke-width="1.4"/><path d="M1004,516 q6,-10 12,0 l-2,14 h-8 Z" fill="#ffd9a0" opacity=".85"/><path d="M910,950 v-96 a60,68 0 0 1 120,0 v96 Z" fill="#2b3550"/><path d="M922,950 v-110 a48,56 0 0 1 96,0 v110 Z" fill="#182031"/><path d="M934,950 v-124 a36,44 0 0 1 72,0 v124 Z" fill="#0b0f18"/><path d="M910,950 v-110 a60,68 0 0 1 120,0 v110" fill="none" stroke="#46557f" stroke-width="2" opacity=".7"/><path d="M810,760 a17,19 0 0 1 34,0 v50 h-34 Z" fill="#0b0f18" stroke="#7c5cff" stroke-width="1.4" opacity=".85"/><path d="M1096,760 a17,19 0 0 1 34,0 v50 h-34 Z" fill="#0b0f18" stroke="#7c5cff" stroke-width="1.4" opacity=".85"/><rect x="760" y="640" width="420" height="310" fill="none" stroke="#46557f" stroke-width="2" opacity=".6"/><rect x="0" y="950" width="1920" height="330" fill="#0a0e17"/><line x1="0" y1="950" x2="1920" y2="950" stroke="url(#acc)" stroke-width="2" opacity=".45"/><line x1="700" y1="950" x2="700" y2="904" stroke="#222b42" stroke-width="4"/><rect x="694" y="890" width="12" height="14" rx="2" fill="#222b42"/><circle cx="700" cy="897" r="3.4" fill="#ffd9a0" class="flick" opacity=".9"/><circle cx="700" cy="897" r="9" fill="#ffd9a0" opacity=".12"/><line x1="1240" y1="950" x2="1240" y2="904" stroke="#222b42" stroke-width="4"/><rect x="1234" y="890" width="12" height="14" rx="2" fill="#222b42"/><circle cx="1240" cy="897" r="3.4" fill="#ffd9a0" class="flick" opacity=".9"/><circle cx="1240" cy="897" r="9" fill="#ffd9a0" opacity=".12"/><g class="sway"><path d="M200,950 Q210,834 226,740" fill="none" stroke="#232c40" stroke-width="14" stroke-linecap="round"/><path d="M200,950 Q210,834 226,740" fill="none" stroke="url(#acc)" stroke-width="3.2" opacity=".9"/><path d="M226,740 Q185,715 145,721" fill="none" stroke="url(#acc)" stroke-width="3.4" stroke-linecap="round" opacity=".85"/><path d="M226,740 Q228,704 230,694" fill="none" stroke="url(#acc)" stroke-width="3.4" stroke-linecap="round" opacity=".85"/><path d="M226,740 Q260,710 288,697" fill="none" stroke="url(#acc)" stroke-width="3.4" stroke-linecap="round" opacity=".85"/><path d="M226,740 Q272,723 319,739" fill="none" stroke="url(#acc)" stroke-width="3.4" stroke-linecap="round" opacity=".85"/><path d="M226,740 Q241,743 257,789" fill="none" stroke="url(#acc)" stroke-width="3.4" stroke-linecap="round" opacity=".85"/><path d="M226,740 Q210,743 197,798" fill="none" stroke="url(#acc)" stroke-width="3.4" stroke-linecap="round" opacity=".85"/></g><g class="sway"><path d="M1730,950 Q1721,848 1708,765" fill="none" stroke="#232c40" stroke-width="14" stroke-linecap="round"/><path d="M1730,950 Q1721,848 1708,765" fill="none" stroke="url(#acc)" stroke-width="3.2" opacity=".9"/><path d="M1708,765 Q1672,737 1648,735" fill="none" stroke="url(#acc)" stroke-width="3.4" stroke-linecap="round" opacity=".85"/><path d="M1708,765 Q1712,729 1717,701" fill="none" stroke="url(#acc)" stroke-width="3.4" stroke-linecap="round" opacity=".85"/><path d="M1708,765 Q1743,736 1784,728" fill="none" stroke="url(#acc)" stroke-width="3.4" stroke-linecap="round" opacity=".85"/><path d="M1708,765 Q1754,749 1800,763" fill="none" stroke="url(#acc)" stroke-width="3.4" stroke-linecap="round" opacity=".85"/><path d="M1708,765 Q1725,768 1736,804" fill="none" stroke="url(#acc)" stroke-width="3.4" stroke-linecap="round" opacity=".85"/><path d="M1708,765 Q1700,769 1693,812" fill="none" stroke="url(#acc)" stroke-width="3.4" stroke-linecap="round" opacity=".85"/></g><rect width="1920" height="1280" fill="url(#vig)"/>
<rect width="1920" height="1280" filter="url(#grain)" opacity="0.55" fill="none"/>
</svg>