<svg xmlns="http://www.w3.org/2000/svg" viewBox="0 0 1920 1280" width="1920" height="1280">
<defs>
<linearGradient id="sky" x1="0" y1="0" x2="0" y2="1">
 <stop offset="0" stop-color="#05070c"/><stop offset="1" stop-color="#0d1626"/>
</linearGradient>
<linearGradient id="acc" x1="0" y1="0" x2="1" y2="1">
 <stop offset="0" stop-color="#7c5cff"/><stop offset="1" stop-color="#43e0d0"/>
</linearGradient>
<linearGradient id="accv" x1="0" y1="0" x2="0" y2="1">
 <stop offset="0" stop-color="#7c5cff"/><stop offset="1" stop-color="#43e0d0"/>
</linearGradient>
<radialGradient id="mgrad" cx="0.35" cy="0.3" r="1">
 <stop offset="0" stop-color="#a99cff"/><stop offset="1" stop-color="#5fe6d6"/>
</radialGradient>
<radialGradient id="halo" cx="0.5" cy="0.5" r="0.5">
 <stop offset="0" stop-color="rgba(103,220,205,.34)"/><stop offset="1" stop-color="rgba(103,220,205,0)"/>
</radialGradient>
<radialGradient id="vig" cx="0.5" cy="0.46" r="0.85">
 <stop offset="0.55" stop-color="rgba(0,0,0,0)"/><stop offset="1" stop-color="rgba(0,0,4,.5)"/>
</radialGradient>
<linearGradient id="wgrad" x1="0" y1="0" x2="0" y2="1">
 <stop offset="0" stop-color="#0b111e"/><stop offset="1" stop-color="#070a12"/>
</linearGradient>
<filter id="soft" x="-40%" y="-40%" width="180%" height="180%"><feGaussianBlur stdDeviation="7"/></filter>
<filter id="soft2" x="-60%" y="-60%" width="220%" height="220%"><feGaussianBlur stdDeviation="16"/></filter>
<filter id="grain"><feTurbulence type="fractalNoise" baseFrequency="0.8" numOctaves="2" stitchTiles="stitch"/>
 <feColorMatrix type="matrix" values="0 0 0 0 1 0 0 0 0 1 0 0 0 0 1 0 0 0 0.05 0"/><feComposite operator="over" in2="SourceGraphic"/></filter>
</defs>
<style>
@keyframes tw{0%,100%{opacity:.1}50%{opacity:1}}
.tw{animation:tw 3.4s ease-in-out infinite}
.tw.d1{animation-delay:.6s}.tw.d2{animation-delay:1.2s}.tw.d3{animation-delay:1.9s}.tw.d4{animation-delay:2.6s}.tw.d5{animation-delay:3.1s}
@keyframes shoot{0%,84%{opacity:0;transform:translate(0,0)}86%{opacity:1}96%{opacity:0;transform:translate(-620px,320px)}100%{opacity:0}}
.shoot{animation:shoot 12s linear infinite}
.shoot.s2{animation-duration:19s;animation-delay:7s}
@keyframes bob{0%,100%{transform:translateY(0px) rotate(-1.2deg)}50%{transform:translateY(9px) rotate(1.4deg)}}
.bob{animation:bob 5.6s ease-in-out infinite;transform-box:fill-box;transform-origin:center}
.bob.b2{animation-duration:7.2s;animation-delay:1.1s}
@keyframes shim{0%,100%{opacity:.22}50%{opacity:.75}}
.shim{animation:shim 4.4s ease-in-out infinite}
.shim.d1{animation-delay:1.4s}.shim.d2{animation-delay:2.7s}.shim.d3{animation-delay:3.6s}
@keyframes flick{0%,91%,100%{opacity:.9}93%{opacity:.25}95%{opacity:.85}}
.flick{animation:flick 8s linear infinite}.flick.f2{animation-delay:3.5s}
@keyframes spin{from{transform:rotate(0deg)}to{transform:rotate(360deg)}}
.wheel{animation:spin 80s linear infinite;transform-box:fill-box;transform-origin:center}
@keyframes aur{0%,100%{opacity:.34;transform:skewX(0deg)}50%{opacity:.72;transform:skewX(-4deg)}}
.aur{animation:aur 9s ease-in-out infinite;transform-box:fill-box;transform-origin:bottom}
.aur.a2{animation-duration:13s;animation-delay:2.5s}
@keyframes fall{from{transform:translateY(-140px)}to{transform:translateY(150px)}}
.fall{animation:fall 9s linear infinite}.fall.f2{animation-duration:13s;animation-delay:2s}.fall.f3{animation-duration:11s;animation-delay:5s}
@keyframes sway{0%,100%{transform:rotate(-1.4deg)}50%{transform:rotate(1.4deg)}}
.sway{animation:sway 7s ease-in-out infinite;transform-box:fill-box;transform-origin:bottom center}

@media (prefers-reduced-motion:reduce){*{animation:none!important}}
</style>
<rect width="1920" height="1280" fill="url(#sky)"/><circle cx="990" cy="524" r="2.2" fill="#c9d4e6" opacity="0.72"/>
<circle cx="1438" cy="548" r="0.9" fill="#dfe8f5" class="tw d5"/>
<circle cx="1170" cy="545" r="1.7" fill="#c9d4e6" opacity="0.43"/>
<circle cx="827" cy="162" r="1.9" fill="#dfe8f5" class="tw d4"/>
<circle cx="889" cy="333" r="1.0" fill="#c9d4e6" opacity="0.71"/>
<circle cx="1794" cy="372" r="1.6" fill="#c9d4e6" opacity="0.48"/>
<circle cx="508" cy="230" r="1.0" fill="#c9d4e6" opacity="0.51"/>
<circle cx="576" cy="404" r="2.3" fill="#dfe8f5" class="tw d3"/>
<circle cx="1251" cy="349" r="1.8" fill="#c9d4e6" opacity="0.37"/>
<circle cx="279" cy="225" r="1.8" fill="#dfe8f5" class="tw d2"/>
<circle cx="864" cy="558" r="2.3" fill="#c9d4e6" opacity="0.51"/>
<circle cx="1806" cy="495" r="2.2" fill="#c9d4e6" opacity="0.37"/>
<circle cx="527" cy="139" r="0.9" fill="#c9d4e6" opacity="0.31"/>
<circle cx="1151" cy="386" r="1.7" fill="#c9d4e6" opacity="0.46"/>
<circle cx="138" cy="628" r="1.1" fill="#c9d4e6" opacity="0.58"/>
<circle cx="103" cy="646" r="2.3" fill="#c9d4e6" opacity="0.51"/>
<circle cx="1074" cy="190" r="2.0" fill="#c9d4e6" opacity="0.31"/>
<circle cx="1133" cy="229" r="1.7" fill="#dfe8f5" class="tw"/>
<circle cx="1058" cy="560" r="1.2" fill="#c9d4e6" opacity="0.49"/>
<circle cx="128" cy="496" r="1.5" fill="#c9d4e6" opacity="0.28"/>
<circle cx="684" cy="248" r="1.4" fill="#dfe8f5" class="tw d4"/>
<circle cx="987" cy="432" r="1.6" fill="#c9d4e6" opacity="0.50"/>
<circle cx="954" cy="510" r="2.1" fill="#c9d4e6" opacity="0.63"/>
<circle cx="1624" cy="273" r="1.6" fill="#dfe8f5" class="tw d5"/>
<circle cx="1551" cy="538" r="1.2" fill="#dfe8f5" class="tw d2"/>
<circle cx="302" cy="444" r="2.1" fill="#c9d4e6" opacity="0.29"/>
<circle cx="1170" cy="656" r="1.0" fill="#dfe8f5" class="tw d1"/>
<circle cx="320" cy="468" r="1.6" fill="#c9d4e6" opacity="0.56"/>
<circle cx="362" cy="210" r="1.2" fill="#c9d4e6" opacity="0.70"/>
<circle cx="986" cy="294" r="1.5" fill="#c9d4e6" opacity="0.56"/>
<circle cx="236" cy="334" r="1.2" fill="#c9d4e6" opacity="0.55"/>
<circle cx="1220" cy="520" r="2.2" fill="#c9d4e6" opacity="0.51"/>
<circle cx="1078" cy="451" r="1.6" fill="#c9d4e6" opacity="0.49"/>
<circle cx="56" cy="351" r="1.8" fill="#c9d4e6" opacity="0.62"/>
<circle cx="647" cy="34" r="0.9" fill="#c9d4e6" opacity="0.43"/>
<circle cx="40" cy="188" r="1.8" fill="#dfe8f5" class="tw d2"/>
<circle cx="1698" cy="21" r="1.8" fill="#dfe8f5" class="tw"/>
<circle cx="55" cy="170" r="1.5" fill="#dfe8f5" class="tw"/>
<circle cx="1103" cy="466" r="1.1" fill="#c9d4e6" opacity="0.49"/>
<circle cx="832" cy="22" r="2.0" fill="#dfe8f5" class="tw d1"/>
<circle cx="724" cy="480" r="1.5" fill="#dfe8f5" class="tw d4"/>
<circle cx="1612" cy="559" r="1.7" fill="#c9d4e6" opacity="0.38"/>
<circle cx="789" cy="308" r="1.3" fill="#c9d4e6" opacity="0.52"/>
<circle cx="541" cy="111" r="1.8" fill="#c9d4e6" opacity="0.42"/><circle cx="1520" cy="230" r="151" fill="url(#halo)"/>
<circle cx="1520" cy="230" r="58" fill="url(#mgrad)"/><path d="M370,950 L328,873 C262,748 298,576 376,499 L424,470 L490,518 C580,604 568,806 520,883 L478,950 Z" fill="#1b2334"/><path d="M370,950 L328,873 C262,748 298,576 376,499 L424,470 L490,518 C580,604 568,806 520,883 L478,950 Z" fill="none" stroke="url(#acc)" stroke-width="2" opacity=".7"/><path d="M908,950 L879,897 C832,811 858,693 912,640 L946,620 L992,653 C1055,712 1047,851 1013,904 L984,950 Z" fill="#1b2334"/><path d="M908,950 L879,897 C832,811 858,693 912,640 L946,620 L992,653 C1055,712 1047,851 1013,904 L984,950 Z" fill="none" stroke="url(#acc)" stroke-width="2" opacity=".7"/><path d="M1552,950 L1504,860 C1430,715 1470,513 1559,424 L1613,390 L1688,446 C1790,547 1776,782 1722,872 L1674,950 Z" fill="#1b2334"/><path d="M1552,950 L1504,860 C1430,715 1470,513 1559,424 L1613,390 L1688,446 C1790,547 1776,782 1722,872 L1674,950 Z" fill="none" stroke="url(#acc)" stroke-width="2" opacity=".7"/><rect x="0" y="950" width="1920" height="330" fill="url(#wgrad)"/>
<line x1="0" y1="950" x2="1920" y2="950" stroke="url(#acc)" stroke-width="2.4" opacity=".55"/>
<line x1="792" y1="1125" x2="872" y2="1125" stroke="#43e0d0" stroke-width="2" class="shim d2" opacity=".3"/>
<line x1="1110" y1="1108" x2="1236" y2="1108" stroke="#7c5cff" stroke-width="2" class="shim d4" opacity=".3"/>
<line x1="1612" y1="1009" x2="1757" y2="1009" stroke="#7c5cff" stroke-width="2" class="shim d4" opacity=".3"/>
<line x1="939" y1="1082" x2="1124" y2="1082" stroke="#7c5cff" stroke-width="2" class="shim d4" opacity=".3"/>
<line x1="756" y1="1199" x2="918" y2="1199" stroke="#7c5cff" stroke-width="2" class="shim" opacity=".3"/>
<line x1="483" y1="1099" x2="603" y2="1099" stroke="#7c5cff" stroke-width="2" class="shim d1" opacity=".3"/>
<line x1="746" y1="1122" x2="822" y2="1122" stroke="#43e0d0" stroke-width="2" class="shim d1" opacity=".3"/>
<line x1="839" y1="1008" x2="959" y2="1008" stroke="#43e0d0" stroke-width="2" class="shim d1" opacity=".3"/>
<line x1="1583" y1="1038" x2="1747" y2="1038" stroke="#43e0d0" stroke-width="2" class="shim d2" opacity=".3"/>
<line x1="207" y1="1152" x2="256" y2="1152" stroke="#43e0d0" stroke-width="2" class="shim d1" opacity=".3"/>
<line x1="1506" y1="1070" x2="1606" y2="1070" stroke="#7c5cff" stroke-width="2" class="shim d4" opacity=".3"/>
<line x1="1151" y1="1004" x2="1193" y2="1004" stroke="#7c5cff" stroke-width="2" class="shim d3" opacity=".3"/>
<line x1="259" y1="1083" x2="415" y2="1083" stroke="#43e0d0" stroke-width="2" class="shim d3" opacity=".3"/>
<line x1="936" y1="1223" x2="990" y2="1223" stroke="#43e0d0" stroke-width="2" class="shim" opacity=".3"/>
<line x1="1122" y1="1239" x2="1173" y2="1239" stroke="#7c5cff" stroke-width="2" class="shim d2" opacity=".3"/>
<line x1="1033" y1="1225" x2="1205" y2="1225" stroke="#43e0d0" stroke-width="2" class="shim d2" opacity=".3"/><g class="bob"><path d="M760,1060 Q800,1076 900,1076 L1010,1072 Q1050,1068 1074,1050 L1058,1076 Q1010,1092 900,1092 Q806,1090 764,1072 Z" fill="#1a2130" stroke="url(#acc)" stroke-width="2"/>
<path d="M764,1068 Q740,1030 750,984" stroke="url(#acc)" stroke-width="4.4" fill="none" stroke-linecap="round"/>
<path d="M750,984 q-10,14 -22,18 M750,984 q12,10 8,26" stroke="#43e0d0" stroke-width="2.4" fill="none" opacity=".9"/>
<line x1="1074" y1="1050" x2="1148" y2="1006" stroke="#26304a" stroke-width="5"/>
<line x1="1148" y1="1006" x2="1188" y2="1052" stroke="#26304a" stroke-width="4"/>
</g><rect width="1920" height="1280" fill="url(#vig)"/>
<rect width="1920" height="1280" filter="url(#grain)" opacity="0.55" fill="none"/>
</svg>