<svg xmlns="http://www.w3.org/2000/svg" viewBox="0 0 1920 1280" width="1920" height="1280">
<defs>
<linearGradient id="sky" x1="0" y1="0" x2="0" y2="1">
 <stop offset="0" stop-color="#04060b"/><stop offset="1" stop-color="#101426"/>
</linearGradient>
<linearGradient id="acc" x1="0" y1="0" x2="1" y2="1">
 <stop offset="0" stop-color="#7c5cff"/><stop offset="1" stop-color="#43e0d0"/>
</linearGradient>
<linearGradient id="accv" x1="0" y1="0" x2="0" y2="1">
 <stop offset="0" stop-color="#7c5cff"/><stop offset="1" stop-color="#43e0d0"/>
</linearGradient>
<radialGradient id="mgrad" cx="0.35" cy="0.3" r="1">
 <stop offset="0" stop-color="#a99cff"/><stop offset="1" stop-color="#5fe6d6"/>
</radialGradient>
<radialGradient id="halo" cx="0.5" cy="0.5" r="0.5">
 <stop offset="0" stop-color="rgba(103,220,205,.34)"/><stop offset="1" stop-color="rgba(103,220,205,0)"/>
</radialGradient>
<radialGradient id="vig" cx="0.5" cy="0.46" r="0.85">
 <stop offset="0.55" stop-color="rgba(0,0,0,0)"/><stop offset="1" stop-color="rgba(0,0,4,.5)"/>
</radialGradient>
<linearGradient id="wgrad" x1="0" y1="0" x2="0" y2="1">
 <stop offset="0" stop-color="#0b111e"/><stop offset="1" stop-color="#070a12"/>
</linearGradient>
<filter id="soft" x="-40%" y="-40%" width="180%" height="180%"><feGaussianBlur stdDeviation="7"/></filter>
<filter id="soft2" x="-60%" y="-60%" width="220%" height="220%"><feGaussianBlur stdDeviation="16"/></filter>
<filter id="grain"><feTurbulence type="fractalNoise" baseFrequency="0.8" numOctaves="2" stitchTiles="stitch"/>
 <feColorMatrix type="matrix" values="0 0 0 0 1 0 0 0 0 1 0 0 0 0 1 0 0 0 0.05 0"/><feComposite operator="over" in2="SourceGraphic"/></filter>
</defs>
<style>
@keyframes tw{0%,100%{opacity:.1}50%{opacity:1}}
.tw{animation:tw 3.4s ease-in-out infinite}
.tw.d1{animation-delay:.6s}.tw.d2{animation-delay:1.2s}.tw.d3{animation-delay:1.9s}.tw.d4{animation-delay:2.6s}.tw.d5{animation-delay:3.1s}
@keyframes shoot{0%,84%{opacity:0;transform:translate(0,0)}86%{opacity:1}96%{opacity:0;transform:translate(-620px,320px)}100%{opacity:0}}
.shoot{animation:shoot 12s linear infinite}
.shoot.s2{animation-duration:19s;animation-delay:7s}
@keyframes bob{0%,100%{transform:translateY(0px) rotate(-1.2deg)}50%{transform:translateY(9px) rotate(1.4deg)}}
.bob{animation:bob 5.6s ease-in-out infinite;transform-box:fill-box;transform-origin:center}
.bob.b2{animation-duration:7.2s;animation-delay:1.1s}
@keyframes shim{0%,100%{opacity:.22}50%{opacity:.75}}
.shim{animation:shim 4.4s ease-in-out infinite}
.shim.d1{animation-delay:1.4s}.shim.d2{animation-delay:2.7s}.shim.d3{animation-delay:3.6s}
@keyframes flick{0%,91%,100%{opacity:.9}93%{opacity:.25}95%{opacity:.85}}
.flick{animation:flick 8s linear infinite}.flick.f2{animation-delay:3.5s}
@keyframes spin{from{transform:rotate(0deg)}to{transform:rotate(360deg)}}
.wheel{animation:spin 80s linear infinite;transform-box:fill-box;transform-origin:center}
@keyframes aur{0%,100%{opacity:.34;transform:skewX(0deg)}50%{opacity:.72;transform:skewX(-4deg)}}
.aur{animation:aur 9s ease-in-out infinite;transform-box:fill-box;transform-origin:bottom}
.aur.a2{animation-duration:13s;animation-delay:2.5s}
@keyframes fall{from{transform:translateY(-140px)}to{transform:translateY(150px)}}
.fall{animation:fall 9s linear infinite}.fall.f2{animation-duration:13s;animation-delay:2s}.fall.f3{animation-duration:11s;animation-delay:5s}
@keyframes sway{0%,100%{transform:rotate(-1.4deg)}50%{transform:rotate(1.4deg)}}
.sway{animation:sway 7s ease-in-out infinite;transform-box:fill-box;transform-origin:bottom center}

@media (prefers-reduced-motion:reduce){*{animation:none!important}}
</style>
<rect width="1920" height="1280" fill="url(#sky)"/><circle cx="1135" cy="598" r="1.3" fill="#c9d4e6" opacity="0.50"/>
<circle cx="1766" cy="601" r="1.8" fill="#dfe8f5" class="tw d1"/>
<circle cx="968" cy="172" r="2.3" fill="#c9d4e6" opacity="0.30"/>
<circle cx="1506" cy="340" r="2.4" fill="#c9d4e6" opacity="0.54"/>
<circle cx="547" cy="52" r="1.6" fill="#c9d4e6" opacity="0.35"/>
<circle cx="44" cy="391" r="1.1" fill="#dfe8f5" class="tw d2"/>
<circle cx="1455" cy="305" r="1.7" fill="#c9d4e6" opacity="0.60"/>
<circle cx="1437" cy="474" r="1.4" fill="#c9d4e6" opacity="0.67"/>
<circle cx="77" cy="168" r="1.5" fill="#dfe8f5" class="tw d2"/>
<circle cx="1763" cy="495" r="2.2" fill="#dfe8f5" class="tw d1"/>
<circle cx="957" cy="534" r="1.7" fill="#dfe8f5" class="tw d3"/>
<circle cx="1710" cy="493" r="1.7" fill="#dfe8f5" class="tw d2"/>
<circle cx="562" cy="298" r="2.2" fill="#c9d4e6" opacity="0.71"/>
<circle cx="1609" cy="359" r="1.5" fill="#c9d4e6" opacity="0.46"/>
<circle cx="385" cy="163" r="2.0" fill="#c9d4e6" opacity="0.67"/>
<circle cx="580" cy="26" r="2.1" fill="#c9d4e6" opacity="0.32"/>
<circle cx="1283" cy="599" r="1.8" fill="#c9d4e6" opacity="0.56"/>
<circle cx="1479" cy="201" r="1.6" fill="#c9d4e6" opacity="0.40"/>
<circle cx="31" cy="347" r="1.0" fill="#c9d4e6" opacity="0.66"/>
<circle cx="1865" cy="574" r="1.6" fill="#dfe8f5" class="tw"/>
<circle cx="1601" cy="82" r="1.7" fill="#c9d4e6" opacity="0.72"/>
<circle cx="837" cy="275" r="1.2" fill="#dfe8f5" class="tw"/>
<circle cx="1424" cy="527" r="1.0" fill="#dfe8f5" class="tw d4"/>
<circle cx="1599" cy="600" r="2.3" fill="#c9d4e6" opacity="0.40"/>
<circle cx="1617" cy="93" r="1.8" fill="#c9d4e6" opacity="0.79"/>
<circle cx="621" cy="58" r="1.4" fill="#dfe8f5" class="tw d3"/>
<circle cx="62" cy="397" r="1.9" fill="#dfe8f5" class="tw d4"/>
<circle cx="32" cy="221" r="2.0" fill="#c9d4e6" opacity="0.59"/>
<circle cx="698" cy="210" r="1.7" fill="#c9d4e6" opacity="0.49"/>
<circle cx="828" cy="151" r="2.3" fill="#c9d4e6" opacity="0.57"/>
<circle cx="1040" cy="159" r="2.1" fill="#dfe8f5" class="tw"/>
<circle cx="897" cy="565" r="1.0" fill="#dfe8f5" class="tw d2"/>
<circle cx="716" cy="350" r="2.1" fill="#c9d4e6" opacity="0.58"/>
<circle cx="528" cy="146" r="1.5" fill="#c9d4e6" opacity="0.80"/>
<circle cx="974" cy="462" r="2.3" fill="#dfe8f5" class="tw d1"/>
<circle cx="750" cy="106" r="1.8" fill="#c9d4e6" opacity="0.65"/>
<circle cx="1867" cy="612" r="1.2" fill="#dfe8f5" class="tw"/>
<circle cx="1752" cy="51" r="1.5" fill="#dfe8f5" class="tw d4"/>
<circle cx="976" cy="598" r="1.5" fill="#c9d4e6" opacity="0.43"/>
<circle cx="1713" cy="535" r="1.7" fill="#dfe8f5" class="tw d2"/>
<circle cx="240" cy="571" r="0.9" fill="#c9d4e6" opacity="0.49"/>
<circle cx="597" cy="578" r="2.1" fill="#dfe8f5" class="tw d1"/>
<circle cx="632" cy="604" r="2.3" fill="#c9d4e6" opacity="0.58"/>
<circle cx="666" cy="384" r="2.2" fill="#dfe8f5" class="tw d3"/>
<circle cx="166" cy="227" r="1.4" fill="#c9d4e6" opacity="0.59"/>
<circle cx="402" cy="441" r="1.3" fill="#dfe8f5" class="tw d1"/><circle cx="400" cy="230" r="135" fill="url(#halo)"/>
<circle cx="400" cy="230" r="52" fill="url(#mgrad)"/><path d="M0,950 L0,830 L150,830 L150,796 L200,774 L250,796 L250,830 L430,830 L430,806 L600,806 L600,840 L800,840 L800,950 Z" fill="#10151f"/><rect x="100" y="856" width="9" height="13" fill="#ffd9a0" opacity=".85" class="flick"/><rect x="330" y="850" width="9" height="13" fill="#ffd9a0" opacity=".85" /><rect x="520" y="856" width="9" height="13" fill="#ffd9a0" opacity=".85" class="flick"/><rect x="700" y="868" width="9" height="13" fill="#ffd9a0" opacity=".85" /><path d="M918,950 L930,932 L942,915 L954,898 L966,880 L976,862 L987,845 L997,828 L1008,810 L1018,792 L1027,775 L1036,758 L1045,740 L1055,722 L1062,705 L1066,688 L1073,670 L1080,652 L1087,635 L1093,618 L1100,600 L1107,582 L1114,565 L1117,548 L1120,530 L1123,512 L1124,495 L1128,477 L1133,460 L1137,442 L1141,425 L1146,408 L1150,390 L1153,372 L1157,355 L1160,338 L1163,320 L1166,302 L1169,285 L1171,268 L1173,250 L1187,250 L1189,268 L1191,285 L1194,302 L1197,320 L1200,338 L1203,355 L1207,372 L1210,390 L1214,408 L1219,425 L1223,442 L1227,460 L1232,477 L1236,495 L1237,512 L1240,530 L1243,548 L1246,565 L1253,582 L1260,600 L1267,618 L1273,635 L1280,652 L1287,670 L1294,688 L1298,705 L1305,722 L1315,740 L1324,758 L1333,775 L1342,792 L1352,810 L1363,828 L1373,845 L1384,862 L1394,880 L1406,898 L1418,915 L1430,932 L1442,950 Z" fill="#0e1322" opacity=".55"/><line x1="918" y1="950" x2="1030" y2="933" stroke="#313d60" stroke-width="1.7"/><line x1="1023" y1="950" x2="930" y2="933" stroke="#313d60" stroke-width="1.7"/><line x1="1023" y1="950" x2="1130" y2="933" stroke="#313d60" stroke-width="1.7"/><line x1="1128" y1="950" x2="1030" y2="933" stroke="#313d60" stroke-width="1.7"/><line x1="1128" y1="950" x2="1230" y2="933" stroke="#313d60" stroke-width="1.7"/><line x1="1232" y1="950" x2="1130" y2="933" stroke="#313d60" stroke-width="1.7"/><line x1="1232" y1="950" x2="1330" y2="933" stroke="#313d60" stroke-width="1.7"/><line x1="1337" y1="950" x2="1230" y2="933" stroke="#313d60" stroke-width="1.7"/><line x1="1337" y1="950" x2="1430" y2="933" stroke="#313d60" stroke-width="1.7"/><line x1="1442" y1="950" x2="1330" y2="933" stroke="#313d60" stroke-width="1.7"/><line x1="918" y1="950" x2="1442" y2="950" stroke="#222b42" stroke-width="2"/><line x1="930" y1="933" x2="1037" y2="916" stroke="#313d60" stroke-width="1.7"/><line x1="1030" y1="933" x2="942" y2="916" stroke="#313d60" stroke-width="1.7"/><line x1="1030" y1="933" x2="1132" y2="916" stroke="#313d60" stroke-width="1.7"/><line x1="1130" y1="933" x2="1037" y2="916" stroke="#313d60" stroke-width="1.7"/><line x1="1130" y1="933" x2="1228" y2="916" stroke="#313d60" stroke-width="1.7"/><line x1="1230" y1="933" x2="1132" y2="916" stroke="#313d60" stroke-width="1.7"/><line x1="1230" y1="933" x2="1323" y2="916" stroke="#313d60" stroke-width="1.7"/><line x1="1330" y1="933" x2="1228" y2="916" stroke="#313d60" stroke-width="1.7"/><line x1="1330" y1="933" x2="1418" y2="916" stroke="#313d60" stroke-width="1.7"/><line x1="1430" y1="933" x2="1323" y2="916" stroke="#313d60" stroke-width="1.7"/><line x1="930" y1="933" x2="1430" y2="933" stroke="#222b42" stroke-width="2"/><line x1="942" y1="916" x2="1044" y2="898" stroke="#313d60" stroke-width="1.7"/><line x1="1037" y1="916" x2="953" y2="898" stroke="#313d60" stroke-width="1.7"/><line x1="1037" y1="916" x2="1135" y2="898" stroke="#313d60" stroke-width="1.7"/><line x1="1132" y1="916" x2="1044" y2="898" stroke="#313d60" stroke-width="1.7"/><line x1="1132" y1="916" x2="1225" y2="898" stroke="#313d60" stroke-width="1.7"/><line x1="1228" y1="916" x2="1135" y2="898" stroke="#313d60" stroke-width="1.7"/><line x1="1228" y1="916" x2="1316" y2="898" stroke="#313d60" stroke-width="1.7"/><line x1="1323" y1="916" x2="1225" y2="898" stroke="#313d60" stroke-width="1.7"/><line x1="1323" y1="916" x2="1407" y2="898" stroke="#313d60" stroke-width="1.7"/><line x1="1418" y1="916" x2="1316" y2="898" stroke="#313d60" stroke-width="1.7"/><line x1="942" y1="916" x2="1418" y2="916" stroke="#222b42" stroke-width="2"/><line x1="953" y1="898" x2="1051" y2="881" stroke="#313d60" stroke-width="1.7"/><line x1="1044" y1="898" x2="965" y2="881" stroke="#313d60" stroke-width="1.7"/><line x1="1044" y1="898" x2="1137" y2="881" stroke="#313d60" stroke-width="1.7"/><line x1="1135" y1="898" x2="1051" y2="881" stroke="#313d60" stroke-width="1.7"/><line x1="1135" y1="898" x2="1223" y2="881" stroke="#313d60" stroke-width="1.7"/><line x1="1225" y1="898" x2="1137" y2="881" stroke="#313d60" stroke-width="1.7"/><line x1="1225" y1="898" x2="1309" y2="881" stroke="#313d60" stroke-width="1.7"/><line x1="1316" y1="898" x2="1223" y2="881" stroke="#313d60" stroke-width="1.7"/><line x1="1316" y1="898" x2="1395" y2="881" stroke="#313d60" stroke-width="1.7"/><line x1="1407" y1="898" x2="1309" y2="881" stroke="#313d60" stroke-width="1.7"/><line x1="953" y1="898" x2="1407" y2="898" stroke="#222b42" stroke-width="2"/><line x1="965" y1="881" x2="1057" y2="864" stroke="#313d60" stroke-width="1.7"/><line x1="1051" y1="881" x2="976" y2="864" stroke="#313d60" stroke-width="1.7"/><line x1="1051" y1="881" x2="1139" y2="864" stroke="#313d60" stroke-width="1.7"/><line x1="1137" y1="881" x2="1057" y2="864" stroke="#313d60" stroke-width="1.7"/><line x1="1137" y1="881" x2="1221" y2="864" stroke="#313d60" stroke-width="1.7"/><line x1="1223" y1="881" x2="1139" y2="864" stroke="#313d60" stroke-width="1.7"/><line x1="1223" y1="881" x2="1303" y2="864" stroke="#313d60" stroke-width="1.7"/><line x1="1309" y1="881" x2="1221" y2="864" stroke="#313d60" stroke-width="1.7"/><line x1="1309" y1="881" x2="1384" y2="864" stroke="#313d60" stroke-width="1.7"/><line x1="1395" y1="881" x2="1303" y2="864" stroke="#313d60" stroke-width="1.7"/><line x1="965" y1="881" x2="1395" y2="881" stroke="#222b42" stroke-width="2"/><line x1="976" y1="864" x2="1064" y2="846" stroke="#313d60" stroke-width="1.7"/><line x1="1057" y1="864" x2="986" y2="846" stroke="#313d60" stroke-width="1.7"/><line x1="1057" y1="864" x2="1141" y2="846" stroke="#313d60" stroke-width="1.7"/><line x1="1139" y1="864" x2="1064" y2="846" stroke="#313d60" stroke-width="1.7"/><line x1="1139" y1="864" x2="1219" y2="846" stroke="#313d60" stroke-width="1.7"/><line x1="1221" y1="864" x2="1141" y2="846" stroke="#313d60" stroke-width="1.7"/><line x1="1221" y1="864" x2="1296" y2="846" stroke="#313d60" stroke-width="1.7"/><line x1="1303" y1="864" x2="1219" y2="846" stroke="#313d60" stroke-width="1.7"/><line x1="1303" y1="864" x2="1374" y2="846" stroke="#313d60" stroke-width="1.7"/><line x1="1384" y1="864" x2="1296" y2="846" stroke="#313d60" stroke-width="1.7"/><line x1="976" y1="864" x2="1384" y2="864" stroke="#222b42" stroke-width="2"/><line x1="986" y1="846" x2="1070" y2="829" stroke="#313d60" stroke-width="1.7"/><line x1="1064" y1="846" x2="996" y2="829" stroke="#313d60" stroke-width="1.7"/><line x1="1064" y1="846" x2="1143" y2="829" stroke="#313d60" stroke-width="1.7"/><line x1="1141" y1="846" x2="1070" y2="829" stroke="#313d60" stroke-width="1.7"/><line x1="1141" y1="846" x2="1217" y2="829" stroke="#313d60" stroke-width="1.7"/><line x1="1219" y1="846" x2="1143" y2="829" stroke="#313d60" stroke-width="1.7"/><line x1="1219" y1="846" x2="1290" y2="829" stroke="#313d60" stroke-width="1.7"/><line x1="1296" y1="846" x2="1217" y2="829" stroke="#313d60" stroke-width="1.7"/><line x1="1296" y1="846" x2="1364" y2="829" stroke="#313d60" stroke-width="1.7"/><line x1="1374" y1="846" x2="1290" y2="829" stroke="#313d60" stroke-width="1.7"/><line x1="986" y1="846" x2="1374" y2="846" stroke="#222b42" stroke-width="2"/><line x1="996" y1="829" x2="1076" y2="812" stroke="#313d60" stroke-width="1.7"/><line x1="1070" y1="829" x2="1006" y2="812" stroke="#313d60" stroke-width="1.7"/><line x1="1070" y1="829" x2="1145" y2="812" stroke="#313d60" stroke-width="1.7"/><line x1="1143" y1="829" x2="1076" y2="812" stroke="#313d60" stroke-width="1.7"/><line x1="1143" y1="829" x2="1215" y2="812" stroke="#313d60" stroke-width="1.7"/><line x1="1217" y1="829" x2="1145" y2="812" stroke="#313d60" stroke-width="1.7"/><line x1="1217" y1="829" x2="1284" y2="812" stroke="#313d60" stroke-width="1.7"/><line x1="1290" y1="829" x2="1215" y2="812" stroke="#313d60" stroke-width="1.7"/><line x1="1290" y1="829" x2="1354" y2="812" stroke="#313d60" stroke-width="1.7"/><line x1="1364" y1="829" x2="1284" y2="812" stroke="#313d60" stroke-width="1.7"/><line x1="996" y1="829" x2="1364" y2="829" stroke="#222b42" stroke-width="2"/><line x1="1006" y1="812" x2="1082" y2="795" stroke="#313d60" stroke-width="1.7"/><line x1="1076" y1="812" x2="1017" y2="795" stroke="#313d60" stroke-width="1.7"/><line x1="1076" y1="812" x2="1147" y2="795" stroke="#313d60" stroke-width="1.7"/><line x1="1145" y1="812" x2="1082" y2="795" stroke="#313d60" stroke-width="1.7"/><line x1="1145" y1="812" x2="1213" y2="795" stroke="#313d60" stroke-width="1.7"/><line x1="1215" y1="812" x2="1147" y2="795" stroke="#313d60" stroke-width="1.7"/><line x1="1215" y1="812" x2="1278" y2="795" stroke="#313d60" stroke-width="1.7"/><line x1="1284" y1="812" x2="1213" y2="795" stroke="#313d60" stroke-width="1.7"/><line x1="1284" y1="812" x2="1343" y2="795" stroke="#313d60" stroke-width="1.7"/><line x1="1354" y1="812" x2="1278" y2="795" stroke="#313d60" stroke-width="1.7"/><line x1="1006" y1="812" x2="1354" y2="812" stroke="#222b42" stroke-width="2"/><line x1="1017" y1="795" x2="1087" y2="778" stroke="#313d60" stroke-width="1.7"/><line x1="1082" y1="795" x2="1026" y2="778" stroke="#313d60" stroke-width="1.7"/><line x1="1082" y1="795" x2="1149" y2="778" stroke="#313d60" stroke-width="1.7"/><line x1="1147" y1="795" x2="1087" y2="778" stroke="#313d60" stroke-width="1.7"/><line x1="1147" y1="795" x2="1211" y2="778" stroke="#313d60" stroke-width="1.7"/><line x1="1213" y1="795" x2="1149" y2="778" stroke="#313d60" stroke-width="1.7"/><line x1="1213" y1="795" x2="1273" y2="778" stroke="#313d60" stroke-width="1.7"/><line x1="1278" y1="795" x2="1211" y2="778" stroke="#313d60" stroke-width="1.7"/><line x1="1278" y1="795" x2="1334" y2="778" stroke="#313d60" stroke-width="1.7"/><line x1="1343" y1="795" x2="1273" y2="778" stroke="#313d60" stroke-width="1.7"/><line x1="1017" y1="795" x2="1343" y2="795" stroke="#222b42" stroke-width="2"/><line x1="1026" y1="778" x2="1093" y2="760" stroke="#313d60" stroke-width="1.7"/><line x1="1087" y1="778" x2="1035" y2="760" stroke="#313d60" stroke-width="1.7"/><line x1="1087" y1="778" x2="1151" y2="760" stroke="#313d60" stroke-width="1.7"/><line x1="1149" y1="778" x2="1093" y2="760" stroke="#313d60" stroke-width="1.7"/><line x1="1149" y1="778" x2="1209" y2="760" stroke="#313d60" stroke-width="1.7"/><line x1="1211" y1="778" x2="1151" y2="760" stroke="#313d60" stroke-width="1.7"/><line x1="1211" y1="778" x2="1267" y2="760" stroke="#313d60" stroke-width="1.7"/><line x1="1273" y1="778" x2="1209" y2="760" stroke="#313d60" stroke-width="1.7"/><line x1="1273" y1="778" x2="1325" y2="760" stroke="#313d60" stroke-width="1.7"/><line x1="1334" y1="778" x2="1267" y2="760" stroke="#313d60" stroke-width="1.7"/><line x1="1026" y1="778" x2="1334" y2="778" stroke="#222b42" stroke-width="2"/><line x1="1035" y1="760" x2="1098" y2="743" stroke="#313d60" stroke-width="1.7"/><line x1="1093" y1="760" x2="1044" y2="743" stroke="#313d60" stroke-width="1.7"/><line x1="1093" y1="760" x2="1153" y2="743" stroke="#313d60" stroke-width="1.7"/><line x1="1151" y1="760" x2="1098" y2="743" stroke="#313d60" stroke-width="1.7"/><line x1="1151" y1="760" x2="1207" y2="743" stroke="#313d60" stroke-width="1.7"/><line x1="1209" y1="760" x2="1153" y2="743" stroke="#313d60" stroke-width="1.7"/><line x1="1209" y1="760" x2="1262" y2="743" stroke="#313d60" stroke-width="1.7"/><line x1="1267" y1="760" x2="1207" y2="743" stroke="#313d60" stroke-width="1.7"/><line x1="1267" y1="760" x2="1316" y2="743" stroke="#313d60" stroke-width="1.7"/><line x1="1325" y1="760" x2="1262" y2="743" stroke="#313d60" stroke-width="1.7"/><line x1="1035" y1="760" x2="1325" y2="760" stroke="#222b42" stroke-width="2"/><line x1="1044" y1="743" x2="1104" y2="726" stroke="#313d60" stroke-width="1.7"/><line x1="1098" y1="743" x2="1053" y2="726" stroke="#313d60" stroke-width="1.7"/><line x1="1098" y1="743" x2="1155" y2="726" stroke="#313d60" stroke-width="1.7"/><line x1="1153" y1="743" x2="1104" y2="726" stroke="#313d60" stroke-width="1.7"/><line x1="1153" y1="743" x2="1205" y2="726" stroke="#313d60" stroke-width="1.7"/><line x1="1207" y1="743" x2="1155" y2="726" stroke="#313d60" stroke-width="1.7"/><line x1="1207" y1="743" x2="1256" y2="726" stroke="#313d60" stroke-width="1.7"/><line x1="1262" y1="743" x2="1205" y2="726" stroke="#313d60" stroke-width="1.7"/><line x1="1262" y1="743" x2="1307" y2="726" stroke="#313d60" stroke-width="1.7"/><line x1="1316" y1="743" x2="1256" y2="726" stroke="#313d60" stroke-width="1.7"/><line x1="1044" y1="743" x2="1316" y2="743" stroke="#222b42" stroke-width="2"/><line x1="1053" y1="726" x2="1109" y2="708" stroke="#313d60" stroke-width="1.7"/><line x1="1104" y1="726" x2="1062" y2="708" stroke="#313d60" stroke-width="1.7"/><line x1="1104" y1="726" x2="1156" y2="708" stroke="#313d60" stroke-width="1.7"/><line x1="1155" y1="726" x2="1109" y2="708" stroke="#313d60" stroke-width="1.7"/><line x1="1155" y1="726" x2="1204" y2="708" stroke="#313d60" stroke-width="1.7"/><line x1="1205" y1="726" x2="1156" y2="708" stroke="#313d60" stroke-width="1.7"/><line x1="1205" y1="726" x2="1251" y2="708" stroke="#313d60" stroke-width="1.7"/><line x1="1256" y1="726" x2="1204" y2="708" stroke="#313d60" stroke-width="1.7"/><line x1="1256" y1="726" x2="1298" y2="708" stroke="#313d60" stroke-width="1.7"/><line x1="1307" y1="726" x2="1251" y2="708" stroke="#313d60" stroke-width="1.7"/><line x1="1053" y1="726" x2="1307" y2="726" stroke="#222b42" stroke-width="2"/><path d="M1023,950 L1031,930 L1039,910 L1048,890 L1055,870 L1063,849 L1070,829 L1077,809 L1084,789 L1090,769 L1097,749 L1103,729 L1109,708" fill="none" stroke="#222b42" stroke-width="1.6" opacity=".8"/><path d="M1128,950 L1130,930 L1133,910 L1136,890 L1138,870 L1141,849 L1143,829 L1146,809 L1148,789 L1150,769 L1152,749 L1154,729 L1156,708" fill="none" stroke="#222b42" stroke-width="1.6" opacity=".8"/><path d="M1232,950 L1230,930 L1227,910 L1224,890 L1222,870 L1219,849 L1217,829 L1214,809 L1212,789 L1210,769 L1208,749 L1206,729 L1204,708" fill="none" stroke="#222b42" stroke-width="1.6" opacity=".8"/><path d="M1337,950 L1329,930 L1321,910 L1312,890 L1305,870 L1297,849 L1290,829 L1283,809 L1276,789 L1270,769 L1263,749 L1257,729 L1251,708" fill="none" stroke="#222b42" stroke-width="1.6" opacity=".8"/><line x1="1062" y1="698" x2="1143" y2="682" stroke="#313d60" stroke-width="1.7"/><line x1="1141" y1="698" x2="1068" y2="682" stroke="#313d60" stroke-width="1.7"/><line x1="1141" y1="698" x2="1217" y2="682" stroke="#313d60" stroke-width="1.7"/><line x1="1219" y1="698" x2="1143" y2="682" stroke="#313d60" stroke-width="1.7"/><line x1="1219" y1="698" x2="1292" y2="682" stroke="#313d60" stroke-width="1.7"/><line x1="1298" y1="698" x2="1217" y2="682" stroke="#313d60" stroke-width="1.7"/><line x1="1062" y1="698" x2="1298" y2="698" stroke="#222b42" stroke-width="2"/><line x1="1068" y1="682" x2="1145" y2="666" stroke="#313d60" stroke-width="1.7"/><line x1="1143" y1="682" x2="1074" y2="666" stroke="#313d60" stroke-width="1.7"/><line x1="1143" y1="682" x2="1215" y2="666" stroke="#313d60" stroke-width="1.7"/><line x1="1217" y1="682" x2="1145" y2="666" stroke="#313d60" stroke-width="1.7"/><line x1="1217" y1="682" x2="1286" y2="666" stroke="#313d60" stroke-width="1.7"/><line x1="1292" y1="682" x2="1215" y2="666" stroke="#313d60" stroke-width="1.7"/><line x1="1068" y1="682" x2="1292" y2="682" stroke="#222b42" stroke-width="2"/><line x1="1074" y1="666" x2="1147" y2="651" stroke="#313d60" stroke-width="1.7"/><line x1="1145" y1="666" x2="1080" y2="651" stroke="#313d60" stroke-width="1.7"/><line x1="1145" y1="666" x2="1213" y2="651" stroke="#313d60" stroke-width="1.7"/><line x1="1215" y1="666" x2="1147" y2="651" stroke="#313d60" stroke-width="1.7"/><line x1="1215" y1="666" x2="1280" y2="651" stroke="#313d60" stroke-width="1.7"/><line x1="1286" y1="666" x2="1213" y2="651" stroke="#313d60" stroke-width="1.7"/><line x1="1074" y1="666" x2="1286" y2="666" stroke="#222b42" stroke-width="2"/><line x1="1080" y1="651" x2="1149" y2="635" stroke="#313d60" stroke-width="1.7"/><line x1="1147" y1="651" x2="1087" y2="635" stroke="#313d60" stroke-width="1.7"/><line x1="1147" y1="651" x2="1211" y2="635" stroke="#313d60" stroke-width="1.7"/><line x1="1213" y1="651" x2="1149" y2="635" stroke="#313d60" stroke-width="1.7"/><line x1="1213" y1="651" x2="1273" y2="635" stroke="#313d60" stroke-width="1.7"/><line x1="1280" y1="651" x2="1211" y2="635" stroke="#313d60" stroke-width="1.7"/><line x1="1080" y1="651" x2="1280" y2="651" stroke="#222b42" stroke-width="2"/><line x1="1087" y1="635" x2="1151" y2="619" stroke="#313d60" stroke-width="1.7"/><line x1="1149" y1="635" x2="1093" y2="619" stroke="#313d60" stroke-width="1.7"/><line x1="1149" y1="635" x2="1209" y2="619" stroke="#313d60" stroke-width="1.7"/><line x1="1211" y1="635" x2="1151" y2="619" stroke="#313d60" stroke-width="1.7"/><line x1="1211" y1="635" x2="1267" y2="619" stroke="#313d60" stroke-width="1.7"/><line x1="1273" y1="635" x2="1209" y2="619" stroke="#313d60" stroke-width="1.7"/><line x1="1087" y1="635" x2="1273" y2="635" stroke="#222b42" stroke-width="2"/><line x1="1093" y1="619" x2="1153" y2="604" stroke="#313d60" stroke-width="1.7"/><line x1="1151" y1="619" x2="1099" y2="604" stroke="#313d60" stroke-width="1.7"/><line x1="1151" y1="619" x2="1207" y2="604" stroke="#313d60" stroke-width="1.7"/><line x1="1209" y1="619" x2="1153" y2="604" stroke="#313d60" stroke-width="1.7"/><line x1="1209" y1="619" x2="1261" y2="604" stroke="#313d60" stroke-width="1.7"/><line x1="1267" y1="619" x2="1207" y2="604" stroke="#313d60" stroke-width="1.7"/><line x1="1093" y1="619" x2="1267" y2="619" stroke="#222b42" stroke-width="2"/><line x1="1099" y1="604" x2="1155" y2="588" stroke="#313d60" stroke-width="1.7"/><line x1="1153" y1="604" x2="1105" y2="588" stroke="#313d60" stroke-width="1.7"/><line x1="1153" y1="604" x2="1205" y2="588" stroke="#313d60" stroke-width="1.7"/><line x1="1207" y1="604" x2="1155" y2="588" stroke="#313d60" stroke-width="1.7"/><line x1="1207" y1="604" x2="1255" y2="588" stroke="#313d60" stroke-width="1.7"/><line x1="1261" y1="604" x2="1205" y2="588" stroke="#313d60" stroke-width="1.7"/><line x1="1099" y1="604" x2="1261" y2="604" stroke="#222b42" stroke-width="2"/><line x1="1105" y1="588" x2="1157" y2="572" stroke="#313d60" stroke-width="1.7"/><line x1="1155" y1="588" x2="1111" y2="572" stroke="#313d60" stroke-width="1.7"/><line x1="1155" y1="588" x2="1203" y2="572" stroke="#313d60" stroke-width="1.7"/><line x1="1205" y1="588" x2="1157" y2="572" stroke="#313d60" stroke-width="1.7"/><line x1="1205" y1="588" x2="1249" y2="572" stroke="#313d60" stroke-width="1.7"/><line x1="1255" y1="588" x2="1203" y2="572" stroke="#313d60" stroke-width="1.7"/><line x1="1105" y1="588" x2="1255" y2="588" stroke="#222b42" stroke-width="2"/><line x1="1111" y1="572" x2="1159" y2="556" stroke="#313d60" stroke-width="1.7"/><line x1="1157" y1="572" x2="1116" y2="556" stroke="#313d60" stroke-width="1.7"/><line x1="1157" y1="572" x2="1201" y2="556" stroke="#313d60" stroke-width="1.7"/><line x1="1203" y1="572" x2="1159" y2="556" stroke="#313d60" stroke-width="1.7"/><line x1="1203" y1="572" x2="1244" y2="556" stroke="#313d60" stroke-width="1.7"/><line x1="1249" y1="572" x2="1201" y2="556" stroke="#313d60" stroke-width="1.7"/><line x1="1111" y1="572" x2="1249" y2="572" stroke="#222b42" stroke-width="2"/><line x1="1116" y1="556" x2="1159" y2="540" stroke="#313d60" stroke-width="1.7"/><line x1="1159" y1="556" x2="1118" y2="540" stroke="#313d60" stroke-width="1.7"/><line x1="1159" y1="556" x2="1201" y2="540" stroke="#313d60" stroke-width="1.7"/><line x1="1201" y1="556" x2="1159" y2="540" stroke="#313d60" stroke-width="1.7"/><line x1="1201" y1="556" x2="1242" y2="540" stroke="#313d60" stroke-width="1.7"/><line x1="1244" y1="556" x2="1201" y2="540" stroke="#313d60" stroke-width="1.7"/><line x1="1116" y1="556" x2="1244" y2="556" stroke="#222b42" stroke-width="2"/><line x1="1118" y1="540" x2="1160" y2="525" stroke="#313d60" stroke-width="1.7"/><line x1="1159" y1="540" x2="1121" y2="525" stroke="#313d60" stroke-width="1.7"/><line x1="1159" y1="540" x2="1200" y2="525" stroke="#313d60" stroke-width="1.7"/><line x1="1201" y1="540" x2="1160" y2="525" stroke="#313d60" stroke-width="1.7"/><line x1="1201" y1="540" x2="1239" y2="525" stroke="#313d60" stroke-width="1.7"/><line x1="1242" y1="540" x2="1200" y2="525" stroke="#313d60" stroke-width="1.7"/><line x1="1118" y1="540" x2="1242" y2="540" stroke="#222b42" stroke-width="2"/><line x1="1121" y1="525" x2="1161" y2="509" stroke="#313d60" stroke-width="1.7"/><line x1="1160" y1="525" x2="1124" y2="509" stroke="#313d60" stroke-width="1.7"/><line x1="1160" y1="525" x2="1199" y2="509" stroke="#313d60" stroke-width="1.7"/><line x1="1200" y1="525" x2="1161" y2="509" stroke="#313d60" stroke-width="1.7"/><line x1="1200" y1="525" x2="1236" y2="509" stroke="#313d60" stroke-width="1.7"/><line x1="1239" y1="525" x2="1199" y2="509" stroke="#313d60" stroke-width="1.7"/><line x1="1121" y1="525" x2="1239" y2="525" stroke="#222b42" stroke-width="2"/><path d="M1141,698 L1143,682 L1145,666 L1147,651 L1149,635 L1151,619 L1153,604 L1155,588 L1157,572 L1159,556 L1159,540 L1160,525 L1161,509" fill="none" stroke="#222b42" stroke-width="1.6" opacity=".8"/><path d="M1219,698 L1217,682 L1215,666 L1213,651 L1211,635 L1209,619 L1207,604 L1205,588 L1203,572 L1201,556 L1201,540 L1200,525 L1199,509" fill="none" stroke="#222b42" stroke-width="1.6" opacity=".8"/><line x1="1124" y1="495" x2="1180" y2="476" stroke="#313d60" stroke-width="1.7"/><line x1="1180" y1="495" x2="1129" y2="476" stroke="#313d60" stroke-width="1.7"/><line x1="1180" y1="495" x2="1231" y2="476" stroke="#313d60" stroke-width="1.7"/><line x1="1236" y1="495" x2="1180" y2="476" stroke="#313d60" stroke-width="1.7"/><line x1="1124" y1="495" x2="1236" y2="495" stroke="#222b42" stroke-width="2"/><line x1="1129" y1="476" x2="1180" y2="457" stroke="#313d60" stroke-width="1.7"/><line x1="1180" y1="476" x2="1133" y2="457" stroke="#313d60" stroke-width="1.7"/><line x1="1180" y1="476" x2="1227" y2="457" stroke="#313d60" stroke-width="1.7"/><line x1="1231" y1="476" x2="1180" y2="457" stroke="#313d60" stroke-width="1.7"/><line x1="1129" y1="476" x2="1231" y2="476" stroke="#222b42" stroke-width="2"/><line x1="1133" y1="457" x2="1180" y2="438" stroke="#313d60" stroke-width="1.7"/><line x1="1180" y1="457" x2="1138" y2="438" stroke="#313d60" stroke-width="1.7"/><line x1="1180" y1="457" x2="1222" y2="438" stroke="#313d60" stroke-width="1.7"/><line x1="1227" y1="457" x2="1180" y2="438" stroke="#313d60" stroke-width="1.7"/><line x1="1133" y1="457" x2="1227" y2="457" stroke="#222b42" stroke-width="2"/><line x1="1138" y1="438" x2="1180" y2="419" stroke="#313d60" stroke-width="1.7"/><line x1="1180" y1="438" x2="1143" y2="419" stroke="#313d60" stroke-width="1.7"/><line x1="1180" y1="438" x2="1217" y2="419" stroke="#313d60" stroke-width="1.7"/><line x1="1222" y1="438" x2="1180" y2="419" stroke="#313d60" stroke-width="1.7"/><line x1="1138" y1="438" x2="1222" y2="438" stroke="#222b42" stroke-width="2"/><line x1="1143" y1="419" x2="1180" y2="400" stroke="#313d60" stroke-width="1.7"/><line x1="1180" y1="419" x2="1147" y2="400" stroke="#313d60" stroke-width="1.7"/><line x1="1180" y1="419" x2="1213" y2="400" stroke="#313d60" stroke-width="1.7"/><line x1="1217" y1="419" x2="1180" y2="400" stroke="#313d60" stroke-width="1.7"/><line x1="1143" y1="419" x2="1217" y2="419" stroke="#222b42" stroke-width="2"/><line x1="1147" y1="400" x2="1180" y2="382" stroke="#313d60" stroke-width="1.7"/><line x1="1180" y1="400" x2="1152" y2="382" stroke="#313d60" stroke-width="1.7"/><line x1="1180" y1="400" x2="1208" y2="382" stroke="#313d60" stroke-width="1.7"/><line x1="1213" y1="400" x2="1180" y2="382" stroke="#313d60" stroke-width="1.7"/><line x1="1147" y1="400" x2="1213" y2="400" stroke="#222b42" stroke-width="2"/><line x1="1152" y1="382" x2="1180" y2="363" stroke="#313d60" stroke-width="1.7"/><line x1="1180" y1="382" x2="1155" y2="363" stroke="#313d60" stroke-width="1.7"/><line x1="1180" y1="382" x2="1205" y2="363" stroke="#313d60" stroke-width="1.7"/><line x1="1208" y1="382" x2="1180" y2="363" stroke="#313d60" stroke-width="1.7"/><line x1="1152" y1="382" x2="1208" y2="382" stroke="#222b42" stroke-width="2"/><line x1="1155" y1="363" x2="1180" y2="344" stroke="#313d60" stroke-width="1.7"/><line x1="1180" y1="363" x2="1159" y2="344" stroke="#313d60" stroke-width="1.7"/><line x1="1180" y1="363" x2="1201" y2="344" stroke="#313d60" stroke-width="1.7"/><line x1="1205" y1="363" x2="1180" y2="344" stroke="#313d60" stroke-width="1.7"/><line x1="1155" y1="363" x2="1205" y2="363" stroke="#222b42" stroke-width="2"/><line x1="1159" y1="344" x2="1180" y2="325" stroke="#313d60" stroke-width="1.7"/><line x1="1180" y1="344" x2="1162" y2="325" stroke="#313d60" stroke-width="1.7"/><line x1="1180" y1="344" x2="1198" y2="325" stroke="#313d60" stroke-width="1.7"/><line x1="1201" y1="344" x2="1180" y2="325" stroke="#313d60" stroke-width="1.7"/><line x1="1159" y1="344" x2="1201" y2="344" stroke="#222b42" stroke-width="2"/><line x1="1162" y1="325" x2="1180" y2="306" stroke="#313d60" stroke-width="1.7"/><line x1="1180" y1="325" x2="1166" y2="306" stroke="#313d60" stroke-width="1.7"/><line x1="1180" y1="325" x2="1194" y2="306" stroke="#313d60" stroke-width="1.7"/><line x1="1198" y1="325" x2="1180" y2="306" stroke="#313d60" stroke-width="1.7"/><line x1="1162" y1="325" x2="1198" y2="325" stroke="#222b42" stroke-width="2"/><path d="M1180,495 L1180,479 L1180,463 L1180,448 L1180,432 L1180,416 L1180,400 L1180,385 L1180,369 L1180,353 L1180,338 L1180,322 L1180,306" fill="none" stroke="#222b42" stroke-width="1.6" opacity=".8"/><line x1="1166" y1="306" x2="1192" y2="287" stroke="#313d60" stroke-width="1.7"/><line x1="1194" y1="306" x2="1168" y2="287" stroke="#313d60" stroke-width="1.7"/><line x1="1166" y1="306" x2="1194" y2="306" stroke="#222b42" stroke-width="2"/><line x1="1168" y1="287" x2="1189" y2="269" stroke="#313d60" stroke-width="1.7"/><line x1="1192" y1="287" x2="1171" y2="269" stroke="#313d60" stroke-width="1.7"/><line x1="1168" y1="287" x2="1192" y2="287" stroke="#222b42" stroke-width="2"/><line x1="1171" y1="269" x2="1187" y2="250" stroke="#313d60" stroke-width="1.7"/><line x1="1189" y1="269" x2="1173" y2="250" stroke="#313d60" stroke-width="1.7"/><line x1="1171" y1="269" x2="1189" y2="269" stroke="#222b42" stroke-width="2"/><path d="M1010,950 A170,155 0 0 1 1350,950" fill="none" stroke="#46557f" stroke-width="7"/><path d="M1040,950 A140,128 0 0 1 1320,950" fill="none" stroke="#222b42" stroke-width="4"/><line x1="1051" y1="901" x2="1023" y2="891" stroke="#313d60" stroke-width="2"/><line x1="1081" y1="859" x2="1060" y2="840" stroke="#313d60" stroke-width="2"/><line x1="1126" y1="832" x2="1115" y2="807" stroke="#313d60" stroke-width="2"/><line x1="1180" y1="822" x2="1180" y2="795" stroke="#313d60" stroke-width="2"/><line x1="1234" y1="832" x2="1245" y2="807" stroke="#313d60" stroke-width="2"/><line x1="1279" y1="859" x2="1300" y2="840" stroke="#313d60" stroke-width="2"/><line x1="1309" y1="901" x2="1337" y2="891" stroke="#313d60" stroke-width="2"/><rect x="1036" y="691" width="288" height="14" fill="#222b42"/><line x1="1036" y1="691" x2="1324" y2="691" stroke="#46557f" stroke-width="2.4"/><circle cx="1044" cy="687" r="1.6" fill="#ffd9a0" opacity=".75"/><circle cx="1061" cy="687" r="1.6" fill="#ffd9a0" opacity=".75"/><circle cx="1078" cy="687" r="1.6" fill="#ffd9a0" opacity=".75"/><circle cx="1095" cy="687" r="1.6" fill="#ffd9a0" opacity=".75"/><circle cx="1112" cy="687" r="1.6" fill="#ffd9a0" opacity=".75"/><circle cx="1129" cy="687" r="1.6" fill="#ffd9a0" opacity=".75"/><circle cx="1146" cy="687" r="1.6" fill="#ffd9a0" opacity=".75"/><circle cx="1163" cy="687" r="1.6" fill="#ffd9a0" opacity=".75"/><circle cx="1180" cy="687" r="1.6" fill="#ffd9a0" opacity=".75"/><circle cx="1197" cy="687" r="1.6" fill="#ffd9a0" opacity=".75"/><circle cx="1214" cy="687" r="1.6" fill="#ffd9a0" opacity=".75"/><circle cx="1231" cy="687" r="1.6" fill="#ffd9a0" opacity=".75"/><circle cx="1248" cy="687" r="1.6" fill="#ffd9a0" opacity=".75"/><circle cx="1265" cy="687" r="1.6" fill="#ffd9a0" opacity=".75"/><circle cx="1282" cy="687" r="1.6" fill="#ffd9a0" opacity=".75"/><circle cx="1299" cy="687" r="1.6" fill="#ffd9a0" opacity=".75"/><circle cx="1316" cy="687" r="1.6" fill="#ffd9a0" opacity=".75"/><rect x="1106" y="491" width="148" height="11" fill="#222b42"/><line x1="1106" y1="491" x2="1254" y2="491" stroke="#46557f" stroke-width="2.4"/><circle cx="1112" cy="487" r="1.6" fill="#ffd9a0" opacity=".75"/><circle cx="1129" cy="487" r="1.6" fill="#ffd9a0" opacity=".75"/><circle cx="1146" cy="487" r="1.6" fill="#ffd9a0" opacity=".75"/><circle cx="1163" cy="487" r="1.6" fill="#ffd9a0" opacity=".75"/><circle cx="1180" cy="487" r="1.6" fill="#ffd9a0" opacity=".75"/><circle cx="1197" cy="487" r="1.6" fill="#ffd9a0" opacity=".75"/><circle cx="1214" cy="487" r="1.6" fill="#ffd9a0" opacity=".75"/><circle cx="1231" cy="487" r="1.6" fill="#ffd9a0" opacity=".75"/><circle cx="1248" cy="487" r="1.6" fill="#ffd9a0" opacity=".75"/><path d="M918,950 L930,932 L942,915 L954,898 L966,880 L976,862 L987,845 L997,828 L1008,810 L1018,792 L1027,775 L1036,758 L1045,740 L1055,722 L1062,705 L1066,688 L1073,670 L1080,652 L1087,635 L1093,618 L1100,600 L1107,582 L1114,565 L1117,548 L1120,530 L1123,512 L1124,495 L1128,477 L1133,460 L1137,442 L1141,425 L1146,408 L1150,390 L1153,372 L1157,355 L1160,338 L1163,320 L1166,302 L1169,285 L1171,268 L1173,250" fill="none" stroke="#46557f" stroke-width="4"/><path d="M1442,950 L1430,932 L1418,915 L1406,898 L1394,880 L1384,862 L1373,845 L1363,828 L1352,810 L1342,792 L1333,775 L1324,758 L1315,740 L1305,722 L1298,705 L1294,688 L1287,670 L1280,652 L1273,635 L1267,618 L1260,600 L1253,582 L1246,565 L1243,548 L1240,530 L1237,512 L1236,495 L1232,477 L1227,460 L1223,442 L1219,425 L1214,408 L1210,390 L1207,372 L1203,355 L1200,338 L1197,320 L1194,302 L1191,285 L1189,268 L1187,250" fill="none" stroke="#46557f" stroke-width="4"/><path d="M918,950 L930,932 L942,915 L954,898 L966,880 L976,862 L987,845 L997,828 L1008,810 L1018,792 L1027,775 L1036,758 L1045,740 L1055,722 L1062,705 L1066,688 L1073,670 L1080,652 L1087,635 L1093,618 L1100,600 L1107,582 L1114,565 L1117,548 L1120,530 L1123,512 L1124,495 L1128,477 L1133,460 L1137,442 L1141,425 L1146,408 L1150,390 L1153,372 L1157,355 L1160,338 L1163,320 L1166,302 L1169,285 L1171,268 L1173,250" fill="none" stroke="url(#accv)" stroke-width="1.6" opacity=".8"/><path d="M1442,950 L1430,932 L1418,915 L1406,898 L1394,880 L1384,862 L1373,845 L1363,828 L1352,810 L1342,792 L1333,775 L1324,758 L1315,740 L1305,722 L1298,705 L1294,688 L1287,670 L1280,652 L1273,635 L1267,618 L1260,600 L1253,582 L1246,565 L1243,548 L1240,530 L1237,512 L1236,495 L1232,477 L1227,460 L1223,442 L1219,425 L1214,408 L1210,390 L1207,372 L1203,355 L1200,338 L1197,320 L1194,302 L1191,285 L1189,268 L1187,250" fill="none" stroke="url(#accv)" stroke-width="1.6" opacity=".8"/><rect x="1164" y="236" width="32" height="14" fill="#313d60"/><line x1="1180" y1="236" x2="1180" y2="188" stroke="#46557f" stroke-width="3.4"/><circle cx="1180" cy="184" r="4" fill="#eaf2ff" class="tw d1"/><circle cx="1234" cy="634" r="1.8" fill="#eaf2ff" class="tw d4"/><circle cx="976" cy="937" r="1.8" fill="#eaf2ff" class="tw d1"/><circle cx="1162" cy="459" r="1.8" fill="#eaf2ff" class="tw d4"/><circle cx="1172" cy="342" r="1.8" fill="#eaf2ff" class="tw d5"/><circle cx="1146" cy="521" r="1.8" fill="#eaf2ff" class="tw d4"/><circle cx="1019" cy="887" r="1.8" fill="#eaf2ff" class="tw d2"/><circle cx="1188" cy="367" r="1.8" fill="#eaf2ff" class="tw"/><circle cx="1166" cy="367" r="1.8" fill="#eaf2ff" class="tw d4"/><circle cx="1187" cy="377" r="1.8" fill="#eaf2ff" class="tw d2"/><circle cx="1173" cy="295" r="1.8" fill="#eaf2ff" class="tw d1"/><circle cx="1140" cy="668" r="1.8" fill="#eaf2ff" class="tw d4"/><circle cx="1079" cy="720" r="1.8" fill="#eaf2ff" class="tw d4"/><circle cx="1264" cy="645" r="1.8" fill="#eaf2ff" class="tw"/><circle cx="1124" cy="556" r="1.8" fill="#eaf2ff" class="tw d3"/><circle cx="1139" cy="646" r="1.8" fill="#eaf2ff" class="tw"/><circle cx="1178" cy="300" r="1.8" fill="#eaf2ff" class="tw d4"/><circle cx="1198" cy="345" r="1.8" fill="#eaf2ff" class="tw d1"/><circle cx="966" cy="911" r="1.8" fill="#eaf2ff" class="tw d2"/><circle cx="1178" cy="297" r="1.8" fill="#eaf2ff" class="tw d5"/><circle cx="1144" cy="699" r="1.8" fill="#eaf2ff" class="tw"/><circle cx="1225" cy="829" r="1.8" fill="#eaf2ff" class="tw d2"/><circle cx="1186" cy="338" r="1.8" fill="#eaf2ff" class="tw d1"/><rect x="0" y="950" width="1920" height="330" fill="url(#wgrad)"/>
<line x1="0" y1="950" x2="1920" y2="950" stroke="url(#acc)" stroke-width="2.4" opacity=".55"/>
<line x1="1212" y1="1030" x2="1266" y2="1030" stroke="#43e0d0" stroke-width="2" class="shim d3" opacity=".3"/>
<line x1="677" y1="1011" x2="876" y2="1011" stroke="#43e0d0" stroke-width="2" class="shim d2" opacity=".3"/>
<line x1="714" y1="1158" x2="911" y2="1158" stroke="#43e0d0" stroke-width="2" class="shim d2" opacity=".3"/>
<line x1="1057" y1="1149" x2="1107" y2="1149" stroke="#43e0d0" stroke-width="2" class="shim" opacity=".3"/>
<line x1="891" y1="1153" x2="1015" y2="1153" stroke="#7c5cff" stroke-width="2" class="shim d2" opacity=".3"/>
<line x1="1379" y1="1109" x2="1489" y2="1109" stroke="#7c5cff" stroke-width="2" class="shim d1" opacity=".3"/>
<line x1="54" y1="1031" x2="121" y2="1031" stroke="#7c5cff" stroke-width="2" class="shim d2" opacity=".3"/>
<line x1="461" y1="1128" x2="540" y2="1128" stroke="#43e0d0" stroke-width="2" class="shim d3" opacity=".3"/>
<line x1="1330" y1="1164" x2="1500" y2="1164" stroke="#7c5cff" stroke-width="2" class="shim d1" opacity=".3"/>
<line x1="1126" y1="1004" x2="1225" y2="1004" stroke="#43e0d0" stroke-width="2" class="shim d2" opacity=".3"/>
<line x1="1321" y1="1061" x2="1465" y2="1061" stroke="#7c5cff" stroke-width="2" class="shim d4" opacity=".3"/>
<line x1="69" y1="1085" x2="169" y2="1085" stroke="#7c5cff" stroke-width="2" class="shim d1" opacity=".3"/><g opacity=".16"><path d="M980,950 L1140,1190 M1380,950 L1220,1190 M1060,950 L1164,1130 M1300,950 L1196,1130" stroke="#46557f" stroke-width="3" class="shim d1"/></g><rect width="1920" height="1280" fill="url(#vig)"/>
<rect width="1920" height="1280" filter="url(#grain)" opacity="0.55" fill="none"/>
</svg>