<svg xmlns="http://www.w3.org/2000/svg" viewBox="0 0 1920 1280" width="1920" height="1280">
<defs>
<linearGradient id="sky" x1="0" y1="0" x2="0" y2="1">
 <stop offset="0" stop-color="#04060b"/><stop offset="1" stop-color="#101426"/>
</linearGradient>
<linearGradient id="acc" x1="0" y1="0" x2="1" y2="1">
 <stop offset="0" stop-color="#7c5cff"/><stop offset="1" stop-color="#43e0d0"/>
</linearGradient>
<linearGradient id="accv" x1="0" y1="0" x2="0" y2="1">
 <stop offset="0" stop-color="#7c5cff"/><stop offset="1" stop-color="#43e0d0"/>
</linearGradient>
<radialGradient id="mgrad" cx="0.35" cy="0.3" r="1">
 <stop offset="0" stop-color="#a99cff"/><stop offset="1" stop-color="#5fe6d6"/>
</radialGradient>
<radialGradient id="halo" cx="0.5" cy="0.5" r="0.5">
 <stop offset="0" stop-color="rgba(103,220,205,.34)"/><stop offset="1" stop-color="rgba(103,220,205,0)"/>
</radialGradient>
<radialGradient id="vig" cx="0.5" cy="0.46" r="0.85">
 <stop offset="0.55" stop-color="rgba(0,0,0,0)"/><stop offset="1" stop-color="rgba(0,0,4,.5)"/>
</radialGradient>
<linearGradient id="wgrad" x1="0" y1="0" x2="0" y2="1">
 <stop offset="0" stop-color="#0b111e"/><stop offset="1" stop-color="#070a12"/>
</linearGradient>
<filter id="soft" x="-40%" y="-40%" width="180%" height="180%"><feGaussianBlur stdDeviation="7"/></filter>
<filter id="soft2" x="-60%" y="-60%" width="220%" height="220%"><feGaussianBlur stdDeviation="16"/></filter>
<filter id="grain"><feTurbulence type="fractalNoise" baseFrequency="0.8" numOctaves="2" stitchTiles="stitch"/>
 <feColorMatrix type="matrix" values="0 0 0 0 1 0 0 0 0 1 0 0 0 0 1 0 0 0 0.05 0"/><feComposite operator="over" in2="SourceGraphic"/></filter>
</defs>
<style>
@keyframes tw{0%,100%{opacity:.1}50%{opacity:1}}
.tw{animation:tw 3.4s ease-in-out infinite}
.tw.d1{animation-delay:.6s}.tw.d2{animation-delay:1.2s}.tw.d3{animation-delay:1.9s}.tw.d4{animation-delay:2.6s}.tw.d5{animation-delay:3.1s}
@keyframes shoot{0%,84%{opacity:0;transform:translate(0,0)}86%{opacity:1}96%{opacity:0;transform:translate(-620px,320px)}100%{opacity:0}}
.shoot{animation:shoot 12s linear infinite}
.shoot.s2{animation-duration:19s;animation-delay:7s}
@keyframes bob{0%,100%{transform:translateY(0px) rotate(-1.2deg)}50%{transform:translateY(9px) rotate(1.4deg)}}
.bob{animation:bob 5.6s ease-in-out infinite;transform-box:fill-box;transform-origin:center}
.bob.b2{animation-duration:7.2s;animation-delay:1.1s}
@keyframes shim{0%,100%{opacity:.22}50%{opacity:.75}}
.shim{animation:shim 4.4s ease-in-out infinite}
.shim.d1{animation-delay:1.4s}.shim.d2{animation-delay:2.7s}.shim.d3{animation-delay:3.6s}
@keyframes flick{0%,91%,100%{opacity:.9}93%{opacity:.25}95%{opacity:.85}}
.flick{animation:flick 8s linear infinite}.flick.f2{animation-delay:3.5s}
@keyframes spin{from{transform:rotate(0deg)}to{transform:rotate(360deg)}}
.wheel{animation:spin 80s linear infinite;transform-box:fill-box;transform-origin:center}
@keyframes aur{0%,100%{opacity:.34;transform:skewX(0deg)}50%{opacity:.72;transform:skewX(-4deg)}}
.aur{animation:aur 9s ease-in-out infinite;transform-box:fill-box;transform-origin:bottom}
.aur.a2{animation-duration:13s;animation-delay:2.5s}
@keyframes fall{from{transform:translateY(-140px)}to{transform:translateY(150px)}}
.fall{animation:fall 9s linear infinite}.fall.f2{animation-duration:13s;animation-delay:2s}.fall.f3{animation-duration:11s;animation-delay:5s}
@keyframes sway{0%,100%{transform:rotate(-1.4deg)}50%{transform:rotate(1.4deg)}}
.sway{animation:sway 7s ease-in-out infinite;transform-box:fill-box;transform-origin:bottom center}

@media (prefers-reduced-motion:reduce){*{animation:none!important}}
</style>
<rect width="1920" height="1280" fill="url(#sky)"/><circle cx="488" cy="185" r="1.6" fill="#c9d4e6" opacity="0.42"/>
<circle cx="1549" cy="449" r="0.9" fill="#c9d4e6" opacity="0.50"/>
<circle cx="1064" cy="305" r="1.6" fill="#c9d4e6" opacity="0.55"/>
<circle cx="1123" cy="574" r="1.2" fill="#c9d4e6" opacity="0.58"/>
<circle cx="462" cy="515" r="1.7" fill="#dfe8f5" class="tw d5"/>
<circle cx="1247" cy="75" r="1.9" fill="#dfe8f5" class="tw d2"/>
<circle cx="439" cy="197" r="1.2" fill="#c9d4e6" opacity="0.32"/>
<circle cx="31" cy="266" r="1.1" fill="#dfe8f5" class="tw"/>
<circle cx="249" cy="418" r="1.8" fill="#c9d4e6" opacity="0.35"/>
<circle cx="167" cy="373" r="1.2" fill="#c9d4e6" opacity="0.37"/>
<circle cx="957" cy="533" r="1.2" fill="#c9d4e6" opacity="0.56"/>
<circle cx="728" cy="393" r="1.1" fill="#c9d4e6" opacity="0.57"/>
<circle cx="952" cy="605" r="1.8" fill="#dfe8f5" class="tw d5"/>
<circle cx="1818" cy="585" r="2.2" fill="#c9d4e6" opacity="0.28"/>
<circle cx="1630" cy="207" r="2.0" fill="#dfe8f5" class="tw d1"/>
<circle cx="1689" cy="153" r="1.9" fill="#c9d4e6" opacity="0.36"/>
<circle cx="399" cy="453" r="1.9" fill="#c9d4e6" opacity="0.75"/>
<circle cx="104" cy="302" r="2.0" fill="#c9d4e6" opacity="0.61"/>
<circle cx="1083" cy="28" r="1.0" fill="#c9d4e6" opacity="0.49"/>
<circle cx="1180" cy="344" r="2.3" fill="#c9d4e6" opacity="0.70"/>
<circle cx="1437" cy="615" r="1.0" fill="#dfe8f5" class="tw d5"/>
<circle cx="635" cy="300" r="1.2" fill="#dfe8f5" class="tw d3"/>
<circle cx="1516" cy="516" r="1.2" fill="#c9d4e6" opacity="0.70"/>
<circle cx="823" cy="81" r="1.1" fill="#dfe8f5" class="tw d5"/>
<circle cx="574" cy="587" r="1.8" fill="#c9d4e6" opacity="0.68"/>
<circle cx="1089" cy="61" r="2.0" fill="#dfe8f5" class="tw"/>
<circle cx="1316" cy="248" r="2.0" fill="#c9d4e6" opacity="0.45"/>
<circle cx="982" cy="154" r="1.3" fill="#dfe8f5" class="tw d5"/>
<circle cx="1106" cy="605" r="1.3" fill="#c9d4e6" opacity="0.80"/>
<circle cx="961" cy="396" r="1.3" fill="#dfe8f5" class="tw d1"/>
<circle cx="1848" cy="613" r="1.0" fill="#dfe8f5" class="tw d2"/>
<circle cx="1850" cy="551" r="1.9" fill="#c9d4e6" opacity="0.53"/>
<circle cx="1194" cy="142" r="1.6" fill="#c9d4e6" opacity="0.54"/>
<circle cx="1095" cy="541" r="2.3" fill="#c9d4e6" opacity="0.52"/>
<circle cx="1124" cy="428" r="1.7" fill="#c9d4e6" opacity="0.73"/>
<circle cx="1581" cy="270" r="1.3" fill="#c9d4e6" opacity="0.37"/>
<circle cx="972" cy="349" r="1.6" fill="#dfe8f5" class="tw d2"/>
<circle cx="89" cy="125" r="1.0" fill="#dfe8f5" class="tw d1"/>
<circle cx="1852" cy="138" r="0.9" fill="#dfe8f5" class="tw d1"/>
<circle cx="603" cy="365" r="1.8" fill="#c9d4e6" opacity="0.66"/>
<circle cx="524" cy="317" r="1.0" fill="#c9d4e6" opacity="0.67"/>
<circle cx="1754" cy="245" r="1.1" fill="#c9d4e6" opacity="0.72"/>
<circle cx="62" cy="417" r="1.5" fill="#c9d4e6" opacity="0.66"/>
<circle cx="1126" cy="510" r="1.0" fill="#c9d4e6" opacity="0.54"/><circle cx="1620" cy="210" r="135" fill="url(#halo)"/>
<circle cx="1620" cy="210" r="52" fill="url(#mgrad)"/><path d="M240,950 C480,850 640,700 800,470 L1120,470 C1280,700 1440,850 1680,950 Z" fill="#1b2334"/><path d="M960,470 L1120,470 C1280,700 1440,850 1680,950 L960,950 Z" fill="#171f33"/><path d="M800,470 L1120,470 C1160,530 1200,590 1250,650 L1194,622 L1140,660 L1086,618 L1030,662 L976,620 L920,658 L866,616 L810,648 C740,590 770,530 800,470 Z" fill="#e7ecf5"/><path d="M960,470 L1120,470 C1160,530 1200,590 1250,650 L1194,622 L1140,660 L1086,618 L1030,662 L960,610 Z" fill="#ccd6e6"/><path d="M240,950 C480,850 640,700 800,470 M1120,470 C1280,700 1440,850 1680,950" fill="none" stroke="url(#acc)" stroke-width="2.2" opacity=".75"/><rect x="334" y="590" width="52" height="360" fill="#161d2c"/><path d="M260,870 Q244,866 250,854 L360,830 L470,854 Q476,866 460,870 Z" fill="#1d2534" stroke="#46557f" stroke-width="1.6" opacity=".95"/><rect x="278" y="870" width="164" height="14" fill="#10151f"/><path d="M274,806 Q258,802 264,790 L360,766 L456,790 Q462,802 446,806 Z" fill="#1d2534" stroke="#46557f" stroke-width="1.6" opacity=".95"/><rect x="292" y="806" width="136" height="14" fill="#10151f"/><path d="M288,742 Q272,738 278,726 L360,702 L442,726 Q448,738 432,742 Z" fill="#1d2534" stroke="#46557f" stroke-width="1.6" opacity=".95"/><rect x="306" y="742" width="108" height="14" fill="#10151f"/><path d="M302,678 Q286,674 292,662 L360,638 L428,662 Q434,674 418,678 Z" fill="#1d2534" stroke="#46557f" stroke-width="1.6" opacity=".95"/><rect x="320" y="678" width="80" height="14" fill="#10151f"/><path d="M316,614 Q300,610 306,598 L360,574 L414,598 Q420,610 404,614 Z" fill="#1d2534" stroke="#46557f" stroke-width="1.6" opacity=".95"/><rect x="334" y="614" width="52" height="14" fill="#10151f"/><line x1="360" y1="534" x2="360" y2="596" stroke="#46557f" stroke-width="3.4"/><circle cx="360" cy="548" r="5" fill="none" stroke="#46557f" stroke-width="2"/><rect x="352" y="790" width="16" height="22" fill="#ffd9a0" opacity=".85" class="flick"/><rect x="0" y="950" width="1920" height="330" fill="url(#wgrad)"/>
<line x1="0" y1="950" x2="1920" y2="950" stroke="url(#acc)" stroke-width="2.4" opacity=".55"/>
<line x1="846" y1="1105" x2="998" y2="1105" stroke="#7c5cff" stroke-width="2" class="shim" opacity=".3"/>
<line x1="1471" y1="1112" x2="1604" y2="1112" stroke="#43e0d0" stroke-width="2" class="shim d4" opacity=".3"/>
<line x1="1319" y1="1193" x2="1505" y2="1193" stroke="#7c5cff" stroke-width="2" class="shim d2" opacity=".3"/>
<line x1="1092" y1="1228" x2="1260" y2="1228" stroke="#43e0d0" stroke-width="2" class="shim" opacity=".3"/>
<line x1="717" y1="1070" x2="777" y2="1070" stroke="#43e0d0" stroke-width="2" class="shim d4" opacity=".3"/>
<line x1="1395" y1="993" x2="1435" y2="993" stroke="#43e0d0" stroke-width="2" class="shim" opacity=".3"/>
<line x1="1317" y1="1027" x2="1511" y2="1027" stroke="#7c5cff" stroke-width="2" class="shim" opacity=".3"/>
<line x1="509" y1="1195" x2="586" y2="1195" stroke="#43e0d0" stroke-width="2" class="shim" opacity=".3"/>
<line x1="1435" y1="1207" x2="1521" y2="1207" stroke="#43e0d0" stroke-width="2" class="shim" opacity=".3"/>
<line x1="502" y1="1160" x2="584" y2="1160" stroke="#43e0d0" stroke-width="2" class="shim d2" opacity=".3"/>
<line x1="317" y1="1115" x2="434" y2="1115" stroke="#43e0d0" stroke-width="2" class="shim d1" opacity=".3"/>
<line x1="1613" y1="1044" x2="1801" y2="1044" stroke="#43e0d0" stroke-width="2" class="shim d2" opacity=".3"/><g>
<path d="M700,1050 L738,724 M1220,1050 L1182,724" stroke="#1d2534" stroke-width="30"/>
<path d="M700,1050 L738,724 M1220,1050 L1182,724" stroke="url(#acc)" stroke-width="2.6" opacity=".75"/>
<ellipse cx="702" cy="1052" rx="30" ry="9" fill="#141b2c"/>
<ellipse cx="1218" cy="1052" rx="30" ry="9" fill="#141b2c"/>
<path d="M634,706 Q960,652 1286,706 L1276,746 Q960,696 644,746 Z" fill="#1d2534" stroke="url(#acc)" stroke-width="2.4"/>
<path d="M634,706 Q960,652 1286,706" fill="none" stroke="#46557f" stroke-width="2.4"/>
<rect x="752" y="788" width="416" height="28" fill="#1d2534" stroke="url(#acc)" stroke-width="1.8"/>
<line x1="960" y1="700" x2="960" y2="788" stroke="#1d2534" stroke-width="20"/>
<rect x="936" y="792" width="48" height="20" rx="3" fill="#0d1220"/>
</g><g class="shim d1" opacity=".4"><path d="M700,1066 L740,1140 M1220,1066 L1180,1140" stroke="#43e0d0" stroke-width="3"/></g><rect width="1920" height="1280" fill="url(#vig)"/>
<rect width="1920" height="1280" filter="url(#grain)" opacity="0.55" fill="none"/>
</svg>