<svg xmlns="http://www.w3.org/2000/svg" viewBox="0 0 1920 1280" width="1920" height="1280">
<defs>
<linearGradient id="sky" x1="0" y1="0" x2="0" y2="1">
 <stop offset="0" stop-color="#05060c"/><stop offset="1" stop-color="#101331"/>
</linearGradient>
<linearGradient id="acc" x1="0" y1="0" x2="1" y2="1">
 <stop offset="0" stop-color="#7c5cff"/><stop offset="1" stop-color="#43e0d0"/>
</linearGradient>
<linearGradient id="accv" x1="0" y1="0" x2="0" y2="1">
 <stop offset="0" stop-color="#7c5cff"/><stop offset="1" stop-color="#43e0d0"/>
</linearGradient>
<radialGradient id="mgrad" cx="0.35" cy="0.3" r="1">
 <stop offset="0" stop-color="#a99cff"/><stop offset="1" stop-color="#5fe6d6"/>
</radialGradient>
<radialGradient id="halo" cx="0.5" cy="0.5" r="0.5">
 <stop offset="0" stop-color="rgba(103,220,205,.34)"/><stop offset="1" stop-color="rgba(103,220,205,0)"/>
</radialGradient>
<radialGradient id="vig" cx="0.5" cy="0.46" r="0.85">
 <stop offset="0.55" stop-color="rgba(0,0,0,0)"/><stop offset="1" stop-color="rgba(0,0,4,.5)"/>
</radialGradient>
<linearGradient id="wgrad" x1="0" y1="0" x2="0" y2="1">
 <stop offset="0" stop-color="#0b111e"/><stop offset="1" stop-color="#070a12"/>
</linearGradient>
<filter id="soft" x="-40%" y="-40%" width="180%" height="180%"><feGaussianBlur stdDeviation="7"/></filter>
<filter id="soft2" x="-60%" y="-60%" width="220%" height="220%"><feGaussianBlur stdDeviation="16"/></filter>
<filter id="grain"><feTurbulence type="fractalNoise" baseFrequency="0.8" numOctaves="2" stitchTiles="stitch"/>
 <feColorMatrix type="matrix" values="0 0 0 0 1 0 0 0 0 1 0 0 0 0 1 0 0 0 0.05 0"/><feComposite operator="over" in2="SourceGraphic"/></filter>
</defs>
<style>
@keyframes tw{0%,100%{opacity:.1}50%{opacity:1}}
.tw{animation:tw 3.4s ease-in-out infinite}
.tw.d1{animation-delay:.6s}.tw.d2{animation-delay:1.2s}.tw.d3{animation-delay:1.9s}.tw.d4{animation-delay:2.6s}.tw.d5{animation-delay:3.1s}
@keyframes shoot{0%,84%{opacity:0;transform:translate(0,0)}86%{opacity:1}96%{opacity:0;transform:translate(-620px,320px)}100%{opacity:0}}
.shoot{animation:shoot 12s linear infinite}
.shoot.s2{animation-duration:19s;animation-delay:7s}
@keyframes bob{0%,100%{transform:translateY(0px) rotate(-1.2deg)}50%{transform:translateY(9px) rotate(1.4deg)}}
.bob{animation:bob 5.6s ease-in-out infinite;transform-box:fill-box;transform-origin:center}
.bob.b2{animation-duration:7.2s;animation-delay:1.1s}
@keyframes shim{0%,100%{opacity:.22}50%{opacity:.75}}
.shim{animation:shim 4.4s ease-in-out infinite}
.shim.d1{animation-delay:1.4s}.shim.d2{animation-delay:2.7s}.shim.d3{animation-delay:3.6s}
@keyframes flick{0%,91%,100%{opacity:.9}93%{opacity:.25}95%{opacity:.85}}
.flick{animation:flick 8s linear infinite}.flick.f2{animation-delay:3.5s}
@keyframes spin{from{transform:rotate(0deg)}to{transform:rotate(360deg)}}
.wheel{animation:spin 80s linear infinite;transform-box:fill-box;transform-origin:center}
@keyframes aur{0%,100%{opacity:.34;transform:skewX(0deg)}50%{opacity:.72;transform:skewX(-4deg)}}
.aur{animation:aur 9s ease-in-out infinite;transform-box:fill-box;transform-origin:bottom}
.aur.a2{animation-duration:13s;animation-delay:2.5s}
@keyframes fall{from{transform:translateY(-140px)}to{transform:translateY(150px)}}
.fall{animation:fall 9s linear infinite}.fall.f2{animation-duration:13s;animation-delay:2s}.fall.f3{animation-duration:11s;animation-delay:5s}
@keyframes sway{0%,100%{transform:rotate(-1.4deg)}50%{transform:rotate(1.4deg)}}
.sway{animation:sway 7s ease-in-out infinite;transform-box:fill-box;transform-origin:bottom center}

@media (prefers-reduced-motion:reduce){*{animation:none!important}}
</style>
<rect width="1920" height="1280" fill="url(#sky)"/><circle cx="1167" cy="358" r="2.3" fill="#dfe8f5" class="tw d1"/>
<circle cx="1783" cy="461" r="2.1" fill="#c9d4e6" opacity="0.31"/>
<circle cx="428" cy="53" r="1.5" fill="#dfe8f5" class="tw d5"/>
<circle cx="1336" cy="210" r="1.0" fill="#c9d4e6" opacity="0.45"/>
<circle cx="79" cy="547" r="1.1" fill="#c9d4e6" opacity="0.31"/>
<circle cx="730" cy="135" r="1.4" fill="#c9d4e6" opacity="0.40"/>
<circle cx="1702" cy="409" r="2.3" fill="#c9d4e6" opacity="0.63"/>
<circle cx="1674" cy="412" r="1.2" fill="#dfe8f5" class="tw d1"/>
<circle cx="993" cy="175" r="1.9" fill="#dfe8f5" class="tw d3"/>
<circle cx="367" cy="340" r="1.2" fill="#c9d4e6" opacity="0.63"/>
<circle cx="1484" cy="477" r="1.6" fill="#dfe8f5" class="tw d3"/>
<circle cx="239" cy="433" r="1.2" fill="#c9d4e6" opacity="0.32"/>
<circle cx="994" cy="273" r="1.1" fill="#dfe8f5" class="tw d2"/>
<circle cx="1704" cy="238" r="1.1" fill="#c9d4e6" opacity="0.54"/>
<circle cx="919" cy="575" r="1.8" fill="#c9d4e6" opacity="0.57"/>
<circle cx="147" cy="193" r="1.4" fill="#c9d4e6" opacity="0.75"/>
<circle cx="1387" cy="442" r="1.8" fill="#c9d4e6" opacity="0.41"/>
<circle cx="119" cy="429" r="1.1" fill="#dfe8f5" class="tw d5"/>
<circle cx="1705" cy="231" r="2.2" fill="#c9d4e6" opacity="0.51"/>
<circle cx="1060" cy="243" r="1.3" fill="#c9d4e6" opacity="0.64"/>
<circle cx="213" cy="23" r="1.5" fill="#c9d4e6" opacity="0.64"/>
<circle cx="878" cy="341" r="1.3" fill="#dfe8f5" class="tw d2"/>
<circle cx="722" cy="565" r="1.0" fill="#c9d4e6" opacity="0.42"/>
<circle cx="1113" cy="286" r="1.8" fill="#c9d4e6" opacity="0.68"/>
<circle cx="1673" cy="47" r="1.3" fill="#c9d4e6" opacity="0.51"/>
<circle cx="547" cy="596" r="1.9" fill="#c9d4e6" opacity="0.65"/>
<circle cx="1208" cy="259" r="1.3" fill="#c9d4e6" opacity="0.63"/>
<circle cx="1384" cy="450" r="1.5" fill="#c9d4e6" opacity="0.68"/>
<circle cx="126" cy="113" r="1.7" fill="#dfe8f5" class="tw d2"/>
<circle cx="537" cy="40" r="1.9" fill="#dfe8f5" class="tw d1"/>
<circle cx="164" cy="526" r="1.0" fill="#c9d4e6" opacity="0.57"/>
<circle cx="188" cy="232" r="1.5" fill="#c9d4e6" opacity="0.67"/>
<circle cx="70" cy="48" r="1.4" fill="#dfe8f5" class="tw d3"/>
<circle cx="999" cy="404" r="1.9" fill="#c9d4e6" opacity="0.31"/>
<circle cx="87" cy="120" r="1.7" fill="#c9d4e6" opacity="0.33"/>
<circle cx="279" cy="548" r="1.5" fill="#c9d4e6" opacity="0.51"/>
<circle cx="1348" cy="432" r="2.3" fill="#dfe8f5" class="tw"/>
<circle cx="475" cy="72" r="2.4" fill="#c9d4e6" opacity="0.61"/>
<circle cx="1246" cy="156" r="2.3" fill="#dfe8f5" class="tw"/>
<circle cx="831" cy="443" r="1.7" fill="#c9d4e6" opacity="0.71"/>
<circle cx="1091" cy="333" r="1.0" fill="#c9d4e6" opacity="0.28"/>
<circle cx="934" cy="361" r="1.2" fill="#dfe8f5" class="tw d4"/>
<circle cx="1309" cy="450" r="1.9" fill="#dfe8f5" class="tw d1"/>
<circle cx="1599" cy="205" r="2.4" fill="#c9d4e6" opacity="0.56"/><circle cx="1660" cy="230" r="130" fill="url(#halo)"/>
<circle cx="1660" cy="230" r="50" fill="url(#mgrad)"/><rect x="600" y="780" width="760" height="166" fill="#161d2c"/><path d="M625,810 C643,575 670,406 700,340 C730,406 757,575 775,810 Z" fill="#1a2130"/><line x1="632" y1="758" x2="768" y2="758" stroke="#0f1420" stroke-width="2.6" opacity=".9"/><line x1="639" y1="706" x2="761" y2="706" stroke="#0f1420" stroke-width="2.6" opacity=".9"/><line x1="646" y1="653" x2="754" y2="653" stroke="#0f1420" stroke-width="2.6" opacity=".9"/><line x1="654" y1="601" x2="746" y2="601" stroke="#0f1420" stroke-width="2.6" opacity=".9"/><line x1="661" y1="549" x2="739" y2="549" stroke="#0f1420" stroke-width="2.6" opacity=".9"/><line x1="670" y1="497" x2="730" y2="497" stroke="#0f1420" stroke-width="2.6" opacity=".9"/><line x1="678" y1="444" x2="722" y2="444" stroke="#0f1420" stroke-width="2.6" opacity=".9"/><line x1="688" y1="392" x2="712" y2="392" stroke="#0f1420" stroke-width="2.6" opacity=".9"/><ellipse cx="700" cy="678" rx="14" ry="13" fill="#0b0f18"/><ellipse cx="700" cy="584" rx="12" ry="13" fill="#0b0f18"/><ellipse cx="700" cy="490" rx="9" ry="13" fill="#0b0f18"/><path d="M625,810 C643,575 670,406 700,340 C730,406 757,575 775,810" fill="none" stroke="url(#accv)" stroke-width="2" opacity=".8"/><line x1="700" y1="340" x2="700" y2="316" stroke="url(#acc)" stroke-width="2.6"/><circle cx="700" cy="310" r="6.5" fill="none" stroke="#43e0d0" stroke-width="1.8"/><circle cx="700" cy="310" r="2.6" fill="#ffd9a0" class="tw d2"/><path d="M784,810 C799,610 823,466 848,410 C873,466 897,610 912,810 Z" fill="#1a2130"/><line x1="790" y1="766" x2="906" y2="766" stroke="#0f1420" stroke-width="2.6" opacity=".9"/><line x1="796" y1="721" x2="900" y2="721" stroke="#0f1420" stroke-width="2.6" opacity=".9"/><line x1="802" y1="677" x2="894" y2="677" stroke="#0f1420" stroke-width="2.6" opacity=".9"/><line x1="808" y1="632" x2="888" y2="632" stroke="#0f1420" stroke-width="2.6" opacity=".9"/><line x1="815" y1="588" x2="881" y2="588" stroke="#0f1420" stroke-width="2.6" opacity=".9"/><line x1="822" y1="543" x2="874" y2="543" stroke="#0f1420" stroke-width="2.6" opacity=".9"/><line x1="829" y1="499" x2="867" y2="499" stroke="#0f1420" stroke-width="2.6" opacity=".9"/><line x1="837" y1="454" x2="859" y2="454" stroke="#0f1420" stroke-width="2.6" opacity=".9"/><ellipse cx="848" cy="698" rx="13" ry="11" fill="#0b0f18"/><ellipse cx="848" cy="618" rx="11" ry="11" fill="#0b0f18"/><ellipse cx="848" cy="538" rx="9" ry="11" fill="#0b0f18"/><path d="M784,810 C799,610 823,466 848,410 C873,466 897,610 912,810" fill="none" stroke="url(#accv)" stroke-width="2" opacity=".8"/><line x1="848" y1="410" x2="848" y2="386" stroke="url(#acc)" stroke-width="2.6"/><circle cx="848" cy="380" r="6.5" fill="none" stroke="#43e0d0" stroke-width="1.8"/><path d="M896,810 C916,550 947,363 980,290 C1013,363 1044,550 1064,810 Z" fill="#1a2130"/><line x1="904" y1="752" x2="1056" y2="752" stroke="#0f1420" stroke-width="2.6" opacity=".9"/><line x1="912" y1="694" x2="1048" y2="694" stroke="#0f1420" stroke-width="2.6" opacity=".9"/><line x1="920" y1="637" x2="1040" y2="637" stroke="#0f1420" stroke-width="2.6" opacity=".9"/><line x1="928" y1="579" x2="1032" y2="579" stroke="#0f1420" stroke-width="2.6" opacity=".9"/><line x1="937" y1="521" x2="1023" y2="521" stroke="#0f1420" stroke-width="2.6" opacity=".9"/><line x1="946" y1="463" x2="1014" y2="463" stroke="#0f1420" stroke-width="2.6" opacity=".9"/><line x1="956" y1="406" x2="1004" y2="406" stroke="#0f1420" stroke-width="2.6" opacity=".9"/><line x1="966" y1="348" x2="994" y2="348" stroke="#0f1420" stroke-width="2.6" opacity=".9"/><ellipse cx="980" cy="664" rx="16" ry="15" fill="#0b0f18"/><ellipse cx="980" cy="560" rx="13" ry="15" fill="#0b0f18"/><ellipse cx="980" cy="456" rx="10" ry="15" fill="#0b0f18"/><path d="M896,810 C916,550 947,363 980,290 C1013,363 1044,550 1064,810" fill="none" stroke="url(#accv)" stroke-width="2" opacity=".8"/><line x1="980" y1="290" x2="980" y2="266" stroke="url(#acc)" stroke-width="2.6"/><circle cx="980" cy="260" r="6.5" fill="none" stroke="#43e0d0" stroke-width="1.8"/><circle cx="980" cy="260" r="2.6" fill="#ffd9a0" class="tw d2"/><path d="M1048,810 C1063,610 1087,466 1112,410 C1137,466 1161,610 1176,810 Z" fill="#1a2130"/><line x1="1054" y1="766" x2="1170" y2="766" stroke="#0f1420" stroke-width="2.6" opacity=".9"/><line x1="1060" y1="721" x2="1164" y2="721" stroke="#0f1420" stroke-width="2.6" opacity=".9"/><line x1="1066" y1="677" x2="1158" y2="677" stroke="#0f1420" stroke-width="2.6" opacity=".9"/><line x1="1072" y1="632" x2="1152" y2="632" stroke="#0f1420" stroke-width="2.6" opacity=".9"/><line x1="1079" y1="588" x2="1145" y2="588" stroke="#0f1420" stroke-width="2.6" opacity=".9"/><line x1="1086" y1="543" x2="1138" y2="543" stroke="#0f1420" stroke-width="2.6" opacity=".9"/><line x1="1093" y1="499" x2="1131" y2="499" stroke="#0f1420" stroke-width="2.6" opacity=".9"/><line x1="1101" y1="454" x2="1123" y2="454" stroke="#0f1420" stroke-width="2.6" opacity=".9"/><ellipse cx="1112" cy="698" rx="13" ry="11" fill="#0b0f18"/><ellipse cx="1112" cy="618" rx="11" ry="11" fill="#0b0f18"/><ellipse cx="1112" cy="538" rx="9" ry="11" fill="#0b0f18"/><path d="M1048,810 C1063,610 1087,466 1112,410 C1137,466 1161,610 1176,810" fill="none" stroke="url(#accv)" stroke-width="2" opacity=".8"/><line x1="1112" y1="410" x2="1112" y2="386" stroke="url(#acc)" stroke-width="2.6"/><circle cx="1112" cy="380" r="6.5" fill="none" stroke="#43e0d0" stroke-width="1.8"/><path d="M1185,810 C1203,575 1230,406 1260,340 C1290,406 1317,575 1335,810 Z" fill="#1a2130"/><line x1="1192" y1="758" x2="1328" y2="758" stroke="#0f1420" stroke-width="2.6" opacity=".9"/><line x1="1199" y1="706" x2="1321" y2="706" stroke="#0f1420" stroke-width="2.6" opacity=".9"/><line x1="1206" y1="653" x2="1314" y2="653" stroke="#0f1420" stroke-width="2.6" opacity=".9"/><line x1="1214" y1="601" x2="1306" y2="601" stroke="#0f1420" stroke-width="2.6" opacity=".9"/><line x1="1221" y1="549" x2="1299" y2="549" stroke="#0f1420" stroke-width="2.6" opacity=".9"/><line x1="1230" y1="497" x2="1290" y2="497" stroke="#0f1420" stroke-width="2.6" opacity=".9"/><line x1="1238" y1="444" x2="1282" y2="444" stroke="#0f1420" stroke-width="2.6" opacity=".9"/><line x1="1248" y1="392" x2="1272" y2="392" stroke="#0f1420" stroke-width="2.6" opacity=".9"/><ellipse cx="1260" cy="678" rx="14" ry="13" fill="#0b0f18"/><ellipse cx="1260" cy="584" rx="12" ry="13" fill="#0b0f18"/><ellipse cx="1260" cy="490" rx="9" ry="13" fill="#0b0f18"/><path d="M1185,810 C1203,575 1230,406 1260,340 C1290,406 1317,575 1335,810" fill="none" stroke="url(#accv)" stroke-width="2" opacity=".8"/><line x1="1260" y1="340" x2="1260" y2="316" stroke="url(#acc)" stroke-width="2.6"/><circle cx="1260" cy="310" r="6.5" fill="none" stroke="#43e0d0" stroke-width="1.8"/><circle cx="631" cy="832" r="1.9" fill="#232c40" opacity=".8"/><circle cx="1097" cy="933" r="1.3" fill="#232c40" opacity=".8"/><circle cx="929" cy="928" r="1.1" fill="#232c40" opacity=".8"/><circle cx="667" cy="798" r="2.0" fill="#232c40" opacity=".8"/><circle cx="985" cy="824" r="2.1" fill="#232c40" opacity=".8"/><circle cx="1061" cy="821" r="1.4" fill="#232c40" opacity=".8"/><circle cx="954" cy="822" r="2.0" fill="#232c40" opacity=".8"/><circle cx="672" cy="907" r="2.0" fill="#232c40" opacity=".8"/><circle cx="1280" cy="824" r="1.5" fill="#232c40" opacity=".8"/><circle cx="884" cy="842" r="1.4" fill="#232c40" opacity=".8"/><circle cx="1140" cy="850" r="1.7" fill="#232c40" opacity=".8"/><circle cx="809" cy="809" r="1.1" fill="#232c40" opacity=".8"/><circle cx="1186" cy="880" r="1.6" fill="#232c40" opacity=".8"/><circle cx="727" cy="877" r="2.0" fill="#232c40" opacity=".8"/><circle cx="689" cy="904" r="1.7" fill="#232c40" opacity=".8"/><circle cx="1088" cy="865" r="1.5" fill="#232c40" opacity=".8"/><circle cx="1151" cy="934" r="1.3" fill="#232c40" opacity=".8"/><circle cx="953" cy="898" r="1.6" fill="#232c40" opacity=".8"/><circle cx="770" cy="857" r="1.7" fill="#232c40" opacity=".8"/><circle cx="798" cy="904" r="1.7" fill="#232c40" opacity=".8"/><circle cx="924" cy="883" r="1.6" fill="#232c40" opacity=".8"/><circle cx="784" cy="838" r="1.9" fill="#232c40" opacity=".8"/><circle cx="1102" cy="789" r="1.8" fill="#232c40" opacity=".8"/><circle cx="1301" cy="915" r="1.8" fill="#232c40" opacity=".8"/><circle cx="660" cy="835" r="1.9" fill="#232c40" opacity=".8"/><circle cx="710" cy="873" r="1.9" fill="#232c40" opacity=".8"/><circle cx="1147" cy="821" r="1.8" fill="#232c40" opacity=".8"/><circle cx="708" cy="794" r="1.4" fill="#232c40" opacity=".8"/><circle cx="802" cy="832" r="1.4" fill="#232c40" opacity=".8"/><circle cx="1258" cy="796" r="1.3" fill="#232c40" opacity=".8"/><circle cx="646" cy="877" r="1.9" fill="#232c40" opacity=".8"/><circle cx="1172" cy="858" r="2.1" fill="#232c40" opacity=".8"/><circle cx="1295" cy="845" r="1.4" fill="#232c40" opacity=".8"/><circle cx="851" cy="875" r="1.9" fill="#232c40" opacity=".8"/><circle cx="1202" cy="810" r="1.4" fill="#232c40" opacity=".8"/><circle cx="805" cy="796" r="1.1" fill="#232c40" opacity=".8"/><circle cx="840" cy="795" r="1.8" fill="#232c40" opacity=".8"/><circle cx="1102" cy="935" r="1.4" fill="#232c40" opacity=".8"/><circle cx="1088" cy="858" r="1.6" fill="#232c40" opacity=".8"/><circle cx="949" cy="836" r="1.6" fill="#232c40" opacity=".8"/><circle cx="1337" cy="922" r="2.1" fill="#232c40" opacity=".8"/><circle cx="694" cy="907" r="1.9" fill="#232c40" opacity=".8"/><circle cx="1075" cy="803" r="1.4" fill="#232c40" opacity=".8"/><circle cx="612" cy="791" r="1.5" fill="#232c40" opacity=".8"/><circle cx="793" cy="830" r="1.6" fill="#232c40" opacity=".8"/><circle cx="809" cy="872" r="1.8" fill="#232c40" opacity=".8"/><circle cx="1149" cy="889" r="1.8" fill="#232c40" opacity=".8"/><circle cx="865" cy="859" r="2.1" fill="#232c40" opacity=".8"/><circle cx="1200" cy="928" r="2.1" fill="#232c40" opacity=".8"/><circle cx="998" cy="899" r="2.1" fill="#232c40" opacity=".8"/><circle cx="1190" cy="817" r="1.2" fill="#232c40" opacity=".8"/><circle cx="670" cy="912" r="1.3" fill="#232c40" opacity=".8"/><circle cx="617" cy="825" r="1.2" fill="#232c40" opacity=".8"/><circle cx="875" cy="792" r="1.9" fill="#232c40" opacity=".8"/><circle cx="1297" cy="794" r="1.5" fill="#232c40" opacity=".8"/><circle cx="898" cy="834" r="2.0" fill="#232c40" opacity=".8"/><circle cx="1225" cy="805" r="1.4" fill="#232c40" opacity=".8"/><circle cx="701" cy="866" r="1.3" fill="#232c40" opacity=".8"/><circle cx="1095" cy="866" r="2.0" fill="#232c40" opacity=".8"/><circle cx="1334" cy="878" r="1.5" fill="#232c40" opacity=".8"/><circle cx="766" cy="902" r="1.8" fill="#232c40" opacity=".8"/><circle cx="717" cy="799" r="1.5" fill="#232c40" opacity=".8"/><circle cx="776" cy="873" r="1.9" fill="#232c40" opacity=".8"/><circle cx="1165" cy="926" r="1.4" fill="#232c40" opacity=".8"/><circle cx="658" cy="863" r="1.6" fill="#232c40" opacity=".8"/><circle cx="1104" cy="819" r="1.2" fill="#232c40" opacity=".8"/><circle cx="1282" cy="858" r="1.8" fill="#232c40" opacity=".8"/><circle cx="1072" cy="863" r="2.2" fill="#232c40" opacity=".8"/><circle cx="1202" cy="791" r="2.1" fill="#232c40" opacity=".8"/><circle cx="953" cy="858" r="1.9" fill="#232c40" opacity=".8"/><path d="M870,946 L980,820 L1090,946 Z" fill="#1a2334"/><path d="M870,946 L980,820 L1090,946" fill="none" stroke="#46557f" stroke-width="2" opacity=".8"/><path d="M940,946 v-64 a40,52 0 0 1 80,0 v64 Z" fill="#0b0f18"/><path d="M940,946 v-64 a40,52 0 0 1 80,0 v64" fill="none" stroke="#ffd9a0" stroke-width="1.6" opacity=".5"/><circle cx="700" cy="860" r="26" fill="#0b0f18" stroke="#7c5cff" stroke-width="1.8"/><circle cx="1260" cy="860" r="26" fill="#0b0f18" stroke="#7c5cff" stroke-width="1.8"/><line x1="600" y1="780" x2="1360" y2="780" stroke="#46557f" stroke-width="1.6" opacity=".4"/><g><line x1="520" y1="946" x2="520" y2="326" stroke="#26304a" stroke-width="8"/><line x1="514" y1="946" x2="514" y2="326" stroke="#1a2238" stroke-width="3"/><line x1="520" y1="326" x2="310" y2="326" stroke="#26304a" stroke-width="5"/><line x1="520" y1="326" x2="600" y2="326" stroke="#26304a" stroke-width="5"/><line x1="520" y1="280" x2="310" y2="326" stroke="#26304a" stroke-width="2"/><line x1="520" y1="280" x2="600" y2="326" stroke="#26304a" stroke-width="2"/><line x1="520" y1="280" x2="520" y2="326" stroke="#26304a" stroke-width="3"/><rect x="600" y="318" width="26" height="16" fill="#26304a"/><line x1="352" y1="326" x2="352" y2="396" stroke="#26304a" stroke-width="2"/><rect x="344" y="396" width="16" height="12" fill="#26304a"/><circle cx="520" cy="276" r="3.6" fill="#ff6b6b" class="tw d3"/></g><g><line x1="1450" y1="946" x2="1450" y2="266" stroke="#26304a" stroke-width="8"/><line x1="1444" y1="946" x2="1444" y2="266" stroke="#1a2238" stroke-width="3"/><line x1="1450" y1="266" x2="1660" y2="266" stroke="#26304a" stroke-width="5"/><line x1="1450" y1="266" x2="1370" y2="266" stroke="#26304a" stroke-width="5"/><line x1="1450" y1="220" x2="1660" y2="266" stroke="#26304a" stroke-width="2"/><line x1="1450" y1="220" x2="1370" y2="266" stroke="#26304a" stroke-width="2"/><line x1="1450" y1="220" x2="1450" y2="266" stroke="#26304a" stroke-width="3"/><rect x="1356" y="258" width="26" height="16" fill="#26304a"/><line x1="1618" y1="266" x2="1618" y2="336" stroke="#26304a" stroke-width="2"/><rect x="1610" y="336" width="16" height="12" fill="#26304a"/><circle cx="1450" cy="216" r="3.6" fill="#ff6b6b" class="tw d3"/></g><rect x="0" y="946" width="1920" height="334" fill="#0a0e17"/><line x1="0" y1="946" x2="1920" y2="946" stroke="url(#acc)" stroke-width="2" opacity=".45"/><rect width="1920" height="1280" fill="url(#vig)"/>
<rect width="1920" height="1280" filter="url(#grain)" opacity="0.55" fill="none"/>
</svg>